<svg xmlns="http://www.w3.org/2000/svg" xmlns:xlink="http://www.w3.org/1999/xlink" width="1080" zoomAndPan="magnify" viewBox="0 0 810 809.999993" height="1080" preserveAspectRatio="xMidYMid meet" version="1.0"><defs><clipPath id="aa43e94620"><path d="M 22.414062 46 L 767.914062 46 L 767.914062 744 L 22.414062 744 Z M 22.414062 46 " clip-rule="nonzero"/></clipPath><clipPath id="4e9fb233dd"><path d="M 46 22.414062 L 744 22.414062 L 744 767.914062 L 46 767.914062 Z M 46 22.414062 " clip-rule="nonzero"/></clipPath></defs><g clip-path="url(#aa43e94620)"><path fill="#f7e1e3" d="M 612.703125 55.664062 L 761.207031 226.234375 C 771.046875 237.566406 769.851562 254.5625 758.523438 264.40625 L 215.796875 737.199219 C 204.464844 747.042969 187.46875 745.847656 177.628906 734.515625 L 29.125 564.09375 C 19.285156 552.765625 20.476562 535.765625 31.808594 525.925781 L 574.53125 53.128906 C 585.863281 43.289062 603.011719 44.480469 612.703125 55.664062 Z M 612.703125 55.664062 " fill-opacity="1" fill-rule="nonzero"/></g><g clip-path="url(#4e9fb233dd)"><path fill="#d76b73" d="M 734.664062 612.703125 L 564.09375 761.207031 C 552.765625 771.046875 535.765625 769.851562 525.925781 758.523438 L 53.128906 215.796875 C 43.289062 204.464844 44.480469 187.46875 55.8125 177.628906 L 226.234375 29.125 C 237.566406 19.285156 254.5625 20.476562 264.40625 31.808594 L 737.199219 574.679688 C 747.039062 585.863281 745.847656 603.011719 734.664062 612.703125 Z M 734.664062 612.703125 " fill-opacity="1" fill-rule="nonzero"/></g><path fill="#ffffff" d="M 391.734375 551.71875 L 239.652344 376.976562 C 237.417969 374.441406 237.714844 370.5625 240.25 368.476562 L 386.964844 240.699219 C 389.5 238.460938 393.375 238.757812 395.464844 241.292969 L 547.695312 416.039062 C 549.929688 418.574219 549.632812 422.449219 547.097656 424.539062 L 400.382812 552.316406 C 397.847656 554.554688 393.972656 554.253906 391.734375 551.71875 Z M 391.734375 551.71875 " fill-opacity="1" fill-rule="nonzero"/><path fill="#ffffff" d="M 244.425781 122.460938 C 244.425781 123.1875 244.355469 123.902344 244.214844 124.613281 C 244.070312 125.324219 243.863281 126.015625 243.585938 126.683594 C 243.308594 127.351562 242.96875 127.988281 242.566406 128.589844 C 242.164062 129.195312 241.707031 129.75 241.191406 130.261719 C 240.679688 130.773438 240.125 131.234375 239.519531 131.636719 C 238.917969 132.039062 238.28125 132.378906 237.613281 132.65625 C 236.945312 132.933594 236.253906 133.140625 235.542969 133.28125 C 234.832031 133.425781 234.117188 133.496094 233.390625 133.496094 C 232.667969 133.496094 231.949219 133.425781 231.238281 133.28125 C 230.527344 133.140625 229.839844 132.933594 229.167969 132.65625 C 228.5 132.378906 227.863281 132.039062 227.261719 131.636719 C 226.660156 131.234375 226.101562 130.773438 225.589844 130.261719 C 225.078125 129.75 224.621094 129.195312 224.21875 128.589844 C 223.816406 127.988281 223.476562 127.351562 223.199219 126.683594 C 222.921875 126.015625 222.710938 125.324219 222.570312 124.613281 C 222.429688 123.902344 222.359375 123.1875 222.359375 122.460938 C 222.359375 121.738281 222.429688 121.019531 222.570312 120.308594 C 222.710938 119.597656 222.921875 118.90625 223.199219 118.238281 C 223.476562 117.570312 223.816406 116.933594 224.21875 116.332031 C 224.621094 115.730469 225.078125 115.171875 225.589844 114.660156 C 226.101562 114.148438 226.660156 113.691406 227.261719 113.289062 C 227.863281 112.882812 228.5 112.542969 229.167969 112.269531 C 229.839844 111.992188 230.527344 111.78125 231.238281 111.640625 C 231.949219 111.5 232.667969 111.429688 233.390625 111.429688 C 234.117188 111.429688 234.832031 111.5 235.542969 111.640625 C 236.253906 111.78125 236.945312 111.992188 237.613281 112.269531 C 238.28125 112.542969 238.917969 112.882812 239.519531 113.289062 C 240.125 113.691406 240.679688 114.148438 241.191406 114.660156 C 241.707031 115.171875 242.164062 115.730469 242.566406 116.332031 C 242.96875 116.933594 243.308594 117.570312 243.585938 118.238281 C 243.863281 118.90625 244.070312 119.597656 244.214844 120.308594 C 244.355469 121.019531 244.425781 121.738281 244.425781 122.460938 Z M 244.425781 122.460938 " fill-opacity="1" fill-rule="nonzero"/><path fill="#ffffff" d="M 239.804688 190.152344 C 239.804688 190.878906 239.730469 191.59375 239.589844 192.304688 C 239.449219 193.015625 239.238281 193.707031 238.964844 194.375 C 238.6875 195.042969 238.347656 195.679688 237.945312 196.28125 C 237.539062 196.882812 237.082031 197.441406 236.570312 197.953125 C 236.058594 198.464844 235.5 198.925781 234.898438 199.328125 C 234.296875 199.730469 233.660156 200.070312 232.992188 200.347656 C 232.324219 200.625 231.632812 200.832031 230.921875 200.972656 C 230.210938 201.117188 229.492188 201.1875 228.769531 201.1875 C 228.046875 201.1875 227.328125 201.117188 226.617188 200.972656 C 225.90625 200.832031 225.214844 200.625 224.546875 200.347656 C 223.878906 200.070312 223.242188 199.730469 222.640625 199.328125 C 222.039062 198.925781 221.480469 198.464844 220.96875 197.953125 C 220.457031 197.441406 219.996094 196.882812 219.59375 196.28125 C 219.191406 195.679688 218.851562 195.042969 218.574219 194.375 C 218.296875 193.707031 218.089844 193.015625 217.949219 192.304688 C 217.808594 191.59375 217.734375 190.878906 217.734375 190.152344 C 217.734375 189.429688 217.808594 188.710938 217.949219 188 C 218.089844 187.289062 218.296875 186.597656 218.574219 185.929688 C 218.851562 185.261719 219.191406 184.625 219.59375 184.023438 C 219.996094 183.421875 220.457031 182.863281 220.96875 182.351562 C 221.480469 181.839844 222.039062 181.382812 222.640625 180.980469 C 223.242188 180.574219 223.878906 180.234375 224.546875 179.960938 C 225.214844 179.683594 225.90625 179.472656 226.617188 179.332031 C 227.328125 179.191406 228.046875 179.121094 228.769531 179.121094 C 229.492188 179.121094 230.210938 179.191406 230.921875 179.332031 C 231.632812 179.472656 232.324219 179.683594 232.992188 179.960938 C 233.660156 180.234375 234.296875 180.574219 234.898438 180.980469 C 235.5 181.382812 236.058594 181.839844 236.570312 182.351562 C 237.082031 182.863281 237.539062 183.421875 237.945312 184.023438 C 238.347656 184.625 238.6875 185.261719 238.964844 185.929688 C 239.238281 186.597656 239.449219 187.289062 239.589844 188 C 239.730469 188.710938 239.804688 189.429688 239.804688 190.152344 Z M 239.804688 190.152344 " fill-opacity="1" fill-rule="nonzero"/><path fill="#ffffff" d="M 177.480469 212.070312 C 177.480469 212.792969 177.410156 213.511719 177.265625 214.222656 C 177.125 214.933594 176.917969 215.625 176.640625 216.292969 C 176.363281 216.960938 176.023438 217.597656 175.621094 218.199219 C 175.21875 218.800781 174.757812 219.359375 174.246094 219.871094 C 173.734375 220.382812 173.179688 220.839844 172.574219 221.246094 C 171.972656 221.648438 171.335938 221.988281 170.667969 222.265625 C 170 222.542969 169.308594 222.75 168.597656 222.890625 C 167.886719 223.03125 167.171875 223.105469 166.445312 223.105469 C 165.722656 223.105469 165.003906 223.03125 164.292969 222.890625 C 163.582031 222.75 162.894531 222.542969 162.222656 222.265625 C 161.554688 221.988281 160.917969 221.648438 160.316406 221.246094 C 159.714844 220.839844 159.15625 220.382812 158.644531 219.871094 C 158.132812 219.359375 157.675781 218.800781 157.273438 218.199219 C 156.871094 217.597656 156.53125 216.960938 156.253906 216.292969 C 155.976562 215.625 155.765625 214.933594 155.625 214.222656 C 155.484375 213.511719 155.414062 212.792969 155.414062 212.070312 C 155.414062 211.347656 155.484375 210.628906 155.625 209.917969 C 155.765625 209.207031 155.976562 208.515625 156.253906 207.847656 C 156.53125 207.179688 156.871094 206.542969 157.273438 205.941406 C 157.675781 205.339844 158.132812 204.78125 158.644531 204.269531 C 159.15625 203.757812 159.714844 203.296875 160.316406 202.894531 C 160.917969 202.492188 161.554688 202.152344 162.222656 201.875 C 162.894531 201.597656 163.582031 201.390625 164.292969 201.25 C 165.003906 201.109375 165.722656 201.035156 166.445312 201.035156 C 167.171875 201.035156 167.886719 201.109375 168.597656 201.25 C 169.308594 201.390625 170 201.597656 170.667969 201.875 C 171.335938 202.152344 171.972656 202.492188 172.574219 202.894531 C 173.179688 203.296875 173.734375 203.757812 174.246094 204.269531 C 174.757812 204.78125 175.21875 205.339844 175.621094 205.941406 C 176.023438 206.542969 176.363281 207.179688 176.640625 207.847656 C 176.917969 208.515625 177.125 209.207031 177.265625 209.917969 C 177.410156 210.628906 177.480469 211.347656 177.480469 212.070312 Z M 177.480469 212.070312 " fill-opacity="1" fill-rule="nonzero"/><path fill="#ffffff" d="M 231.902344 265.597656 C 231.902344 266.320312 231.828125 267.039062 231.6875 267.75 C 231.546875 268.460938 231.339844 269.148438 231.0625 269.820312 C 230.785156 270.488281 230.445312 271.125 230.042969 271.726562 C 229.636719 272.328125 229.179688 272.886719 228.667969 273.398438 C 228.15625 273.910156 227.597656 274.367188 226.996094 274.769531 C 226.394531 275.171875 225.757812 275.511719 225.089844 275.789062 C 224.421875 276.066406 223.730469 276.277344 223.019531 276.417969 C 222.308594 276.558594 221.589844 276.628906 220.867188 276.628906 C 220.144531 276.628906 219.425781 276.558594 218.714844 276.417969 C 218.003906 276.277344 217.3125 276.066406 216.644531 275.789062 C 215.976562 275.511719 215.339844 275.171875 214.738281 274.769531 C 214.136719 274.367188 213.578125 273.910156 213.066406 273.398438 C 212.554688 272.886719 212.09375 272.328125 211.691406 271.726562 C 211.289062 271.125 210.949219 270.488281 210.671875 269.820312 C 210.394531 269.148438 210.1875 268.460938 210.046875 267.75 C 209.90625 267.039062 209.832031 266.320312 209.832031 265.597656 C 209.832031 264.871094 209.90625 264.15625 210.046875 263.445312 C 210.1875 262.734375 210.394531 262.042969 210.671875 261.375 C 210.949219 260.707031 211.289062 260.070312 211.691406 259.46875 C 212.09375 258.863281 212.554688 258.308594 213.066406 257.796875 C 213.578125 257.28125 214.136719 256.824219 214.738281 256.421875 C 215.339844 256.019531 215.976562 255.679688 216.644531 255.402344 C 217.3125 255.125 218.003906 254.917969 218.714844 254.777344 C 219.425781 254.632812 220.144531 254.5625 220.867188 254.5625 C 221.589844 254.5625 222.308594 254.632812 223.019531 254.777344 C 223.730469 254.917969 224.421875 255.125 225.089844 255.402344 C 225.757812 255.679688 226.394531 256.019531 226.996094 256.421875 C 227.597656 256.824219 228.15625 257.28125 228.667969 257.796875 C 229.179688 258.308594 229.636719 258.863281 230.042969 259.46875 C 230.445312 260.070312 230.785156 260.707031 231.0625 261.375 C 231.339844 262.042969 231.546875 262.734375 231.6875 263.445312 C 231.828125 264.15625 231.902344 264.871094 231.902344 265.597656 Z M 231.902344 265.597656 " fill-opacity="1" fill-rule="nonzero"/><path fill="#ffffff" d="M 306.449219 210.429688 C 306.449219 211.15625 306.378906 211.871094 306.238281 212.582031 C 306.097656 213.292969 305.886719 213.984375 305.609375 214.652344 C 305.332031 215.320312 304.992188 215.957031 304.589844 216.558594 C 304.1875 217.164062 303.730469 217.71875 303.21875 218.230469 C 302.707031 218.746094 302.148438 219.203125 301.546875 219.605469 C 300.945312 220.007812 300.308594 220.347656 299.640625 220.625 C 298.96875 220.902344 298.28125 221.109375 297.570312 221.25 C 296.859375 221.394531 296.140625 221.464844 295.417969 221.464844 C 294.691406 221.464844 293.976562 221.394531 293.265625 221.25 C 292.554688 221.109375 291.863281 220.902344 291.195312 220.625 C 290.527344 220.347656 289.890625 220.007812 289.289062 219.605469 C 288.683594 219.203125 288.128906 218.746094 287.617188 218.230469 C 287.101562 217.71875 286.644531 217.164062 286.242188 216.558594 C 285.839844 215.957031 285.5 215.320312 285.222656 214.652344 C 284.945312 213.984375 284.738281 213.292969 284.597656 212.582031 C 284.453125 211.871094 284.382812 211.15625 284.382812 210.429688 C 284.382812 209.707031 284.453125 208.988281 284.597656 208.277344 C 284.738281 207.566406 284.945312 206.878906 285.222656 206.207031 C 285.5 205.539062 285.839844 204.902344 286.242188 204.300781 C 286.644531 203.699219 287.101562 203.140625 287.617188 202.628906 C 288.128906 202.117188 288.683594 201.660156 289.289062 201.257812 C 289.890625 200.855469 290.527344 200.515625 291.195312 200.238281 C 291.863281 199.960938 292.554688 199.75 293.265625 199.609375 C 293.976562 199.46875 294.691406 199.398438 295.417969 199.398438 C 296.140625 199.398438 296.859375 199.46875 297.570312 199.609375 C 298.28125 199.75 298.96875 199.960938 299.640625 200.238281 C 300.308594 200.515625 300.945312 200.855469 301.546875 201.257812 C 302.148438 201.660156 302.707031 202.117188 303.21875 202.628906 C 303.730469 203.140625 304.1875 203.699219 304.589844 204.300781 C 304.992188 204.902344 305.332031 205.539062 305.609375 206.207031 C 305.886719 206.878906 306.097656 207.566406 306.238281 208.277344 C 306.378906 208.988281 306.449219 209.707031 306.449219 210.429688 Z M 306.449219 210.429688 " fill-opacity="1" fill-rule="nonzero"/><path fill="#ffffff" d="M 562.304688 521.15625 C 562.304688 521.878906 562.234375 522.597656 562.09375 523.308594 C 561.953125 524.015625 561.742188 524.707031 561.464844 525.375 C 561.1875 526.046875 560.847656 526.683594 560.445312 527.285156 C 560.042969 527.886719 559.585938 528.445312 559.074219 528.957031 C 558.5625 529.46875 558.003906 529.925781 557.402344 530.328125 C 556.800781 530.730469 556.164062 531.070312 555.496094 531.347656 C 554.824219 531.625 554.136719 531.835938 553.425781 531.976562 C 552.714844 532.117188 551.996094 532.1875 551.273438 532.1875 C 550.546875 532.1875 549.832031 532.117188 549.121094 531.976562 C 548.410156 531.835938 547.71875 531.625 547.050781 531.347656 C 546.382812 531.070312 545.746094 530.730469 545.144531 530.328125 C 544.539062 529.925781 543.984375 529.46875 543.472656 528.957031 C 542.957031 528.445312 542.5 527.886719 542.097656 527.285156 C 541.695312 526.683594 541.355469 526.046875 541.078125 525.375 C 540.800781 524.707031 540.59375 524.015625 540.453125 523.308594 C 540.308594 522.597656 540.238281 521.878906 540.238281 521.15625 C 540.238281 520.429688 540.308594 519.710938 540.453125 519.003906 C 540.59375 518.292969 540.800781 517.601562 541.078125 516.933594 C 541.355469 516.261719 541.695312 515.628906 542.097656 515.023438 C 542.5 514.421875 542.957031 513.863281 543.472656 513.351562 C 543.984375 512.839844 544.539062 512.382812 545.144531 511.980469 C 545.746094 511.578125 546.382812 511.238281 547.050781 510.960938 C 547.71875 510.683594 548.410156 510.472656 549.121094 510.332031 C 549.832031 510.191406 550.546875 510.121094 551.273438 510.121094 C 551.996094 510.121094 552.714844 510.191406 553.425781 510.332031 C 554.136719 510.472656 554.824219 510.683594 555.496094 510.960938 C 556.164062 511.238281 556.800781 511.578125 557.402344 511.980469 C 558.003906 512.382812 558.5625 512.839844 559.074219 513.351562 C 559.585938 513.863281 560.042969 514.421875 560.445312 515.023438 C 560.847656 515.628906 561.1875 516.261719 561.464844 516.933594 C 561.742188 517.601562 561.953125 518.292969 562.09375 519.003906 C 562.234375 519.710938 562.304688 520.429688 562.304688 521.15625 Z M 562.304688 521.15625 " fill-opacity="1" fill-rule="nonzero"/><path fill="#ffffff" d="M 491.035156 568.566406 C 491.035156 569.292969 490.964844 570.011719 490.824219 570.722656 C 490.683594 571.429688 490.472656 572.121094 490.195312 572.789062 C 489.917969 573.460938 489.578125 574.097656 489.175781 574.699219 C 488.773438 575.300781 488.316406 575.859375 487.804688 576.371094 C 487.292969 576.882812 486.734375 577.339844 486.132812 577.742188 C 485.53125 578.144531 484.894531 578.484375 484.226562 578.761719 C 483.554688 579.039062 482.867188 579.25 482.15625 579.390625 C 481.445312 579.53125 480.726562 579.601562 480.003906 579.601562 C 479.277344 579.601562 478.5625 579.53125 477.851562 579.390625 C 477.140625 579.25 476.449219 579.039062 475.78125 578.761719 C 475.109375 578.484375 474.476562 578.144531 473.871094 577.742188 C 473.269531 577.339844 472.714844 576.882812 472.199219 576.371094 C 471.6875 575.859375 471.230469 575.300781 470.828125 574.699219 C 470.425781 574.097656 470.085938 573.460938 469.808594 572.789062 C 469.53125 572.121094 469.324219 571.429688 469.179688 570.722656 C 469.039062 570.011719 468.96875 569.292969 468.96875 568.566406 C 468.96875 567.84375 469.039062 567.125 469.179688 566.414062 C 469.324219 565.707031 469.53125 565.015625 469.808594 564.347656 C 470.085938 563.675781 470.425781 563.039062 470.828125 562.4375 C 471.230469 561.835938 471.6875 561.277344 472.199219 560.765625 C 472.714844 560.253906 473.269531 559.796875 473.875 559.394531 C 474.476562 558.992188 475.109375 558.652344 475.78125 558.375 C 476.449219 558.097656 477.140625 557.886719 477.851562 557.746094 C 478.5625 557.605469 479.277344 557.535156 480.003906 557.535156 C 480.726562 557.535156 481.445312 557.605469 482.15625 557.746094 C 482.867188 557.886719 483.554688 558.097656 484.226562 558.375 C 484.894531 558.652344 485.53125 558.992188 486.132812 559.394531 C 486.734375 559.796875 487.292969 560.253906 487.804688 560.765625 C 488.316406 561.277344 488.773438 561.835938 489.175781 562.4375 C 489.578125 563.039062 489.917969 563.675781 490.195312 564.347656 C 490.472656 565.015625 490.683594 565.707031 490.824219 566.414062 C 490.964844 567.125 491.035156 567.84375 491.035156 568.566406 Z M 491.035156 568.566406 " fill-opacity="1" fill-rule="nonzero"/><path fill="#ffffff" d="M 552.167969 593.765625 C 552.167969 594.492188 552.097656 595.207031 551.957031 595.917969 C 551.8125 596.628906 551.605469 597.320312 551.328125 597.988281 C 551.050781 598.65625 550.710938 599.292969 550.308594 599.894531 C 549.90625 600.5 549.449219 601.054688 548.9375 601.566406 C 548.421875 602.082031 547.867188 602.539062 547.265625 602.941406 C 546.660156 603.34375 546.027344 603.683594 545.355469 603.960938 C 544.6875 604.238281 543.996094 604.445312 543.285156 604.585938 C 542.574219 604.730469 541.859375 604.800781 541.132812 604.800781 C 540.410156 604.800781 539.691406 604.730469 538.980469 604.585938 C 538.269531 604.445312 537.582031 604.238281 536.910156 603.960938 C 536.242188 603.683594 535.605469 603.34375 535.003906 602.941406 C 534.402344 602.539062 533.84375 602.082031 533.332031 601.566406 C 532.820312 601.054688 532.363281 600.5 531.960938 599.894531 C 531.558594 599.292969 531.21875 598.65625 530.941406 597.988281 C 530.664062 597.320312 530.453125 596.628906 530.3125 595.917969 C 530.171875 595.207031 530.101562 594.492188 530.101562 593.765625 C 530.101562 593.042969 530.171875 592.324219 530.3125 591.613281 C 530.453125 590.902344 530.664062 590.214844 530.941406 589.542969 C 531.21875 588.875 531.558594 588.238281 531.960938 587.636719 C 532.363281 587.035156 532.820312 586.476562 533.332031 585.964844 C 533.84375 585.453125 534.402344 584.996094 535.003906 584.59375 C 535.605469 584.191406 536.242188 583.851562 536.910156 583.574219 C 537.582031 583.296875 538.269531 583.085938 538.980469 582.945312 C 539.691406 582.804688 540.410156 582.734375 541.132812 582.734375 C 541.859375 582.734375 542.574219 582.804688 543.285156 582.945312 C 543.996094 583.085938 544.6875 583.296875 545.355469 583.574219 C 546.027344 583.851562 546.660156 584.191406 547.265625 584.59375 C 547.867188 584.996094 548.421875 585.453125 548.9375 585.964844 C 549.449219 586.476562 549.90625 587.035156 550.308594 587.636719 C 550.710938 588.238281 551.050781 588.875 551.328125 589.542969 C 551.605469 590.214844 551.8125 590.902344 551.957031 591.613281 C 552.097656 592.324219 552.167969 593.042969 552.167969 593.765625 Z M 552.167969 593.765625 " fill-opacity="1" fill-rule="nonzero"/><path fill="#ffffff" d="M 625.078125 559.621094 C 625.078125 560.347656 625.007812 561.0625 624.863281 561.773438 C 624.722656 562.484375 624.515625 563.175781 624.238281 563.84375 C 623.960938 564.515625 623.621094 565.148438 623.21875 565.753906 C 622.816406 566.355469 622.359375 566.910156 621.84375 567.425781 C 621.332031 567.9375 620.777344 568.394531 620.171875 568.796875 C 619.570312 569.199219 618.933594 569.539062 618.265625 569.816406 C 617.597656 570.09375 616.90625 570.300781 616.195312 570.445312 C 615.484375 570.585938 614.769531 570.65625 614.042969 570.65625 C 613.320312 570.65625 612.601562 570.585938 611.890625 570.445312 C 611.179688 570.300781 610.492188 570.09375 609.820312 569.816406 C 609.152344 569.539062 608.515625 569.199219 607.914062 568.796875 C 607.3125 568.394531 606.753906 567.9375 606.242188 567.425781 C 605.730469 566.910156 605.273438 566.355469 604.871094 565.753906 C 604.46875 565.148438 604.128906 564.515625 603.851562 563.84375 C 603.574219 563.175781 603.363281 562.484375 603.222656 561.773438 C 603.082031 561.0625 603.011719 560.347656 603.011719 559.621094 C 603.011719 558.898438 603.082031 558.179688 603.222656 557.46875 C 603.363281 556.757812 603.574219 556.070312 603.851562 555.398438 C 604.128906 554.730469 604.46875 554.09375 604.871094 553.492188 C 605.273438 552.890625 605.730469 552.332031 606.242188 551.820312 C 606.753906 551.308594 607.3125 550.851562 607.914062 550.449219 C 608.515625 550.046875 609.152344 549.707031 609.820312 549.429688 C 610.492188 549.152344 611.179688 548.941406 611.890625 548.800781 C 612.601562 548.660156 613.320312 548.589844 614.042969 548.589844 C 614.769531 548.589844 615.484375 548.660156 616.195312 548.800781 C 616.90625 548.941406 617.597656 549.152344 618.265625 549.429688 C 618.933594 549.707031 619.570312 550.046875 620.171875 550.449219 C 620.777344 550.851562 621.332031 551.308594 621.84375 551.820312 C 622.359375 552.332031 622.816406 552.890625 623.21875 553.492188 C 623.621094 554.09375 623.960938 554.730469 624.238281 555.398438 C 624.515625 556.070312 624.722656 556.757812 624.863281 557.46875 C 625.007812 558.179688 625.078125 558.898438 625.078125 559.621094 Z M 625.078125 559.621094 " fill-opacity="1" fill-rule="nonzero"/><path fill="#ffffff" d="M 607.183594 628.953125 C 607.183594 629.679688 607.113281 630.394531 606.972656 631.105469 C 606.832031 631.816406 606.621094 632.507812 606.34375 633.175781 C 606.066406 633.84375 605.726562 634.480469 605.324219 635.082031 C 604.921875 635.6875 604.464844 636.242188 603.953125 636.753906 C 603.441406 637.269531 602.882812 637.726562 602.28125 638.128906 C 601.679688 638.53125 601.042969 638.871094 600.375 639.148438 C 599.703125 639.425781 599.015625 639.632812 598.304688 639.773438 C 597.59375 639.917969 596.875 639.988281 596.152344 639.988281 C 595.425781 639.988281 594.710938 639.917969 594 639.773438 C 593.289062 639.632812 592.597656 639.425781 591.929688 639.148438 C 591.261719 638.871094 590.625 638.53125 590.023438 638.128906 C 589.417969 637.726562 588.863281 637.269531 588.351562 636.753906 C 587.835938 636.242188 587.378906 635.6875 586.976562 635.082031 C 586.574219 634.480469 586.234375 633.84375 585.957031 633.175781 C 585.679688 632.507812 585.472656 631.816406 585.332031 631.105469 C 585.1875 630.394531 585.117188 629.679688 585.117188 628.953125 C 585.117188 628.230469 585.1875 627.511719 585.332031 626.800781 C 585.472656 626.089844 585.679688 625.402344 585.957031 624.730469 C 586.234375 624.0625 586.574219 623.425781 586.976562 622.824219 C 587.378906 622.222656 587.835938 621.664062 588.351562 621.152344 C 588.863281 620.640625 589.417969 620.183594 590.023438 619.78125 C 590.625 619.378906 591.261719 619.039062 591.929688 618.761719 C 592.597656 618.484375 593.289062 618.273438 594 618.132812 C 594.710938 617.992188 595.425781 617.921875 596.152344 617.921875 C 596.875 617.921875 597.59375 617.992188 598.304688 618.132812 C 599.015625 618.273438 599.703125 618.484375 600.375 618.761719 C 601.042969 619.039062 601.679688 619.378906 602.28125 619.78125 C 602.882812 620.183594 603.441406 620.640625 603.953125 621.152344 C 604.464844 621.664062 604.921875 622.222656 605.324219 622.824219 C 605.726562 623.425781 606.066406 624.0625 606.34375 624.730469 C 606.621094 625.402344 606.832031 626.089844 606.972656 626.800781 C 607.113281 627.511719 607.183594 628.230469 607.183594 628.953125 Z M 607.183594 628.953125 " fill-opacity="1" fill-rule="nonzero"/><path fill="#ffffff" d="M 533.828125 668.464844 C 533.828125 669.191406 533.757812 669.90625 533.617188 670.617188 C 533.472656 671.328125 533.265625 672.019531 532.988281 672.6875 C 532.710938 673.355469 532.371094 673.992188 531.96875 674.59375 C 531.566406 675.199219 531.109375 675.753906 530.597656 676.265625 C 530.085938 676.78125 529.527344 677.238281 528.925781 677.640625 C 528.320312 678.042969 527.6875 678.382812 527.015625 678.660156 C 526.347656 678.9375 525.65625 679.144531 524.945312 679.285156 C 524.238281 679.429688 523.519531 679.5 522.792969 679.5 C 522.070312 679.5 521.351562 679.429688 520.640625 679.285156 C 519.929688 679.144531 519.242188 678.9375 518.574219 678.660156 C 517.902344 678.382812 517.265625 678.042969 516.664062 677.640625 C 516.0625 677.238281 515.503906 676.78125 514.992188 676.265625 C 514.480469 675.753906 514.023438 675.199219 513.621094 674.59375 C 513.21875 673.992188 512.878906 673.355469 512.601562 672.6875 C 512.324219 672.019531 512.113281 671.328125 511.972656 670.617188 C 511.832031 669.90625 511.761719 669.191406 511.761719 668.464844 C 511.761719 667.742188 511.832031 667.023438 511.972656 666.3125 C 512.113281 665.601562 512.324219 664.914062 512.601562 664.242188 C 512.878906 663.574219 513.21875 662.9375 513.621094 662.335938 C 514.023438 661.734375 514.480469 661.175781 514.992188 660.664062 C 515.503906 660.152344 516.0625 659.695312 516.664062 659.292969 C 517.265625 658.890625 517.902344 658.550781 518.574219 658.273438 C 519.242188 657.996094 519.929688 657.785156 520.640625 657.644531 C 521.351562 657.503906 522.070312 657.433594 522.792969 657.433594 C 523.519531 657.433594 524.238281 657.503906 524.945312 657.644531 C 525.65625 657.785156 526.347656 657.996094 527.015625 658.273438 C 527.6875 658.550781 528.320312 658.890625 528.925781 659.292969 C 529.527344 659.695312 530.085938 660.152344 530.597656 660.664062 C 531.109375 661.175781 531.566406 661.734375 531.96875 662.335938 C 532.371094 662.9375 532.710938 663.574219 532.988281 664.242188 C 533.265625 664.914062 533.472656 665.601562 533.617188 666.3125 C 533.757812 667.023438 533.828125 667.742188 533.828125 668.464844 Z M 533.828125 668.464844 " fill-opacity="1" fill-rule="nonzero"/></svg>