<svg xmlns="http://www.w3.org/2000/svg" xmlns:xlink="http://www.w3.org/1999/xlink" width="1080" zoomAndPan="magnify" viewBox="0 0 810 809.999993" height="1080" preserveAspectRatio="xMidYMid meet" version="1.0"><defs><clipPath id="c0580d0c08"><path d="M 289 195.859375 L 758.503906 195.859375 L 758.503906 597.859375 L 289 597.859375 Z M 289 195.859375 " clip-rule="nonzero"/></clipPath><clipPath id="63ee1c7c35"><path d="M 289 242 L 758.503906 242 L 758.503906 431 L 289 431 Z M 289 242 " clip-rule="nonzero"/></clipPath><clipPath id="2be1adb596"><path d="M 21.253906 262 L 256 262 L 256 330 L 21.253906 330 Z M 21.253906 262 " clip-rule="nonzero"/></clipPath></defs><g clip-path="url(#c0580d0c08)"><path fill="#4294ff" d="M 322.914062 195.859375 L 724.714844 195.859375 C 725.8125 195.859375 726.90625 195.914062 727.996094 196.019531 C 729.089844 196.128906 730.171875 196.289062 731.246094 196.503906 C 732.324219 196.714844 733.386719 196.984375 734.433594 197.300781 C 735.484375 197.621094 736.515625 197.988281 737.527344 198.410156 C 738.542969 198.828125 739.53125 199.296875 740.5 199.816406 C 741.464844 200.332031 742.40625 200.894531 743.316406 201.503906 C 744.230469 202.113281 745.109375 202.765625 745.957031 203.464844 C 746.804688 204.160156 747.617188 204.894531 748.390625 205.671875 C 749.167969 206.445312 749.902344 207.257812 750.597656 208.105469 C 751.292969 208.953125 751.945312 209.835938 752.554688 210.746094 C 753.164062 211.660156 753.726562 212.601562 754.246094 213.566406 C 754.761719 214.535156 755.230469 215.527344 755.648438 216.539062 C 756.070312 217.554688 756.4375 218.585938 756.757812 219.632812 C 757.074219 220.683594 757.339844 221.746094 757.554688 222.824219 C 757.769531 223.898438 757.929688 224.984375 758.039062 226.074219 C 758.144531 227.167969 758.199219 228.261719 758.199219 229.359375 L 758.199219 564.359375 C 758.199219 565.457031 758.144531 566.550781 758.039062 567.644531 C 757.929688 568.734375 757.769531 569.820312 757.554688 570.894531 C 757.339844 571.96875 757.074219 573.035156 756.757812 574.082031 C 756.4375 575.132812 756.070312 576.164062 755.648438 577.179688 C 755.230469 578.191406 754.761719 579.183594 754.246094 580.152344 C 753.726562 581.117188 753.164062 582.058594 752.554688 582.96875 C 751.945312 583.882812 751.292969 584.761719 750.597656 585.609375 C 749.902344 586.460938 749.167969 587.269531 748.390625 588.046875 C 747.617188 588.824219 746.804688 589.558594 745.957031 590.253906 C 745.109375 590.949219 744.230469 591.605469 743.316406 592.214844 C 742.40625 592.824219 741.464844 593.386719 740.5 593.902344 C 739.53125 594.421875 738.542969 594.890625 737.527344 595.308594 C 736.515625 595.730469 735.484375 596.097656 734.433594 596.417969 C 733.386719 596.734375 732.324219 597 731.246094 597.214844 C 730.171875 597.429688 729.089844 597.589844 727.996094 597.699219 C 726.90625 597.804688 725.8125 597.859375 724.714844 597.859375 L 322.914062 597.859375 C 321.816406 597.859375 320.722656 597.804688 319.632812 597.699219 C 318.539062 597.589844 317.457031 597.429688 316.378906 597.214844 C 315.304688 597 314.242188 596.734375 313.191406 596.417969 C 312.144531 596.097656 311.113281 595.730469 310.097656 595.308594 C 309.085938 594.890625 308.097656 594.421875 307.128906 593.902344 C 306.160156 593.386719 305.222656 592.824219 304.308594 592.214844 C 303.398438 591.605469 302.519531 590.949219 301.671875 590.253906 C 300.824219 589.558594 300.011719 588.824219 299.238281 588.046875 C 298.460938 587.269531 297.726562 586.460938 297.03125 585.609375 C 296.335938 584.761719 295.683594 583.882812 295.074219 582.96875 C 294.464844 582.058594 293.898438 581.117188 293.382812 580.152344 C 292.867188 579.183594 292.398438 578.191406 291.976562 577.179688 C 291.558594 576.164062 291.191406 575.132812 290.871094 574.082031 C 290.554688 573.035156 290.285156 571.96875 290.074219 570.894531 C 289.859375 569.820312 289.699219 568.734375 289.589844 567.644531 C 289.484375 566.550781 289.429688 565.457031 289.429688 564.359375 L 289.429688 229.359375 C 289.429688 228.261719 289.484375 227.167969 289.589844 226.074219 C 289.699219 224.984375 289.859375 223.898438 290.074219 222.824219 C 290.285156 221.746094 290.554688 220.683594 290.871094 219.632812 C 291.191406 218.585938 291.558594 217.554688 291.976562 216.539062 C 292.398438 215.527344 292.867188 214.535156 293.382812 213.566406 C 293.898438 212.597656 294.464844 211.660156 295.074219 210.746094 C 295.683594 209.835938 296.335938 208.953125 297.03125 208.105469 C 297.726562 207.257812 298.460938 206.445312 299.238281 205.671875 C 300.011719 204.894531 300.824219 204.160156 301.671875 203.464844 C 302.519531 202.765625 303.398438 202.113281 304.308594 201.503906 C 305.222656 200.894531 306.160156 200.332031 307.128906 199.816406 C 308.097656 199.296875 309.085938 198.828125 310.097656 198.410156 C 311.113281 197.988281 312.144531 197.621094 313.191406 197.300781 C 314.242188 196.984375 315.304688 196.714844 316.378906 196.503906 C 317.457031 196.289062 318.539062 196.128906 319.632812 196.019531 C 320.722656 195.914062 321.816406 195.859375 322.914062 195.859375 Z M 322.914062 195.859375 " fill-opacity="1" fill-rule="nonzero"/></g><g clip-path="url(#63ee1c7c35)"><path fill="#376cfb" d="M 758.199219 242.089844 L 758.199219 317.128906 L 538.882812 426.675781 C 536.554688 427.886719 534.117188 428.800781 531.570312 429.425781 C 529.023438 430.050781 526.4375 430.359375 523.8125 430.359375 C 521.191406 430.359375 518.605469 430.050781 516.058594 429.425781 C 513.511719 428.800781 511.074219 427.886719 508.746094 426.675781 L 289.429688 317.128906 L 289.429688 242.089844 L 523.8125 359.339844 Z M 758.199219 242.089844 " fill-opacity="1" fill-rule="nonzero"/></g><path fill="#376cfb" d="M 222.460938 430.359375 L 122.011719 430.359375 C 120.914062 430.359375 119.820312 430.304688 118.730469 430.199219 C 117.640625 430.089844 116.554688 429.929688 115.480469 429.714844 C 114.402344 429.5 113.339844 429.234375 112.292969 428.917969 C 111.242188 428.597656 110.210938 428.230469 109.199219 427.808594 C 108.183594 427.390625 107.195312 426.921875 106.226562 426.402344 C 105.261719 425.886719 104.320312 425.324219 103.410156 424.714844 C 102.496094 424.105469 101.617188 423.449219 100.769531 422.753906 C 99.921875 422.058594 99.109375 421.324219 98.335938 420.546875 C 97.558594 419.769531 96.824219 418.960938 96.128906 418.109375 C 95.433594 417.261719 94.78125 416.382812 94.171875 415.46875 C 93.5625 414.558594 93 413.617188 92.480469 412.652344 C 91.964844 411.683594 91.496094 410.691406 91.078125 409.679688 C 90.65625 408.664062 90.289062 407.632812 89.96875 406.582031 C 89.652344 405.535156 89.386719 404.46875 89.171875 403.394531 C 88.957031 402.320312 88.796875 401.234375 88.691406 400.144531 C 88.582031 399.050781 88.527344 397.957031 88.527344 396.859375 C 88.527344 395.761719 88.582031 394.667969 88.691406 393.574219 C 88.796875 392.484375 88.957031 391.398438 89.171875 390.324219 C 89.386719 389.246094 89.652344 388.183594 89.96875 387.132812 C 90.289062 386.085938 90.65625 385.054688 91.078125 384.039062 C 91.496094 383.027344 91.964844 382.035156 92.480469 381.066406 C 93 380.097656 93.5625 379.160156 94.171875 378.246094 C 94.78125 377.335938 95.433594 376.453125 96.128906 375.605469 C 96.824219 374.757812 97.558594 373.945312 98.335938 373.171875 C 99.109375 372.394531 99.921875 371.660156 100.769531 370.964844 C 101.617188 370.265625 102.496094 369.613281 103.410156 369.003906 C 104.320312 368.394531 105.261719 367.832031 106.226562 367.316406 C 107.195312 366.796875 108.183594 366.328125 109.199219 365.910156 C 110.210938 365.488281 111.242188 365.121094 112.292969 364.800781 C 113.339844 364.484375 114.402344 364.214844 115.480469 364.003906 C 116.554688 363.789062 117.640625 363.628906 118.730469 363.519531 C 119.820312 363.414062 120.914062 363.359375 122.011719 363.359375 L 222.460938 363.359375 C 223.558594 363.359375 224.652344 363.414062 225.746094 363.519531 C 226.835938 363.628906 227.917969 363.789062 228.996094 364.003906 C 230.070312 364.214844 231.132812 364.484375 232.183594 364.800781 C 233.230469 365.121094 234.261719 365.488281 235.277344 365.910156 C 236.289062 366.328125 237.28125 366.796875 238.246094 367.316406 C 239.214844 367.832031 240.152344 368.394531 241.066406 369.003906 C 241.976562 369.613281 242.855469 370.265625 243.703125 370.964844 C 244.550781 371.660156 245.363281 372.394531 246.140625 373.171875 C 246.914062 373.945312 247.648438 374.757812 248.34375 375.605469 C 249.042969 376.453125 249.695312 377.335938 250.304688 378.246094 C 250.914062 379.160156 251.476562 380.097656 251.992188 381.066406 C 252.507812 382.035156 252.976562 383.027344 253.398438 384.039062 C 253.816406 385.054688 254.1875 386.085938 254.503906 387.132812 C 254.824219 388.183594 255.089844 389.246094 255.300781 390.324219 C 255.515625 391.398438 255.675781 392.484375 255.785156 393.574219 C 255.890625 394.667969 255.945312 395.761719 255.945312 396.859375 C 255.945312 397.957031 255.890625 399.050781 255.785156 400.144531 C 255.675781 401.234375 255.515625 402.320312 255.300781 403.394531 C 255.089844 404.46875 254.824219 405.535156 254.503906 406.582031 C 254.1875 407.632812 253.816406 408.664062 253.398438 409.679688 C 252.976562 410.691406 252.507812 411.683594 251.992188 412.652344 C 251.476562 413.617188 250.914062 414.558594 250.304688 415.46875 C 249.695312 416.382812 249.042969 417.261719 248.34375 418.109375 C 247.648438 418.960938 246.914062 419.769531 246.140625 420.546875 C 245.363281 421.324219 244.550781 422.058594 243.703125 422.753906 C 242.855469 423.449219 241.976562 424.105469 241.066406 424.714844 C 240.152344 425.324219 239.214844 425.886719 238.246094 426.402344 C 237.28125 426.921875 236.289062 427.390625 235.277344 427.808594 C 234.261719 428.230469 233.230469 428.597656 232.183594 428.917969 C 231.132812 429.234375 230.070312 429.5 228.996094 429.714844 C 227.917969 429.929688 226.835938 430.089844 225.746094 430.199219 C 224.652344 430.304688 223.558594 430.359375 222.460938 430.359375 Z M 222.460938 430.359375 " fill-opacity="1" fill-rule="nonzero"/><path fill="#376cfb" d="M 222.460938 530.859375 L 188.980469 530.859375 C 187.882812 530.859375 186.789062 530.804688 185.695312 530.699219 C 184.605469 530.589844 183.523438 530.429688 182.445312 530.214844 C 181.371094 530 180.308594 529.734375 179.257812 529.417969 C 178.210938 529.097656 177.179688 528.730469 176.164062 528.308594 C 175.152344 527.890625 174.160156 527.421875 173.195312 526.902344 C 172.226562 526.386719 171.289062 525.824219 170.375 525.214844 C 169.464844 524.605469 168.585938 523.949219 167.738281 523.253906 C 166.890625 522.558594 166.078125 521.824219 165.300781 521.046875 C 164.527344 520.269531 163.792969 519.460938 163.097656 518.609375 C 162.398438 517.761719 161.746094 516.882812 161.136719 515.96875 C 160.527344 515.058594 159.964844 514.117188 159.449219 513.152344 C 158.933594 512.183594 158.464844 511.191406 158.042969 510.179688 C 157.625 509.164062 157.253906 508.132812 156.9375 507.082031 C 156.617188 506.035156 156.351562 504.96875 156.140625 503.894531 C 155.925781 502.820312 155.765625 501.734375 155.65625 500.644531 C 155.550781 499.550781 155.496094 498.457031 155.496094 497.359375 C 155.496094 496.261719 155.550781 495.167969 155.65625 494.074219 C 155.765625 492.984375 155.925781 491.898438 156.140625 490.824219 C 156.351562 489.746094 156.617188 488.683594 156.9375 487.632812 C 157.253906 486.585938 157.625 485.554688 158.042969 484.539062 C 158.464844 483.527344 158.933594 482.535156 159.449219 481.566406 C 159.964844 480.597656 160.527344 479.660156 161.136719 478.746094 C 161.746094 477.835938 162.398438 476.953125 163.097656 476.105469 C 163.792969 475.257812 164.527344 474.445312 165.300781 473.671875 C 166.078125 472.894531 166.890625 472.160156 167.738281 471.464844 C 168.585938 470.765625 169.464844 470.113281 170.375 469.503906 C 171.289062 468.894531 172.226562 468.332031 173.195312 467.816406 C 174.164062 467.296875 175.152344 466.828125 176.164062 466.410156 C 177.179688 465.988281 178.210938 465.621094 179.257812 465.300781 C 180.308594 464.984375 181.371094 464.714844 182.445312 464.503906 C 183.523438 464.289062 184.605469 464.128906 185.695312 464.019531 C 186.789062 463.914062 187.882812 463.859375 188.980469 463.859375 L 222.460938 463.859375 C 223.558594 463.859375 224.652344 463.914062 225.746094 464.019531 C 226.835938 464.128906 227.917969 464.289062 228.996094 464.503906 C 230.070312 464.714844 231.132812 464.984375 232.183594 465.300781 C 233.230469 465.621094 234.261719 465.988281 235.277344 466.410156 C 236.289062 466.828125 237.28125 467.296875 238.246094 467.816406 C 239.214844 468.332031 240.152344 468.894531 241.066406 469.503906 C 241.976562 470.113281 242.855469 470.765625 243.703125 471.464844 C 244.550781 472.160156 245.363281 472.894531 246.140625 473.671875 C 246.914062 474.445312 247.648438 475.257812 248.34375 476.105469 C 249.042969 476.953125 249.695312 477.835938 250.304688 478.746094 C 250.914062 479.660156 251.476562 480.597656 251.992188 481.566406 C 252.507812 482.535156 252.976562 483.527344 253.398438 484.539062 C 253.816406 485.554688 254.1875 486.585938 254.503906 487.632812 C 254.824219 488.683594 255.089844 489.746094 255.300781 490.824219 C 255.515625 491.898438 255.675781 492.984375 255.785156 494.074219 C 255.890625 495.167969 255.945312 496.261719 255.945312 497.359375 C 255.945312 498.457031 255.890625 499.550781 255.785156 500.644531 C 255.675781 501.734375 255.515625 502.820312 255.300781 503.894531 C 255.089844 504.96875 254.824219 506.035156 254.503906 507.082031 C 254.1875 508.132812 253.816406 509.164062 253.398438 510.179688 C 252.976562 511.191406 252.507812 512.183594 251.992188 513.152344 C 251.476562 514.117188 250.914062 515.058594 250.304688 515.96875 C 249.695312 516.882812 249.042969 517.761719 248.34375 518.609375 C 247.648438 519.460938 246.914062 520.269531 246.140625 521.046875 C 245.363281 521.824219 244.550781 522.558594 243.703125 523.253906 C 242.855469 523.949219 241.976562 524.605469 241.066406 525.214844 C 240.152344 525.824219 239.214844 526.386719 238.246094 526.902344 C 237.28125 527.421875 236.289062 527.890625 235.277344 528.308594 C 234.261719 528.730469 233.230469 529.097656 232.183594 529.417969 C 231.132812 529.734375 230.070312 530 228.996094 530.214844 C 227.917969 530.429688 226.835938 530.589844 225.746094 530.699219 C 224.652344 530.804688 223.558594 530.859375 222.460938 530.859375 Z M 222.460938 530.859375 " fill-opacity="1" fill-rule="nonzero"/><g clip-path="url(#2be1adb596)"><path fill="#376cfb" d="M 222.460938 329.859375 L 55.046875 329.859375 C 53.949219 329.859375 52.855469 329.804688 51.761719 329.699219 C 50.671875 329.589844 49.589844 329.429688 48.511719 329.214844 C 47.4375 329 46.375 328.734375 45.324219 328.417969 C 44.277344 328.097656 43.246094 327.730469 42.230469 327.308594 C 41.21875 326.890625 40.226562 326.421875 39.261719 325.902344 C 38.292969 325.386719 37.355469 324.824219 36.441406 324.214844 C 35.53125 323.605469 34.652344 322.949219 33.804688 322.253906 C 32.957031 321.558594 32.144531 320.824219 31.367188 320.046875 C 30.59375 319.269531 29.859375 318.460938 29.160156 317.609375 C 28.464844 316.761719 27.8125 315.882812 27.203125 314.96875 C 26.59375 314.058594 26.03125 313.117188 25.515625 312.152344 C 25 311.183594 24.53125 310.191406 24.109375 309.179688 C 23.691406 308.164062 23.320312 307.132812 23.003906 306.082031 C 22.683594 305.035156 22.417969 303.96875 22.203125 302.894531 C 21.992188 301.820312 21.832031 300.734375 21.722656 299.644531 C 21.617188 298.550781 21.5625 297.457031 21.5625 296.359375 C 21.5625 295.261719 21.617188 294.167969 21.722656 293.074219 C 21.832031 291.984375 21.992188 290.898438 22.203125 289.824219 C 22.417969 288.746094 22.683594 287.683594 23.003906 286.632812 C 23.320312 285.585938 23.691406 284.554688 24.109375 283.539062 C 24.53125 282.527344 25 281.535156 25.515625 280.566406 C 26.03125 279.597656 26.59375 278.660156 27.203125 277.746094 C 27.8125 276.835938 28.464844 275.953125 29.160156 275.105469 C 29.859375 274.257812 30.59375 273.445312 31.367188 272.671875 C 32.144531 271.894531 32.957031 271.160156 33.804688 270.464844 C 34.652344 269.765625 35.53125 269.113281 36.441406 268.503906 C 37.355469 267.894531 38.292969 267.332031 39.261719 266.816406 C 40.226562 266.296875 41.21875 265.828125 42.230469 265.410156 C 43.246094 264.988281 44.277344 264.621094 45.324219 264.300781 C 46.375 263.984375 47.4375 263.714844 48.511719 263.503906 C 49.589844 263.289062 50.671875 263.128906 51.761719 263.019531 C 52.855469 262.914062 53.949219 262.859375 55.046875 262.859375 L 222.460938 262.859375 C 223.558594 262.859375 224.652344 262.914062 225.746094 263.019531 C 226.835938 263.128906 227.917969 263.289062 228.996094 263.503906 C 230.070312 263.714844 231.132812 263.984375 232.183594 264.300781 C 233.230469 264.621094 234.261719 264.988281 235.277344 265.410156 C 236.289062 265.828125 237.28125 266.296875 238.246094 266.816406 C 239.214844 267.332031 240.152344 267.894531 241.066406 268.503906 C 241.976562 269.113281 242.855469 269.765625 243.703125 270.464844 C 244.550781 271.160156 245.363281 271.894531 246.140625 272.671875 C 246.914062 273.445312 247.648438 274.257812 248.34375 275.105469 C 249.042969 275.953125 249.695312 276.835938 250.304688 277.746094 C 250.914062 278.660156 251.476562 279.597656 251.992188 280.566406 C 252.507812 281.535156 252.976562 282.527344 253.398438 283.539062 C 253.816406 284.554688 254.1875 285.585938 254.503906 286.632812 C 254.824219 287.683594 255.089844 288.746094 255.300781 289.824219 C 255.515625 290.898438 255.675781 291.984375 255.785156 293.074219 C 255.890625 294.167969 255.945312 295.261719 255.945312 296.359375 C 255.945312 297.457031 255.890625 298.550781 255.785156 299.644531 C 255.675781 300.734375 255.515625 301.820312 255.300781 302.894531 C 255.089844 303.96875 254.824219 305.035156 254.503906 306.082031 C 254.1875 307.132812 253.816406 308.164062 253.398438 309.179688 C 252.976562 310.191406 252.507812 311.183594 251.992188 312.152344 C 251.476562 313.117188 250.914062 314.058594 250.304688 314.96875 C 249.695312 315.882812 249.042969 316.761719 248.34375 317.609375 C 247.648438 318.460938 246.914062 319.269531 246.140625 320.046875 C 245.363281 320.824219 244.550781 321.558594 243.703125 322.253906 C 242.855469 322.949219 241.976562 323.605469 241.066406 324.214844 C 240.152344 324.824219 239.214844 325.386719 238.246094 325.902344 C 237.28125 326.421875 236.289062 326.890625 235.277344 327.308594 C 234.261719 327.730469 233.230469 328.097656 232.183594 328.417969 C 231.132812 328.734375 230.070312 329 228.996094 329.214844 C 227.917969 329.429688 226.835938 329.589844 225.746094 329.699219 C 224.652344 329.804688 223.558594 329.859375 222.460938 329.859375 Z M 222.460938 329.859375 " fill-opacity="1" fill-rule="nonzero"/></g></svg>