<svg xmlns="http://www.w3.org/2000/svg" xmlns:xlink="http://www.w3.org/1999/xlink" width="1080" zoomAndPan="magnify" viewBox="0 0 810 809.999993" height="1080" preserveAspectRatio="xMidYMid meet" version="1.0"><defs><clipPath id="afc8acab8b"><path d="M 284 462 L 387.59375 462 L 387.59375 567 L 284 567 Z M 284 462 " clip-rule="nonzero"/></clipPath><clipPath id="28b59a7816"><path d="M 420 243.808594 L 655 243.808594 L 655 538 L 420 538 Z M 420 243.808594 " clip-rule="nonzero"/></clipPath><clipPath id="717874deb2"><path d="M 638 463 L 743.40625 463 L 743.40625 567.058594 L 638 567.058594 Z M 638 463 " clip-rule="nonzero"/></clipPath></defs><path fill="#c4daf2" d="M 297.71875 479.644531 C 274.878906 468.851562 250.667969 459.613281 242.757812 453.835938 C 224.394531 440.425781 250.472656 427.019531 261.027344 410.964844 L 261.050781 410.964844 C 261.671875 410 262.273438 409.023438 262.851562 408.03125 C 266.515625 401.863281 269.421875 395.101562 271.296875 386.222656 C 277.433594 385.566406 286.289062 383.027344 288.972656 373.992188 C 293.59375 358.453125 294.59375 339.21875 273.117188 341.777344 C 273.03125 341.660156 273.050781 341.6875 272.964844 341.570312 C 289.054688 306.28125 277.378906 284.511719 277.378906 284.511719 C 288.027344 275.160156 290.265625 258.898438 290.632812 249.828125 C 290.738281 247.230469 287.992188 245.558594 285.714844 246.78125 C 275.28125 252.378906 254.179688 255.953125 235.070312 250.6875 C 207.5 243.085938 187.101562 265.507812 187.101562 265.507812 C 187.101562 265.507812 165.28125 254.402344 151.683594 278.429688 C 137.671875 303.191406 149.433594 338.394531 150.542969 341.574219 C 150.539062 341.648438 150.535156 341.722656 150.53125 341.796875 C 128.886719 339.121094 129.875 358.414062 134.511719 373.992188 C 137.21875 383.09375 146.1875 385.609375 152.328125 386.238281 C 154.460938 396.554688 157.964844 404.011719 162.433594 410.964844 L 162.617188 410.964844 C 173.171875 427.019531 199.246094 440.425781 180.886719 453.835938 C 169.386719 462.230469 123.484375 477.933594 97.359375 495.101562 C 79.523438 505.554688 70.734375 523.863281 67.460938 532.332031 C 66.617188 534.511719 68.230469 536.863281 70.558594 536.863281 L 288.964844 536.863281 L 297.71875 479.644531 " fill-opacity="1" fill-rule="nonzero"/><g clip-path="url(#afc8acab8b)"><path fill="#74ca48" d="M 387.59375 514.835938 C 387.59375 543.589844 364.425781 566.894531 335.847656 566.894531 C 307.269531 566.894531 284.105469 543.589844 284.105469 514.835938 C 284.105469 486.082031 307.269531 462.773438 335.847656 462.773438 C 364.425781 462.773438 387.59375 486.082031 387.59375 514.835938 " fill-opacity="1" fill-rule="nonzero"/></g><path fill="#ffffff" d="M 354.625 509.574219 L 340.902344 509.574219 L 340.902344 495.765625 C 340.902344 493 338.671875 490.757812 335.925781 490.757812 C 333.179688 490.757812 330.953125 493 330.953125 495.765625 L 330.953125 509.574219 L 317.226562 509.574219 C 314.480469 509.574219 312.25 511.8125 312.25 514.578125 C 312.25 517.34375 314.480469 519.582031 317.226562 519.582031 L 330.953125 519.582031 L 330.953125 533.390625 C 330.953125 536.15625 333.179688 538.398438 335.925781 538.398438 C 338.671875 538.398438 340.902344 536.15625 340.902344 533.390625 L 340.902344 519.582031 L 354.625 519.582031 C 357.371094 519.582031 359.597656 517.34375 359.597656 514.578125 C 359.597656 511.8125 357.371094 509.574219 354.625 509.574219 " fill-opacity="1" fill-rule="nonzero"/><g clip-path="url(#28b59a7816)"><path fill="#849fd9" d="M 654.335938 478.183594 C 631.457031 466 608.007812 455.527344 599.113281 449.097656 C 591.828125 443.832031 591.078125 438.566406 593.597656 433.160156 C 596.195312 427.578125 601.539062 423.75 607.632812 422.742188 C 624.183594 420.007812 636.664062 416.105469 644.496094 413.171875 C 649.472656 411.304688 651.753906 405.597656 649.488281 400.804688 C 639.242188 379.15625 638.335938 350.527344 633.800781 314.886719 C 627.648438 266.484375 603.511719 243.808594 566.003906 243.808594 C 528.5 243.808594 504.363281 266.484375 498.207031 314.886719 C 493.675781 350.527344 492.769531 379.152344 482.527344 400.804688 C 480.257812 405.59375 482.539062 411.304688 487.515625 413.171875 C 495.351562 416.105469 507.824219 420.007812 524.378906 422.742188 C 530.46875 423.75 535.816406 427.578125 538.414062 433.160156 C 540.929688 438.566406 540.183594 443.832031 532.898438 449.097656 C 520.597656 457.992188 480.429688 474.628906 452.46875 492.820312 C 433.183594 504.007812 423.78125 523.699219 420.363281 532.542969 C 419.523438 534.726562 421.140625 537.070312 423.492188 537.070312 L 643.824219 537.070312 L 654.335938 478.183594 " fill-opacity="1" fill-rule="nonzero"/></g><g clip-path="url(#717874deb2)"><path fill="#74ca48" d="M 743.320312 515.066406 C 743.320312 543.78125 719.949219 567.058594 691.121094 567.058594 C 662.292969 567.058594 638.921875 543.78125 638.921875 515.066406 C 638.921875 486.347656 662.292969 463.070312 691.121094 463.070312 C 719.949219 463.070312 743.320312 486.347656 743.320312 515.066406 " fill-opacity="1" fill-rule="nonzero"/></g><path fill="#ffffff" d="M 710.0625 509.808594 L 696.21875 509.808594 L 696.21875 496.019531 C 696.21875 493.257812 693.972656 491.019531 691.199219 491.019531 C 688.425781 491.019531 686.179688 493.257812 686.179688 496.019531 L 686.179688 509.808594 L 672.335938 509.808594 C 669.5625 509.808594 667.316406 512.046875 667.316406 514.808594 C 667.316406 517.570312 669.5625 519.808594 672.335938 519.808594 L 686.179688 519.808594 L 686.179688 533.597656 C 686.179688 536.359375 688.425781 538.597656 691.199219 538.597656 C 693.972656 538.597656 696.21875 536.359375 696.21875 533.597656 L 696.21875 519.808594 L 710.0625 519.808594 C 712.835938 519.808594 715.082031 517.570312 715.082031 514.808594 C 715.082031 512.046875 712.835938 509.808594 710.0625 509.808594 " fill-opacity="1" fill-rule="nonzero"/></svg>