<svg xmlns="http://www.w3.org/2000/svg" xmlns:xlink="http://www.w3.org/1999/xlink" width="1080" zoomAndPan="magnify" viewBox="0 0 810 809.999993" height="1080" preserveAspectRatio="xMidYMid meet" version="1.0"><path fill="#efefed" d="M 246.285156 81 L 246.285156 705 L 168.285156 705 C 151.382812 705 137.085938 690.699219 137.085938 673.800781 L 137.085938 112.199219 C 137.085938 95.300781 151.382812 81 168.285156 81 Z M 246.285156 81 " fill-opacity="1" fill-rule="nonzero"/><path fill="#83bd57" d="M 659.679688 112.199219 L 659.679688 673.800781 C 659.679688 690.699219 645.382812 705 628.480469 705 L 246.285156 705 L 246.285156 81 L 628.480469 81 C 645.382812 81 659.679688 95.300781 659.679688 112.199219 Z M 659.679688 112.199219 " fill-opacity="1" fill-rule="nonzero"/><path fill="#696967" d="M 168.285156 136.898438 L 215.082031 136.898438 L 215.082031 183.699219 L 168.285156 183.699219 Z M 168.285156 136.898438 " fill-opacity="1" fill-rule="nonzero"/><path fill="#696967" d="M 168.285156 252.601562 L 215.082031 252.601562 L 215.082031 299.398438 L 168.285156 299.398438 Z M 168.285156 252.601562 " fill-opacity="1" fill-rule="nonzero"/><path fill="#696967" d="M 168.285156 369.601562 L 215.082031 369.601562 L 215.082031 416.398438 L 168.285156 416.398438 Z M 168.285156 369.601562 " fill-opacity="1" fill-rule="nonzero"/><path fill="#696967" d="M 168.285156 485.300781 L 215.082031 485.300781 L 215.082031 532.101562 L 168.285156 532.101562 Z M 168.285156 485.300781 " fill-opacity="1" fill-rule="nonzero"/><path fill="#696967" d="M 168.285156 602.300781 L 215.082031 602.300781 L 215.082031 649.101562 L 168.285156 649.101562 Z M 168.285156 602.300781 " fill-opacity="1" fill-rule="nonzero"/><path fill="#696967" d="M 212.484375 133 L 170.882812 133 C 166.984375 133 164.382812 135.601562 164.382812 139.5 L 164.382812 181.101562 C 164.382812 185 166.984375 187.601562 170.882812 187.601562 L 212.484375 187.601562 C 216.382812 187.601562 218.984375 185 218.984375 181.101562 L 218.984375 139.5 C 218.984375 135.601562 216.382812 133 212.484375 133 Z M 212.484375 133 " fill-opacity="1" fill-rule="nonzero"/><path fill="#696967" d="M 212.484375 248.699219 L 170.882812 248.699219 C 166.984375 248.699219 164.382812 251.300781 164.382812 255.199219 L 164.382812 296.800781 C 164.382812 300.699219 166.984375 303.300781 170.882812 303.300781 L 212.484375 303.300781 C 216.382812 303.300781 218.984375 300.699219 218.984375 296.800781 L 218.984375 255.199219 C 218.984375 252.601562 216.382812 248.699219 212.484375 248.699219 Z M 212.484375 248.699219 " fill-opacity="1" fill-rule="nonzero"/><path fill="#696967" d="M 212.484375 365.699219 L 170.882812 365.699219 C 166.984375 365.699219 164.382812 368.300781 164.382812 372.199219 L 164.382812 413.800781 C 164.382812 417.699219 166.984375 420.300781 170.882812 420.300781 L 212.484375 420.300781 C 216.382812 420.300781 218.984375 417.699219 218.984375 413.800781 L 218.984375 372.199219 C 218.984375 368.300781 216.382812 365.699219 212.484375 365.699219 Z M 212.484375 365.699219 " fill-opacity="1" fill-rule="nonzero"/><path fill="#696967" d="M 212.484375 481.398438 L 170.882812 481.398438 C 166.984375 481.398438 164.382812 484 164.382812 487.898438 L 164.382812 529.5 C 164.382812 533.398438 166.984375 536 170.882812 536 L 212.484375 536 C 216.382812 536 218.984375 533.398438 218.984375 529.5 L 218.984375 487.898438 C 218.984375 485.300781 216.382812 481.398438 212.484375 481.398438 Z M 212.484375 481.398438 " fill-opacity="1" fill-rule="nonzero"/><path fill="#696967" d="M 212.484375 598.398438 L 170.882812 598.398438 C 166.984375 598.398438 164.382812 601 164.382812 604.898438 L 164.382812 646.5 C 164.382812 650.398438 166.984375 653 170.882812 653 L 212.484375 653 C 216.382812 653 218.984375 650.398438 218.984375 646.5 L 218.984375 604.898438 C 218.984375 601 216.382812 598.398438 212.484375 598.398438 Z M 212.484375 598.398438 " fill-opacity="1" fill-rule="nonzero"/><path fill="#c7c7c7" d="M 113.683594 146 L 191.683594 146 L 191.683594 174.601562 L 113.683594 174.601562 Z M 113.683594 146 " fill-opacity="1" fill-rule="nonzero"/><path fill="#c7c7c7" d="M 113.683594 263 L 191.683594 263 L 191.683594 291.601562 L 113.683594 291.601562 Z M 113.683594 263 " fill-opacity="1" fill-rule="nonzero"/><path fill="#c7c7c7" d="M 113.683594 378.699219 L 191.683594 378.699219 L 191.683594 407.300781 L 113.683594 407.300781 Z M 113.683594 378.699219 " fill-opacity="1" fill-rule="nonzero"/><path fill="#c7c7c7" d="M 113.683594 495.699219 L 191.683594 495.699219 L 191.683594 524.300781 L 113.683594 524.300781 Z M 113.683594 495.699219 " fill-opacity="1" fill-rule="nonzero"/><path fill="#c7c7c7" d="M 113.683594 611.398438 L 191.683594 611.398438 L 191.683594 640 L 113.683594 640 Z M 113.683594 611.398438 " fill-opacity="1" fill-rule="nonzero"/><path fill="#e9715f" d="M 692.179688 148.601562 L 659.679688 135.601562 L 659.679688 247.398438 L 688.28125 259.101562 C 692.179688 260.398438 696.082031 257.800781 696.082031 252.601562 L 696.082031 155.101562 C 696.082031 152.5 694.78125 149.898438 692.179688 148.601562 Z M 692.179688 148.601562 " fill-opacity="1" fill-rule="nonzero"/><path fill="#ffca67" d="M 692.179688 233.101562 L 659.679688 220.101562 L 659.679688 331.898438 L 688.28125 343.601562 C 692.179688 344.898438 696.082031 342.300781 696.082031 337.101562 L 696.082031 239.601562 C 696.082031 237 694.78125 234.398438 692.179688 233.101562 Z M 692.179688 233.101562 " fill-opacity="1" fill-rule="nonzero"/><path fill="#e9715f" d="M 692.179688 317.601562 L 659.679688 304.601562 L 659.679688 416.398438 L 688.28125 428.101562 C 692.179688 429.398438 696.082031 426.800781 696.082031 421.601562 L 696.082031 324.101562 C 696.082031 321.5 694.78125 318.898438 692.179688 317.601562 Z M 692.179688 317.601562 " fill-opacity="1" fill-rule="nonzero"/><path fill="#59b1e3" d="M 692.179688 402.101562 L 659.679688 389.101562 L 659.679688 500.898438 L 688.28125 512.601562 C 692.179688 513.898438 696.082031 511.300781 696.082031 506.101562 L 696.082031 408.601562 C 696.082031 406 694.78125 403.398438 692.179688 402.101562 Z M 692.179688 402.101562 " fill-opacity="1" fill-rule="nonzero"/><path fill="#d75548" d="M 592.082031 416.398438 L 592.082031 437.199219 C 592.082031 454.101562 579.082031 467.101562 562.183594 467.101562 L 345.082031 467.101562 C 328.183594 467.101562 315.183594 454.101562 315.183594 437.199219 L 315.183594 416.398438 C 315.183594 406 320.382812 396.898438 329.484375 390.398438 L 393.183594 351.398438 L 515.382812 351.398438 L 579.082031 390.398438 C 586.882812 396.898438 592.082031 406 592.082031 416.398438 Z M 592.082031 416.398438 " fill-opacity="1" fill-rule="nonzero"/><path fill="#f5b948" d="M 485.480469 311.101562 L 420.484375 311.101562 L 403.582031 363.101562 L 421.78125 363.101562 L 421.78125 380 L 452.984375 383.898438 L 490.683594 380 L 490.683594 364.398438 L 503.683594 364.398438 Z M 485.480469 311.101562 " fill-opacity="1" fill-rule="nonzero"/><path fill="#ffca67" d="M 512.78125 277.300781 C 498.480469 350.101562 454.28125 346.199219 454.28125 346.199219 C 454.28125 346.199219 410.082031 350.101562 395.78125 277.300781 C 395.78125 277.300781 356.78125 194.101562 454.28125 194.101562 C 551.78125 194.101562 512.78125 277.300781 512.78125 277.300781 Z M 512.78125 277.300781 " fill-opacity="1" fill-rule="nonzero"/><path fill="#444445" d="M 494.582031 165.5 C 494.582031 165.5 467.28125 153.800781 438.683594 156.398438 C 408.78125 159 386.683594 183.699219 384.082031 213.601562 C 382.78125 234.398438 382.78125 263 395.78125 282.5 L 397.082031 229.199219 C 397.082031 229.199219 460.78125 216.199219 477.683594 200.601562 C 477.683594 200.601562 519.28125 195.398438 514.082031 277.300781 C 512.78125 277.300781 547.882812 196.699219 494.582031 165.5 Z M 494.582031 165.5 " fill-opacity="1" fill-rule="nonzero"/><path fill="#ffffff" d="M 452.984375 383.898438 L 468.582031 400.800781 C 472.480469 404.699219 477.683594 403.398438 480.28125 399.5 L 514.082031 352.699219 L 494.582031 337.101562 Z M 452.984375 383.898438 " fill-opacity="1" fill-rule="nonzero"/><path fill="#ffffff" d="M 452.984375 383.898438 L 437.382812 400.800781 C 433.484375 404.699219 428.28125 403.398438 425.683594 399.5 L 391.882812 352.699219 L 411.382812 337.101562 Z M 452.984375 383.898438 " fill-opacity="1" fill-rule="nonzero"/><path fill="#efefed" d="M 572.582031 565.898438 L 333.382812 565.898438 C 325.582031 565.898438 320.382812 560.699219 320.382812 552.898438 C 320.382812 545.101562 325.582031 539.898438 333.382812 539.898438 L 572.582031 539.898438 C 580.382812 539.898438 585.582031 545.101562 585.582031 552.898438 C 585.582031 560.699219 580.382812 565.898438 572.582031 565.898438 Z M 572.582031 565.898438 " fill-opacity="1" fill-rule="nonzero"/><path fill="#efefed" d="M 546.582031 630.898438 L 359.382812 630.898438 C 351.582031 630.898438 346.382812 625.699219 346.382812 617.898438 C 346.382812 610.101562 351.582031 604.898438 359.382812 604.898438 L 546.582031 604.898438 C 554.382812 604.898438 559.582031 610.101562 559.582031 617.898438 C 559.582031 625.699219 554.382812 630.898438 546.582031 630.898438 Z M 546.582031 630.898438 " fill-opacity="1" fill-rule="nonzero"/></svg>