<svg xmlns="http://www.w3.org/2000/svg" xmlns:xlink="http://www.w3.org/1999/xlink" width="1080" zoomAndPan="magnify" viewBox="0 0 810 809.999993" height="1080" preserveAspectRatio="xMidYMid meet" version="1.0"><defs><clipPath id="b1fd598d5e"><path d="M 298 54.273438 L 540 54.273438 L 540 199 L 298 199 Z M 298 54.273438 " clip-rule="nonzero"/></clipPath><clipPath id="ed38b65027"><path d="M 54 617 L 191 617 L 191 729.273438 L 54 729.273438 Z M 54 617 " clip-rule="nonzero"/></clipPath><clipPath id="eac77f7d69"><path d="M 589 617 L 711.660156 617 L 711.660156 729.273438 L 589 729.273438 Z M 589 617 " clip-rule="nonzero"/></clipPath></defs><path fill="#5f311f" d="M 627.304688 651.683594 C 627.304688 658.808594 621.535156 664.574219 614.421875 664.574219 L 223.664062 664.574219 C 216.550781 664.574219 210.78125 658.808594 210.78125 651.683594 L 210.78125 150.625 C 210.78125 143.511719 216.550781 137.746094 223.664062 137.746094 L 614.421875 137.746094 C 621.535156 137.746094 627.304688 143.511719 627.304688 150.625 L 627.304688 651.683594 " fill-opacity="1" fill-rule="nonzero"/><path fill="#ebeae2" d="M 597.515625 175.492188 L 240.578125 175.492188 L 240.578125 646.871094 L 487.53125 646.871094 L 597.515625 529.554688 L 597.515625 175.492188 " fill-opacity="1" fill-rule="nonzero"/><path fill="#c3c1ba" d="M 487.53125 646.871094 L 597.515625 529.554688 L 487.53125 529.554688 Z M 487.53125 646.871094 " fill-opacity="1" fill-rule="nonzero"/><path fill="#c3c1ba" d="M 576.023438 198.472656 L 266.125 198.472656 L 266.125 200.601562 L 576.023438 200.601562 L 576.023438 198.472656 " fill-opacity="1" fill-rule="nonzero"/><path fill="#c3c1ba" d="M 576.023438 212.878906 L 266.125 212.878906 L 266.125 215.015625 L 576.023438 215.015625 L 576.023438 212.878906 " fill-opacity="1" fill-rule="nonzero"/><path fill="#c3c1ba" d="M 576.023438 227.296875 L 266.125 227.296875 L 266.125 229.429688 L 576.023438 229.429688 L 576.023438 227.296875 " fill-opacity="1" fill-rule="nonzero"/><path fill="#c3c1ba" d="M 576.023438 241.710938 L 266.125 241.710938 L 266.125 243.847656 L 576.023438 243.847656 L 576.023438 241.710938 " fill-opacity="1" fill-rule="nonzero"/><path fill="#c3c1ba" d="M 576.023438 256.125 L 266.125 256.125 L 266.125 258.253906 L 576.023438 258.253906 L 576.023438 256.125 " fill-opacity="1" fill-rule="nonzero"/><path fill="#c3c1ba" d="M 576.023438 270.539062 L 266.125 270.539062 L 266.125 272.667969 L 576.023438 272.667969 L 576.023438 270.539062 " fill-opacity="1" fill-rule="nonzero"/><path fill="#c3c1ba" d="M 576.023438 284.957031 L 266.125 284.957031 L 266.125 287.085938 L 576.023438 287.085938 L 576.023438 284.957031 " fill-opacity="1" fill-rule="nonzero"/><path fill="#c3c1ba" d="M 576.023438 299.371094 L 266.125 299.371094 L 266.125 301.5 L 576.023438 301.5 L 576.023438 299.371094 " fill-opacity="1" fill-rule="nonzero"/><path fill="#c3c1ba" d="M 576.023438 313.785156 L 266.125 313.785156 L 266.125 315.914062 L 576.023438 315.914062 L 576.023438 313.785156 " fill-opacity="1" fill-rule="nonzero"/><path fill="#c3c1ba" d="M 576.023438 328.195312 L 266.125 328.195312 L 266.125 330.332031 L 576.023438 330.332031 L 576.023438 328.195312 " fill-opacity="1" fill-rule="nonzero"/><path fill="#c3c1ba" d="M 576.023438 342.617188 L 266.125 342.617188 L 266.125 344.746094 L 576.023438 344.746094 L 576.023438 342.617188 " fill-opacity="1" fill-rule="nonzero"/><path fill="#c3c1ba" d="M 576.023438 357.023438 L 266.125 357.023438 L 266.125 359.152344 L 576.023438 359.152344 L 576.023438 357.023438 " fill-opacity="1" fill-rule="nonzero"/><path fill="#c3c1ba" d="M 576.023438 371.441406 L 266.125 371.441406 L 266.125 373.574219 L 576.023438 373.574219 L 576.023438 371.441406 " fill-opacity="1" fill-rule="nonzero"/><path fill="#c3c1ba" d="M 576.023438 385.855469 L 266.125 385.855469 L 266.125 387.984375 L 576.023438 387.984375 L 576.023438 385.855469 " fill-opacity="1" fill-rule="nonzero"/><path fill="#c3c1ba" d="M 576.023438 400.269531 L 266.125 400.269531 L 266.125 402.398438 L 576.023438 402.398438 L 576.023438 400.269531 " fill-opacity="1" fill-rule="nonzero"/><path fill="#c3c1ba" d="M 576.023438 414.6875 L 266.125 414.6875 L 266.125 416.8125 L 576.023438 416.8125 L 576.023438 414.6875 " fill-opacity="1" fill-rule="nonzero"/><path fill="#c3c1ba" d="M 576.023438 429.101562 L 266.125 429.101562 L 266.125 431.230469 L 576.023438 431.230469 L 576.023438 429.101562 " fill-opacity="1" fill-rule="nonzero"/><path fill="#c3c1ba" d="M 576.023438 443.515625 L 266.125 443.515625 L 266.125 445.644531 L 576.023438 445.644531 L 576.023438 443.515625 " fill-opacity="1" fill-rule="nonzero"/><path fill="#c3c1ba" d="M 576.023438 457.929688 L 266.125 457.929688 L 266.125 460.058594 L 576.023438 460.058594 L 576.023438 457.929688 " fill-opacity="1" fill-rule="nonzero"/><path fill="#c3c1ba" d="M 576.023438 472.347656 L 266.125 472.347656 L 266.125 474.476562 L 576.023438 474.476562 L 576.023438 472.347656 " fill-opacity="1" fill-rule="nonzero"/><path fill="#c3c1ba" d="M 576.023438 486.761719 L 266.125 486.761719 L 266.125 488.890625 L 576.023438 488.890625 L 576.023438 486.761719 " fill-opacity="1" fill-rule="nonzero"/><path fill="#c3c1ba" d="M 576.023438 501.167969 L 266.125 501.167969 L 266.125 503.304688 L 576.023438 503.304688 L 576.023438 501.167969 " fill-opacity="1" fill-rule="nonzero"/><path fill="#c3c1ba" d="M 576.023438 515.59375 L 266.125 515.59375 L 266.125 517.722656 L 576.023438 517.722656 L 576.023438 515.59375 " fill-opacity="1" fill-rule="nonzero"/><path fill="#c3c1ba" d="M 469.980469 530 L 266.125 530 L 266.125 532.128906 L 469.980469 532.128906 L 469.980469 530 " fill-opacity="1" fill-rule="nonzero"/><path fill="#c3c1ba" d="M 469.980469 544.414062 L 266.125 544.414062 L 266.125 546.542969 L 469.980469 546.542969 L 469.980469 544.414062 " fill-opacity="1" fill-rule="nonzero"/><path fill="#c3c1ba" d="M 469.980469 558.832031 L 266.125 558.832031 L 266.125 560.960938 L 469.980469 560.960938 L 469.980469 558.832031 " fill-opacity="1" fill-rule="nonzero"/><path fill="#c3c1ba" d="M 469.980469 573.246094 L 266.125 573.246094 L 266.125 575.375 L 469.980469 575.375 L 469.980469 573.246094 " fill-opacity="1" fill-rule="nonzero"/><path fill="#c3c1ba" d="M 469.980469 587.660156 L 266.125 587.660156 L 266.125 589.789062 L 469.980469 589.789062 L 469.980469 587.660156 " fill-opacity="1" fill-rule="nonzero"/><path fill="#c3c1ba" d="M 469.980469 602.078125 L 266.125 602.078125 L 266.125 604.203125 L 469.980469 604.203125 L 469.980469 602.078125 " fill-opacity="1" fill-rule="nonzero"/><path fill="#c3c1ba" d="M 469.980469 617.554688 L 266.125 617.554688 L 266.125 619.683594 L 469.980469 619.683594 L 469.980469 617.554688 " fill-opacity="1" fill-rule="nonzero"/><g clip-path="url(#b1fd598d5e)"><path fill="#b9c3bd" d="M 419.042969 81.578125 C 413.640625 81.578125 409.265625 77.195312 409.265625 71.792969 C 409.265625 66.390625 413.640625 62.007812 419.042969 62.007812 C 424.445312 62.007812 428.828125 66.390625 428.828125 71.792969 C 428.828125 77.195312 424.445312 81.578125 419.042969 81.578125 Z M 518.042969 117.078125 L 518.042969 104.820312 C 518.042969 96.753906 511.5 90.210938 503.433594 90.210938 L 457.796875 90.210938 C 456.339844 70.074219 439.550781 54.183594 419.042969 54.183594 C 398.542969 54.183594 381.753906 70.074219 380.296875 90.210938 L 334.65625 90.210938 C 326.589844 90.210938 320.050781 96.753906 320.050781 104.820312 L 320.050781 117.078125 L 298.65625 117.078125 L 298.65625 198.234375 L 539.429688 198.234375 L 539.429688 117.078125 L 518.042969 117.078125 " fill-opacity="1" fill-rule="nonzero"/></g><path fill="#fab683" d="M 276.175781 471.898438 C 268.183594 465.335938 256.851562 465.925781 250.875 473.195312 L 211.28125 521.398438 C 211.273438 521.398438 209.910156 514.796875 207.753906 505.136719 L 210.855469 483.910156 C 210.804688 483.472656 210.78125 483.027344 210.78125 482.570312 L 210.78125 385.253906 L 189.433594 412.980469 C 186.722656 415.480469 184.773438 418.824219 184.039062 422.648438 C 183.875 423.402344 149.109375 511.066406 138.175781 542.667969 C 129.417969 567.96875 118.882812 584.402344 109.023438 607.738281 C 95.21875 640.386719 95.992188 686.476562 95.992188 686.476562 L 165.769531 677.433594 C 165.769531 677.433594 174.953125 622.378906 187.503906 611.503906 C 206.109375 595.394531 222.933594 566.167969 222.933594 566.167969 L 279.792969 496.957031 C 285.769531 489.6875 284.144531 478.457031 276.175781 471.898438 " fill-opacity="1" fill-rule="nonzero"/><path fill="#ffffff" d="M 269.65625 478.804688 C 264.933594 475.324219 258.125 476.550781 254.441406 481.546875 L 245.457031 493.726562 L 262.566406 506.34375 L 271.546875 494.160156 C 275.222656 489.160156 274.382812 482.289062 269.65625 478.804688 " fill-opacity="1" fill-rule="nonzero"/><path fill="#c59b75" d="M 518.933594 475.746094 C 520.566406 470.410156 526.210938 467.40625 531.554688 469.035156 C 536.882812 470.664062 539.890625 476.304688 538.261719 481.640625 L 524.902344 532.398438 C 523.273438 537.734375 517.625 540.738281 512.296875 539.109375 C 506.953125 537.480469 503.949219 531.832031 505.578125 526.496094 L 518.933594 475.746094 " fill-opacity="1" fill-rule="nonzero"/><path fill="#c59b75" d="M 580.445312 491.414062 C 585.042969 494.589844 586.191406 500.878906 583.019531 505.472656 C 579.851562 510.054688 573.5625 511.214844 568.972656 508.039062 L 524.664062 479.914062 C 520.074219 476.746094 518.921875 470.457031 522.082031 465.863281 C 525.261719 461.273438 531.554688 460.125 536.148438 463.289062 L 580.445312 491.414062 " fill-opacity="1" fill-rule="nonzero"/><path fill="#d6a97f" d="M 507.734375 453.21875 C 509.886719 446.179688 517.34375 442.222656 524.390625 444.371094 C 531.421875 446.515625 535.386719 453.964844 533.238281 461.003906 L 515.609375 527.984375 C 513.457031 535.03125 506.003906 539.003906 498.96875 536.855469 C 491.921875 534.703125 487.957031 527.246094 490.109375 520.207031 L 507.734375 453.21875 " fill-opacity="1" fill-rule="nonzero"/><path fill="#d6a97f" d="M 588.921875 473.910156 C 594.976562 478.09375 596.496094 486.398438 592.308594 492.457031 C 588.125 498.511719 579.828125 500.03125 573.761719 495.839844 L 515.296875 458.726562 C 509.238281 454.546875 507.714844 446.238281 511.894531 440.191406 C 516.078125 434.125 524.390625 432.605469 530.445312 436.789062 L 588.921875 473.910156 " fill-opacity="1" fill-rule="nonzero"/><path fill="#e9b384" d="M 491.023438 432.710938 C 493.441406 424.785156 501.820312 420.328125 509.746094 422.746094 C 517.664062 425.164062 522.128906 433.542969 519.703125 441.460938 L 499.871094 516.796875 C 497.453125 524.722656 489.074219 529.1875 481.15625 526.777344 C 473.230469 524.359375 468.773438 515.972656 471.183594 508.054688 L 491.023438 432.710938 " fill-opacity="1" fill-rule="nonzero"/><path fill="#e9b384" d="M 582.335938 455.972656 C 589.152344 460.675781 590.855469 470.015625 586.144531 476.835938 C 581.441406 483.644531 572.105469 485.355469 565.289062 480.652344 L 499.519531 438.902344 C 492.710938 434.191406 490.992188 424.851562 495.695312 418.042969 C 500.40625 411.226562 509.753906 409.511719 516.570312 414.222656 L 582.335938 455.972656 " fill-opacity="1" fill-rule="nonzero"/><path fill="#fab683" d="M 575.503906 604.398438 C 561.402344 590.101562 536.445312 589.359375 514.945312 557.59375 C 497.519531 531.816406 528.484375 499.398438 547.980469 518.957031 C 547.980469 518.957031 606.878906 636.207031 575.503906 604.398438 " fill-opacity="1" fill-rule="nonzero"/><path fill="#fab683" d="M 570.125 606.578125 C 586.792969 615.332031 627.304688 677.433594 627.304688 677.433594 L 691.589844 695.914062 C 691.589844 695.914062 672.128906 596.90625 655.371094 571.953125 C 646.480469 558.703125 629.492188 510.84375 617.035156 483.160156 C 607.441406 461.839844 589.097656 451.332031 529.859375 403.261719 C 513.398438 389.902344 531.773438 448.464844 539.050781 464.078125 C 567.59375 525.273438 511.253906 509.164062 511.253906 509.164062 C 527.828125 545.828125 514.613281 559.113281 514.613281 559.113281 C 514.613281 559.113281 545.417969 593.601562 570.125 606.578125 " fill-opacity="1" fill-rule="nonzero"/><path fill="#fab683" d="M 578.660156 459.902344 C 583.496094 467.660156 581.128906 477.855469 573.375 482.691406 C 565.636719 487.519531 555.433594 485.167969 550.597656 477.421875 L 503.933594 423.496094 C 499.097656 415.75 501.457031 405.546875 509.195312 400.710938 C 516.941406 395.871094 527.15625 398.238281 531.988281 405.980469 L 578.660156 459.902344 " fill-opacity="1" fill-rule="nonzero"/><path fill="#d7c021" d="M 443.824219 485.074219 L 667.488281 465.410156 L 665.433594 442.042969 L 441.769531 461.703125 L 443.824219 485.074219 " fill-opacity="1" fill-rule="nonzero"/><path fill="#c8ae2b" d="M 443.824219 485.074219 L 667.488281 465.410156 L 666.460938 453.71875 L 442.796875 473.386719 L 443.824219 485.074219 " fill-opacity="1" fill-rule="nonzero"/><path fill="#29292f" d="M 415.234375 479.089844 L 414.660156 472.585938 L 403.667969 476.835938 Z M 415.234375 479.089844 " fill-opacity="1" fill-rule="nonzero"/><path fill="#d7c254" d="M 442.886719 474.421875 L 666.554688 454.761719 L 666.332031 452.238281 L 442.667969 471.90625 L 442.886719 474.421875 " fill-opacity="1" fill-rule="nonzero"/><path fill="#e25c79" d="M 677.933594 440.828125 L 692.847656 439.519531 C 697.148438 439.140625 700.941406 442.324219 701.324219 446.621094 L 702.023438 454.632812 C 702.402344 458.9375 699.222656 462.730469 694.921875 463.109375 L 680.011719 464.421875 L 677.933594 440.828125 " fill-opacity="1" fill-rule="nonzero"/><path fill="#cbb076" d="M 441.769531 461.703125 L 443.824219 485.074219 L 415.234375 479.089844 L 414.660156 472.585938 L 441.769531 461.703125 " fill-opacity="1" fill-rule="nonzero"/><path fill="#bfbdb6" d="M 667.554688 466.09375 L 680.054688 465 L 677.882812 440.25 L 665.375 441.351562 L 667.554688 466.09375 " fill-opacity="1" fill-rule="nonzero"/><path fill="#fab683" d="M 539.050781 530.402344 C 546.574219 536.164062 547.546875 547.519531 541.230469 555.78125 C 534.925781 564.03125 523.710938 566.070312 516.183594 560.3125 L 444.617188 505.589844 C 437.089844 499.835938 436.105469 488.472656 442.410156 480.21875 C 448.726562 471.960938 459.957031 469.929688 467.476562 475.679688 L 539.050781 530.402344 " fill-opacity="1" fill-rule="nonzero"/><path fill="#fab683" d="M 506.476562 402.84375 C 513.050781 396.496094 523.519531 396.691406 529.859375 403.261719 C 536.199219 409.832031 536.019531 420.296875 529.441406 426.644531 L 482.941406 466.957031 C 476.371094 473.292969 465.894531 473.113281 459.5625 466.550781 C 453.214844 459.976562 453.398438 449.492188 459.96875 443.152344 L 506.476562 402.84375 " fill-opacity="1" fill-rule="nonzero"/><path fill="#ffffff" d="M 448.605469 486.09375 C 452.640625 480.800781 460.445312 479.960938 466.042969 484.230469 L 479.683594 494.636719 L 465.074219 513.800781 L 451.433594 503.394531 C 445.839844 499.125 444.566406 491.382812 448.605469 486.09375 " fill-opacity="1" fill-rule="nonzero"/><path fill="#ffffff" d="M 470.855469 449.632812 C 467.113281 453.429688 461.175781 453.628906 457.589844 450.09375 C 457.023438 449.535156 456.5625 448.917969 456.183594 448.257812 C 456.816406 446.859375 457.707031 445.554688 458.882812 444.417969 L 472.292969 432.792969 L 479.988281 440.382812 L 470.855469 449.632812 " fill-opacity="1" fill-rule="nonzero"/><path fill="#29292f" d="M 307.445312 481.632812 C 306.394531 481.433594 305.597656 481.582031 304.773438 482.273438 C 304.402344 482.578125 304.117188 483.054688 303.84375 483.441406 C 302.660156 485.125 300.976562 482.089844 300.359375 481.195312 C 300.117188 480.839844 299.59375 480.808594 299.355469 481.195312 C 298.613281 482.414062 297.628906 483.429688 296.78125 484.558594 C 295.597656 481.628906 295.894531 478.292969 294.757812 475.324219 C 294.609375 474.9375 294.101562 474.714844 293.78125 475.0625 C 291.1875 477.863281 289.570312 481.457031 289.035156 485.230469 C 288.929688 485.964844 290.054688 486.277344 290.160156 485.535156 C 290.613281 482.289062 291.886719 479.179688 293.960938 476.648438 C 294.839844 479.757812 294.609375 483.109375 296.171875 486.03125 C 296.378906 486.425781 296.953125 486.390625 297.175781 486.03125 C 297.949219 484.765625 298.976562 483.710938 299.839844 482.527344 C 300.660156 483.777344 301.894531 485.542969 303.277344 485.304688 C 305.050781 485 304.996094 482.347656 307.140625 482.757812 C 307.871094 482.898438 308.183594 481.777344 307.445312 481.632812 " fill-opacity="1" fill-rule="nonzero"/><path fill="#29292f" d="M 397.394531 479.214844 C 397.136719 478.515625 396.003906 478.820312 396.273438 479.519531 C 396.332031 479.683594 396.382812 479.839844 396.445312 479.996094 C 396.117188 479.296875 395.824219 478.566406 395.625 477.792969 C 395.453125 477.15625 394.488281 477.296875 394.480469 477.949219 C 394.480469 479.894531 394.433594 481.789062 394.0625 483.679688 C 393.148438 482.320312 392.617188 480.792969 392.082031 479.214844 C 391.867188 478.5625 391.011719 478.722656 390.945312 479.363281 C 390.824219 480.464844 390.445312 481.484375 390.171875 482.542969 C 389.179688 481.078125 388.324219 479.542969 387.425781 478.011719 C 387.1875 477.601562 386.464844 477.636719 386.359375 478.152344 C 385.855469 480.734375 386.101562 483.375 385.570312 485.9375 C 383.980469 483.882812 383.457031 481.269531 382.371094 478.917969 C 382.199219 475.890625 381.636719 472.925781 379.550781 470.8125 C 379.269531 470.53125 378.84375 470.628906 378.636719 470.933594 C 376.015625 474.691406 377.46875 479.351562 376.664062 483.589844 C 375.859375 482.871094 375.027344 482.171875 374.238281 481.433594 C 373.976562 481.1875 373.5 481.203125 373.324219 481.550781 C 373.144531 481.902344 372.964844 482.246094 372.765625 482.566406 C 372.460938 482.109375 372.148438 481.664062 371.855469 481.195312 C 371.605469 480.800781 370.890625 480.816406 370.785156 481.335938 C 370.675781 481.925781 370.496094 482.484375 370.332031 483.054688 C 369.996094 482.683594 369.667969 482.320312 369.378906 481.902344 C 369.15625 481.589844 368.753906 481.515625 368.464844 481.785156 C 367.875 482.328125 367.386719 482.773438 366.976562 483.375 C 366.699219 483.070312 366.425781 482.773438 366.097656 482.496094 C 365.695312 482.148438 365.160156 482.394531 365.109375 482.90625 C 365.035156 483.515625 364.890625 484.097656 364.722656 484.679688 C 364 484.066406 363.203125 483.578125 362.5625 482.847656 C 362.242188 482.492188 361.738281 482.734375 361.589844 483.109375 C 361.34375 483.71875 361.058594 484.320312 360.785156 484.917969 C 360.09375 483.144531 359.246094 481.464844 357.957031 480.019531 C 357.59375 479.601562 357.003906 479.960938 356.96875 480.429688 C 356.921875 480.941406 356.839844 481.449219 356.75 481.945312 C 356.269531 479.351562 355.910156 476.730469 354.921875 474.25 C 354.734375 473.78125 354.160156 473.679688 353.855469 474.117188 C 352.589844 475.984375 352.117188 478.195312 351.4375 480.332031 C 350.933594 479.4375 350.34375 478.605469 349.914062 477.660156 C 349.683594 477.15625 348.996094 477.371094 348.847656 477.792969 C 348.394531 479.042969 347.621094 480.109375 347.054688 481.292969 C 345.917969 480.511719 344.71875 480.332031 343.273438 480.867188 C 342.5625 481.144531 341.898438 481.574219 341.234375 481.960938 C 339.25 483.128906 338.519531 481.84375 337.933594 479.914062 C 337.8125 479.511719 337.269531 479.328125 336.964844 479.664062 C 335.996094 480.710938 335.050781 481.777344 333.871094 482.578125 C 331.917969 483.917969 330.492188 481.121094 329.738281 479.78125 C 329.5 479.371094 328.765625 479.410156 328.675781 479.914062 C 328.421875 481.34375 327.203125 482.410156 326.109375 481.078125 C 325.808594 480.71875 325.257812 480.957031 325.132812 481.335938 C 325.089844 481.472656 325.042969 481.605469 325 481.738281 C 324.015625 481.308594 323.078125 481.179688 321.957031 480.925781 C 321.226562 480.765625 320.914062 481.886719 321.644531 482.050781 C 322.871094 482.328125 323.90625 482.371094 325.050781 483.054688 C 325.386719 483.257812 325.789062 483.054688 325.90625 482.707031 C 325.914062 482.660156 325.929688 482.625 325.945312 482.578125 C 327.460938 483.917969 328.75 483.277344 329.425781 481.550781 C 330.222656 482.839844 331.21875 483.992188 332.820312 484.128906 C 334.417969 484.261719 336.019531 482.496094 337.144531 481.21875 C 337.628906 482.542969 338.4375 484 339.992188 483.71875 C 342.507812 483.257812 344.308594 480.332031 346.871094 482.609375 C 347.210938 482.914062 347.695312 482.773438 347.84375 482.347656 C 348.246094 481.238281 348.90625 480.289062 349.453125 479.253906 C 349.988281 480.144531 350.605469 480.996094 350.96875 482 C 351.179688 482.566406 351.882812 482.542969 352.09375 482 C 352.882812 479.976562 353.269531 477.75 354.234375 475.800781 C 355.210938 478.851562 355.433594 482.089844 356.28125 485.183594 C 356.460938 485.847656 357.367188 485.660156 357.421875 485.027344 C 357.511719 483.964844 357.75 482.929688 357.925781 481.878906 C 358.925781 483.316406 359.59375 484.929688 360.175781 486.597656 C 360.367188 487.179688 361.082031 487.132812 361.289062 486.597656 C 361.617188 485.800781 361.988281 485.035156 362.339844 484.253906 C 363.078125 484.886719 363.902344 485.398438 364.570312 486.152344 C 364.878906 486.5 365.40625 486.277344 365.546875 485.890625 C 365.761719 485.265625 365.933594 484.699219 366.066406 484.105469 C 366.261719 484.320312 366.460938 484.535156 366.691406 484.730469 C 366.953125 484.960938 367.429688 484.976562 367.609375 484.617188 C 367.949219 483.902344 368.335938 483.488281 368.820312 483.035156 C 369.269531 483.554688 369.742188 484.054688 370.136719 484.617188 C 370.390625 484.96875 371.128906 485.035156 371.203125 484.476562 C 371.285156 483.925781 371.433594 483.414062 371.589844 482.898438 C 371.820312 483.226562 372.050781 483.5625 372.265625 483.910156 C 372.519531 484.3125 373.003906 484.253906 373.269531 483.910156 C 373.554688 483.539062 373.777344 483.160156 373.992188 482.765625 C 374.863281 483.539062 375.757812 484.292969 376.605469 485.085938 C 376.917969 485.386719 377.453125 485.265625 377.570312 484.828125 C 378.726562 480.757812 377.15625 475.976562 379.214844 472.207031 C 380.535156 473.863281 381.015625 476.015625 381.203125 478.269531 C 381.097656 478.367188 381.023438 478.5 381.03125 478.65625 C 381.070312 480.4375 381.234375 482.214844 381.328125 483.992188 C 381.335938 484.46875 381.351562 484.9375 381.382812 485.386719 C 381.433594 486.121094 382.566406 486.144531 382.550781 485.386719 C 382.535156 484.8125 382.511719 484.238281 382.476562 483.667969 C 382.46875 483.191406 382.46875 482.699219 382.460938 482.207031 C 383.167969 484.140625 383.898438 486.039062 385.453125 487.566406 C 385.773438 487.878906 386.292969 487.730469 386.425781 487.304688 C 387.148438 484.925781 387.015625 482.484375 387.261719 480.042969 C 388.101562 481.492188 388.949219 482.921875 389.960938 484.261719 C 390.320312 484.738281 390.980469 484.566406 391.046875 483.972656 C 391.136719 483.09375 391.398438 482.257812 391.644531 481.425781 C 392.210938 482.871094 392.886719 484.230469 393.941406 485.4375 C 394.242188 485.78125 394.804688 485.585938 394.917969 485.183594 C 395.320312 483.761719 395.484375 482.339844 395.566406 480.90625 C 396.003906 481.796875 396.511719 482.667969 397.039062 483.554688 C 397.359375 484.082031 398.066406 483.816406 398.125 483.265625 C 398.273438 481.707031 397.9375 480.652344 397.394531 479.214844 " fill-opacity="1" fill-rule="nonzero"/><path fill="#29292f" d="M 313.160156 467.53125 C 312.898438 466.824219 312.714844 466.109375 312.453125 465.410156 C 312.207031 464.734375 311.160156 464.992188 311.320312 465.648438 C 310.957031 465.382812 310.570312 465.113281 310.183594 464.800781 C 309.765625 464.457031 309.246094 464.6875 309.1875 465.210938 C 309.105469 465.976562 308.917969 466.71875 308.753906 467.464844 C 308.21875 466.609375 307.660156 465.753906 307.085938 464.914062 C 306.753906 464.4375 306.03125 464.613281 306 465.210938 C 305.972656 465.851562 305.90625 466.488281 305.832031 467.128906 C 305.242188 466.324219 304.511719 465.632812 303.804688 464.800781 C 303.613281 464.5625 303.1875 464.578125 302.988281 464.800781 C 301.574219 466.304688 300.449219 468.03125 298.777344 469.242188 C 298.277344 467.5625 297.554688 465.96875 296.878906 464.347656 C 296.699219 463.898438 296.097656 463.734375 295.8125 464.207031 C 294.585938 466.28125 294.074219 468.699219 292.546875 470.566406 C 290.300781 466.042969 290.324219 460.515625 286.824219 456.660156 C 286.660156 456.472656 286.320312 456.421875 286.117188 456.5625 C 282.941406 458.816406 281.699219 462.480469 281.9375 466.273438 C 281.980469 467.019531 283.140625 467.019531 283.097656 466.273438 C 282.964844 464.101562 283.3125 462.152344 284.296875 460.203125 C 284.59375 459.613281 285.917969 457.253906 286.90625 458.570312 C 287.671875 459.589844 288.121094 460.855469 288.527344 462.054688 C 289.667969 465.367188 290.167969 468.789062 291.921875 471.871094 C 292.109375 472.207031 292.570312 472.25 292.835938 471.988281 C 294.609375 470.269531 295.226562 467.984375 296.261719 465.851562 C 296.886719 467.308594 297.503906 468.765625 297.882812 470.316406 C 297.972656 470.679688 298.417969 470.851562 298.738281 470.664062 C 300.0625 469.875 301.046875 468.871094 302.019531 467.6875 C 302.148438 467.53125 303.195312 465.863281 303.539062 466.28125 C 304.4375 467.339844 305.175781 467.726562 305.667969 469.257812 C 305.875 469.890625 306.769531 469.757812 306.8125 469.101562 C 306.855469 468.367188 306.9375 467.628906 307.019531 466.890625 C 307.558594 467.710938 308.085938 468.527344 308.554688 469.398438 C 308.851562 469.941406 309.59375 469.636719 309.640625 469.101562 C 309.730469 468.121094 309.996094 467.183594 310.183594 466.230469 C 310.890625 466.71875 311.574219 467.183594 312.097656 467.976562 C 312.4375 468.515625 313.398438 468.179688 313.160156 467.53125 " fill-opacity="1" fill-rule="nonzero"/><path fill="#29292f" d="M 387.425781 466.683594 C 384.417969 462.390625 382.058594 466.007812 380.035156 469.011719 C 378.117188 467.753906 376.6875 465.933594 374.945312 464.441406 C 374.675781 464.210938 374.214844 464.207031 374.039062 464.5625 C 373.078125 466.421875 371.34375 470.695312 368.671875 469.050781 C 366.609375 467.777344 365.011719 465.402344 363.269531 463.734375 C 362.933594 463.417969 362.445312 463.578125 362.296875 463.988281 C 361.8125 465.351562 361.484375 466.742188 361.214844 468.148438 C 360.40625 466.265625 359.488281 464.441406 357.957031 463.03125 C 357.652344 462.738281 357.09375 462.835938 356.980469 463.28125 C 356.757812 464.273438 356.503906 465.238281 356.296875 466.207031 C 355.867188 464.949219 355.328125 463.75 354.421875 462.671875 C 354.109375 462.308594 353.582031 462.558594 353.449219 462.933594 C 353.097656 463.878906 352.726562 464.792969 352.429688 465.738281 C 351.765625 464.242188 350.945312 462.867188 349.816406 461.617188 C 349.554688 461.316406 349.101562 461.4375 348.90625 461.726562 C 347.992188 463.066406 347.292969 464.503906 346.59375 465.953125 C 345.5 463.363281 344.636719 460.617188 342.390625 458.78125 C 342.128906 458.5625 341.636719 458.527344 341.472656 458.898438 C 340 462.179688 340.410156 467.0625 337.605469 469.59375 C 335.378906 464.324219 336.621094 458.320312 334.398438 453.019531 C 334.226562 452.625 333.5625 452.351562 333.332031 452.878906 C 332.074219 455.773438 331.125 458.792969 330.527344 461.890625 C 330.097656 464.160156 329.621094 467.503906 331.652344 469.160156 C 332.230469 469.628906 333.058594 468.8125 332.476562 468.335938 C 330.476562 466.707031 331.480469 462.941406 331.933594 460.820312 C 332.382812 458.78125 333.019531 456.753906 333.792969 454.796875 C 335.410156 460.023438 334.425781 465.753906 336.875 470.8125 C 337.003906 471.082031 337.425781 471.191406 337.671875 471.023438 C 341.234375 468.527344 340.828125 463.929688 342.1875 460.203125 C 344.160156 462.226562 344.875 465.089844 346.074219 467.628906 C 346.25 468.007812 346.898438 468 347.078125 467.628906 C 347.835938 466.066406 348.558594 464.496094 349.464844 463.03125 C 350.621094 464.472656 351.394531 466.066406 352.035156 467.835938 C 352.257812 468.476562 353.113281 468.34375 353.171875 467.6875 C 353.285156 466.488281 353.722656 465.386719 354.160156 464.285156 C 355.046875 465.6875 355.425781 467.308594 355.925781 468.902344 C 356.125 469.546875 357.019531 469.398438 357.070312 468.753906 C 357.175781 467.324219 357.519531 465.976562 357.859375 464.613281 C 359.296875 466.296875 360.078125 468.433594 360.941406 470.457031 C 361.132812 470.910156 361.921875 470.792969 362.003906 470.316406 C 362.296875 468.597656 362.613281 466.90625 363.121094 465.246094 C 364.929688 467.183594 366.804688 469.808594 369.289062 470.613281 C 371.804688 471.4375 373.703125 467.816406 374.714844 465.796875 C 376.402344 467.359375 377.882812 469.140625 379.910156 470.316406 C 380.191406 470.480469 380.519531 470.367188 380.703125 470.105469 C 381.730469 468.597656 383.882812 463.640625 386.417969 467.269531 C 386.84375 467.882812 387.855469 467.300781 387.425781 466.683594 " fill-opacity="1" fill-rule="nonzero"/><path fill="#ebeae2" d="M 107.957031 596.90625 L 77.96875 695.914062 L 171.523438 695.914062 L 191.277344 630.929688 L 107.957031 596.90625 " fill-opacity="1" fill-rule="nonzero"/><g clip-path="url(#ed38b65027)"><path fill="#7bcabe" d="M 88.5 617.554688 L 54.519531 729.171875 L 171.015625 729.171875 L 190.773438 651.582031 L 88.5 617.554688 " fill-opacity="1" fill-rule="nonzero"/></g><path fill="#ebeae2" d="M 672.128906 596.90625 L 691.589844 695.914062 L 604.511719 695.914062 L 588.808594 630.929688 L 672.128906 596.90625 " fill-opacity="1" fill-rule="nonzero"/><g clip-path="url(#eac77f7d69)"><path fill="#7bcabe" d="M 691.589844 617.554688 L 711.046875 729.171875 L 605.023438 729.171875 L 589.316406 651.582031 L 691.589844 617.554688 " fill-opacity="1" fill-rule="nonzero"/></g></svg>