<svg xmlns="http://www.w3.org/2000/svg" xmlns:xlink="http://www.w3.org/1999/xlink" width="1080" zoomAndPan="magnify" viewBox="0 0 810 809.999993" height="1080" preserveAspectRatio="xMidYMid meet" version="1.0"><defs><clipPath id="7169fe4b6e"><path d="M 609.160156 226.851562 L 788.964844 226.851562 L 788.964844 497.089844 L 609.160156 497.089844 Z M 609.160156 226.851562 " clip-rule="nonzero"/></clipPath><clipPath id="2478fcf7a3"><path d="M 701 226.851562 L 788.964844 226.851562 L 788.964844 494.507812 L 701 494.507812 Z M 701 226.851562 " clip-rule="nonzero"/></clipPath></defs><path fill="#eaeaea" d="M 59.917969 604.476562 L 503.75 604.476562 L 606.265625 612.351562 L 685.050781 615.503906 C 685.050781 615.503906 726.804688 623.378906 738.621094 633.613281 C 750.441406 643.855469 752.804688 663.542969 690.5625 663.542969 C 628.328125 663.542969 488.09375 685.59375 492.824219 657.242188 C 492.824219 657.242188 502.277344 647.792969 457.371094 647.792969 C 412.464844 647.792969 429.007812 633.613281 429.007812 633.613281 L 73.441406 633.613281 C 57.289062 633.613281 37.058594 632.324219 22.496094 625.347656 C 5.070312 617 0.0429688 604.476562 59.917969 604.476562 " fill-opacity="1" fill-rule="nonzero"/><path fill="#2e3b72" d="M 76.527344 606.414062 L 59.632812 606.414062 L 59.632812 466.1875 L 76.527344 466.1875 L 76.527344 606.414062 " fill-opacity="1" fill-rule="nonzero"/><path fill="#253568" d="M 76.847656 603.054688 L 59.316406 603.054688 C 57.097656 603.054688 55.300781 604.855469 55.300781 607.070312 L 55.300781 612.246094 C 55.300781 614.464844 57.097656 616.261719 59.316406 616.261719 L 76.847656 616.261719 C 79.0625 616.261719 80.859375 614.464844 80.859375 612.246094 L 80.859375 607.070312 C 80.859375 604.855469 79.0625 603.054688 76.847656 603.054688 " fill-opacity="1" fill-rule="nonzero"/><path fill="#2e3b72" d="M 209.355469 606.414062 L 192.457031 606.414062 L 192.457031 466.1875 L 209.355469 466.1875 L 209.355469 606.414062 " fill-opacity="1" fill-rule="nonzero"/><path fill="#253568" d="M 209.671875 603.054688 L 192.140625 603.054688 C 189.925781 603.054688 188.128906 604.855469 188.128906 607.070312 L 188.128906 612.246094 C 188.128906 614.464844 189.925781 616.261719 192.140625 616.261719 L 209.671875 616.261719 C 211.890625 616.261719 213.6875 614.464844 213.6875 612.246094 L 213.6875 607.070312 C 213.6875 604.855469 211.890625 603.054688 209.671875 603.054688 " fill-opacity="1" fill-rule="nonzero"/><path fill="#2e3b72" d="M 434.535156 606.414062 L 417.636719 606.414062 L 417.636719 466.1875 L 434.535156 466.1875 L 434.535156 606.414062 " fill-opacity="1" fill-rule="nonzero"/><path fill="#253568" d="M 434.851562 603.054688 L 417.320312 603.054688 C 415.105469 603.054688 413.304688 604.855469 413.304688 607.070312 L 413.304688 612.246094 C 413.304688 614.464844 415.105469 616.261719 417.320312 616.261719 L 434.851562 616.261719 C 437.070312 616.261719 438.867188 614.464844 438.867188 612.246094 L 438.867188 607.070312 C 438.867188 604.855469 437.070312 603.054688 434.851562 603.054688 " fill-opacity="1" fill-rule="nonzero"/><path fill="#2e3b72" d="M 524.921875 606.414062 L 508.019531 606.414062 L 508.019531 466.1875 L 524.921875 466.1875 L 524.921875 606.414062 " fill-opacity="1" fill-rule="nonzero"/><path fill="#253568" d="M 525.234375 603.054688 L 507.703125 603.054688 C 505.488281 603.054688 503.691406 604.855469 503.691406 607.070312 L 503.691406 612.246094 C 503.691406 614.464844 505.488281 616.261719 507.703125 616.261719 L 525.234375 616.261719 C 527.453125 616.261719 529.25 614.464844 529.25 612.246094 L 529.25 607.070312 C 529.25 604.855469 527.453125 603.054688 525.234375 603.054688 " fill-opacity="1" fill-rule="nonzero"/><path fill="#88a5ff" d="M 518.820312 472.925781 L 67.652344 472.925781 C 61.390625 472.925781 56.316406 467.851562 56.316406 461.59375 L 56.316406 439.480469 C 56.316406 433.222656 61.390625 428.148438 67.652344 428.148438 L 518.820312 428.148438 C 525.082031 428.148438 530.15625 433.222656 530.15625 439.480469 L 530.15625 461.59375 C 530.15625 467.851562 525.082031 472.925781 518.820312 472.925781 " fill-opacity="1" fill-rule="nonzero"/><path fill="#6f92ff" d="M 202.285156 428.148438 L 67.652344 428.148438 C 61.390625 428.148438 56.316406 433.222656 56.316406 439.480469 L 56.316406 461.59375 C 56.316406 467.851562 61.390625 472.925781 67.652344 472.925781 L 202.285156 472.925781 L 202.285156 428.148438 " fill-opacity="1" fill-rule="nonzero"/><path fill="#2e3b72" d="M 537.113281 476.386719 L 49.355469 476.386719 C 47.460938 476.386719 45.929688 474.855469 45.929688 472.960938 L 45.929688 470.382812 C 45.929688 468.488281 47.460938 466.957031 49.355469 466.957031 L 537.113281 466.957031 C 539.007812 466.957031 540.542969 468.488281 540.542969 470.382812 L 540.542969 472.960938 C 540.542969 474.855469 539.007812 476.386719 537.113281 476.386719 " fill-opacity="1" fill-rule="nonzero"/><path fill="#212851" d="M 275.753906 309.925781 C 275.753906 309.925781 239.183594 307.160156 233.957031 351.746094 C 233.035156 360.972656 229.960938 369.890625 224.121094 382.191406 C 218.28125 394.492188 220.433594 423.394531 242.871094 438.464844 C 265.308594 453.53125 298.5 451.6875 311.410156 421.550781 C 324.316406 391.414062 323.023438 364.585938 319.09375 345.289062 C 315.707031 328.679688 300.035156 307.46875 275.753906 309.925781 " fill-opacity="1" fill-rule="nonzero"/><path fill="#ed9c8c" d="M 390.449219 410.640625 C 390.449219 410.640625 389.433594 426.910156 388.601562 463.554688 C 387.773438 500.203125 394.132812 541.914062 395.433594 556.210938 C 396.734375 570.511719 401.507812 572.441406 405.492188 572.765625 C 409.476562 573.089844 413.851562 564.808594 418.332031 543.882812 C 422.8125 522.964844 438.820312 459.625 440.066406 410.363281 C 442.363281 382.164062 396.144531 367.289062 390.449219 410.640625 " fill-opacity="1" fill-rule="nonzero"/><path fill="#ed9c8c" d="M 404.179688 548.613281 C 404.179688 548.613281 397.867188 547.894531 395.957031 556.171875 C 394.050781 564.449219 392.355469 567.601562 389.929688 572.136719 C 387.5 576.667969 387.113281 586.507812 396.425781 588.296875 C 405.734375 590.085938 421.441406 591.570312 430.34375 593.324219 C 439.246094 595.078125 456.574219 595.691406 457.800781 586.921875 C 458.792969 579.804688 443.761719 577.550781 436.644531 574.089844 C 430.027344 570.875 421.027344 567.457031 417.546875 563.691406 C 412.828125 558.574219 411.550781 549.007812 404.179688 548.613281 " fill-opacity="1" fill-rule="nonzero"/><path fill="#212851" d="M 387.691406 586.96875 C 387.691406 586.96875 387.519531 589.019531 387.527344 590.625 C 387.53125 591.371094 387.996094 592.035156 388.695312 592.300781 C 390.203125 592.867188 393.519531 593.753906 400.386719 594.3125 C 411.140625 595.1875 419.304688 595.957031 430.578125 597.183594 C 445.519531 598.8125 464.675781 601.667969 464.214844 588.265625 L 387.691406 586.96875 " fill-opacity="1" fill-rule="nonzero"/><path fill="#e5e5e5" d="M 399.96875 565.59375 C 397.273438 564.179688 396.246094 556.640625 395.3125 556.714844 C 394.183594 556.804688 393.410156 557.757812 393.296875 558.878906 C 393.015625 561.78125 392.003906 563.222656 390.816406 566.757812 C 388.007812 575.117188 385.863281 580.789062 387.6875 586.96875 C 387.6875 586.96875 391.746094 591.003906 407.6875 592.164062 C 423.628906 593.328125 431.683594 595.355469 440.945312 596.109375 C 450.203125 596.863281 460.945312 596.363281 463.703125 591.101562 C 466.464844 585.84375 458.660156 580.546875 450.636719 578.109375 C 442.609375 575.675781 426.261719 567.761719 422.820312 564.601562 C 419.375 561.441406 420.085938 559.976562 416.707031 557.910156 C 414.234375 556.398438 411.347656 561.960938 408.734375 565.449219 C 407.253906 568.0625 403.222656 567.300781 399.96875 565.59375 " fill-opacity="1" fill-rule="nonzero"/><path fill="#ed9c8c" d="M 269.628906 404.0625 C 270.21875 396.730469 275.828125 387.617188 283.054688 386.203125 C 295.519531 383.757812 323.078125 379.800781 361.597656 378.335938 C 412.855469 376.382812 437.847656 379.40625 439.027344 406.863281 C 439.320312 412.421875 432.878906 423.460938 398.800781 431.945312 C 364.722656 440.433594 346.910156 441.128906 321.769531 444.289062 C 296.628906 447.445312 277.425781 444.207031 272.332031 425.753906 C 270 417.304688 269.15625 409.910156 269.628906 404.0625 " fill-opacity="1" fill-rule="nonzero"/><path fill="#121d3f" d="M 313.332031 379.679688 C 313.332031 379.679688 373.8125 376.386719 386.4375 376.796875 C 399.066406 377.203125 428.152344 377.382812 432.628906 389.382812 C 432.628906 389.382812 423.5 385.054688 410.410156 397.933594 C 397.316406 410.808594 389.945312 428.644531 389.398438 435.035156 C 389.398438 435.035156 358.785156 443.28125 330.125 445.953125 C 301.460938 448.621094 269.492188 451.011719 266.710938 413.246094 C 266.125 401.867188 259.375 381.976562 313.332031 379.679688 " fill-opacity="1" fill-rule="nonzero"/><path fill="#f6af9a" d="M 324.605469 444.429688 C 324.605469 444.429688 323.761719 456.773438 333.242188 487.46875 C 342.722656 518.167969 348.441406 532.15625 362.714844 555.191406 C 376.992188 578.226562 381.78125 592.898438 391.402344 591.210938 C 403.8125 589.03125 395.769531 566.25 388.667969 538.375 C 380.839844 507.652344 376.25 448.773438 368.242188 432.488281 C 360.777344 417.300781 326.410156 424.015625 324.605469 444.429688 " fill-opacity="1" fill-rule="nonzero"/><path fill="#f6af9a" d="M 394.601562 571.554688 C 389.773438 566.871094 381.785156 568.828125 379.519531 575.160156 C 379.082031 576.371094 378.753906 577.785156 378.597656 579.425781 C 377.820312 587.785156 376.675781 589.386719 374.621094 596.886719 C 372.558594 604.390625 375.363281 610.703125 384.996094 612.339844 C 394.628906 613.976562 413.136719 613.691406 426.957031 614.996094 C 440.777344 616.304688 450.292969 613.941406 450.824219 608.574219 C 451.355469 603.210938 441.664062 598.601562 430.601562 595.089844 C 419.535156 591.582031 407.800781 587.085938 403.054688 582.824219 C 398.90625 579.097656 397.917969 574.777344 394.601562 571.554688 " fill-opacity="1" fill-rule="nonzero"/><path fill="#212851" d="M 372.113281 609.496094 C 372.113281 609.496094 371.707031 615.621094 373.113281 616.367188 C 374.523438 617.109375 383.652344 617.40625 392.148438 617.632812 C 400.640625 617.855469 416.945312 618.34375 427.265625 619.429688 C 437.585938 620.515625 452.644531 618.195312 452.941406 611.0625 L 372.113281 609.496094 " fill-opacity="1" fill-rule="nonzero"/><path fill="#ffffff" d="M 377.75 580.390625 C 381.367188 579.375 387.734375 591.933594 392.894531 583.023438 C 392.894531 583.023438 397.53125 573.097656 401.4375 575.546875 C 402.539062 575.625 403.191406 583.132812 411.347656 585.660156 C 414.332031 586.582031 437.453125 595.335938 445.957031 598.300781 C 450.023438 600.132812 453.351562 603.511719 452.941406 611.0625 C 452.941406 611.0625 448.5625 618.6875 428.214844 616.777344 C 407.863281 614.867188 395.429688 615.125 389.523438 614.625 C 383.609375 614.121094 376.238281 614.382812 373.515625 612.066406 C 370.347656 609.375 371.539062 600.8125 373.363281 594.144531 C 374.964844 588.308594 376.90625 587.824219 376.179688 582.820312 C 376.023438 581.730469 376.691406 580.6875 377.75 580.390625 " fill-opacity="1" fill-rule="nonzero"/><path fill="#f6af9a" d="M 217.308594 392.660156 C 217.308594 392.660156 209.003906 425.835938 255.824219 447.753906 C 302.648438 469.675781 331.027344 466.070312 350.949219 462.636719 C 370.871094 459.199219 382.613281 432.421875 349.6875 415.695312 C 320.851562 401.046875 313.128906 401.347656 292.808594 390.21875 C 272.488281 379.085938 227.269531 361.683594 217.308594 392.660156 " fill-opacity="1" fill-rule="nonzero"/><path fill="#212851" d="M 217.089844 385.578125 C 217.089844 385.578125 211.113281 409.257812 221.515625 424.523438 C 231.921875 439.789062 261.578125 454.613281 286.8125 461.695312 C 312.046875 468.777344 322.402344 472.097656 329.265625 473.425781 C 329.265625 473.425781 323.445312 437.578125 346.90625 429.390625 C 360.851562 424.523438 367.449219 431.035156 367.449219 431.035156 C 367.449219 431.035156 366.996094 425.464844 358.75 418.769531 C 352.632812 413.804688 306.292969 393.324219 288.804688 384.25 C 271.316406 375.179688 230.589844 364.339844 217.089844 385.578125 " fill-opacity="1" fill-rule="nonzero"/><path fill="#f6af9a" d="M 342.523438 219.464844 C 342.523438 219.464844 351.179688 227.738281 357.058594 250.15625 C 362.933594 272.574219 374.3125 318.472656 374.105469 327.519531 C 373.898438 336.5625 360.636719 347.0625 349.117188 337.269531 C 337.59375 327.476562 331.007812 301.660156 324.671875 286.09375 C 316.28125 265.488281 313.984375 237.378906 320.1875 227.417969 C 326.390625 217.453125 340.117188 217.4375 342.523438 219.464844 " fill-opacity="1" fill-rule="nonzero"/><path fill="#548ae2" d="M 342.636719 217.621094 C 342.636719 217.621094 353.453125 226.929688 360.875 251.769531 C 367.421875 273.667969 372.082031 288.316406 374.355469 294.511719 C 374.355469 294.511719 368.550781 305.269531 331.128906 317.222656 C 331.128906 317.222656 312.996094 267.425781 313.933594 245.476562 C 314.871094 223.527344 326.648438 212.742188 342.636719 217.621094 " fill-opacity="1" fill-rule="nonzero"/><path fill="#3c71c6" d="M 314.277344 253.703125 C 316.796875 277.863281 331.128906 317.222656 331.128906 317.222656 C 337.589844 315.160156 343.105469 313.132812 347.8125 311.191406 C 348.925781 297.457031 351.199219 278.160156 352.453125 265.488281 C 354.089844 248.964844 350.101562 233.117188 350.101562 233.117188 C 350.101562 233.117188 327.226562 236.203125 314.277344 253.703125 " fill-opacity="1" fill-rule="nonzero"/><path fill="#f6af9a" d="M 361.539062 341.515625 C 364.742188 341.433594 367.914062 340.804688 370.945312 339.757812 C 376.960938 337.675781 388.316406 331.664062 398.988281 322.140625 C 413.507812 309.175781 434.945312 290.089844 433.511719 283.34375 C 432.085938 276.597656 427.074219 279.101562 418.027344 282.402344 C 408.984375 285.703125 378.257812 299.683594 369.03125 306.023438 C 356.449219 314.671875 346.238281 317.554688 347.078125 327.246094 C 347.792969 335.589844 350.605469 341.8125 361.539062 341.515625 " fill-opacity="1" fill-rule="nonzero"/><path fill="#f6af9a" d="M 398.230469 304.589844 C 398.230469 304.589844 391.09375 295.699219 402.84375 289.332031 C 414.640625 282.941406 415.386719 280.152344 418.511719 272.96875 C 421.636719 265.789062 423.910156 264.339844 428.03125 260.742188 C 432.15625 257.144531 436.640625 250.957031 439.03125 251.144531 C 441.425781 251.335938 439.398438 256.058594 437.78125 258.921875 C 436.160156 261.785156 433.777344 264.15625 434.484375 266.300781 C 434.484375 266.300781 442.03125 264.457031 445.71875 262.355469 C 449.402344 260.253906 457.1875 249.25 460.335938 249.75 C 463.484375 250.25 461.472656 252.773438 461.472656 252.773438 C 461.472656 252.773438 466.378906 249.847656 466.003906 254.632812 C 466.003906 254.632812 470.722656 254.101562 467.121094 259.855469 C 467.121094 259.855469 470.761719 259.585938 467.320312 264.960938 C 463.875 270.339844 458.015625 278.570312 452.578125 281.71875 C 447.136719 284.867188 435.796875 287.019531 428.8125 292.742188 C 416.585938 302.769531 408.234375 315.3125 398.230469 304.589844 " fill-opacity="1" fill-rule="nonzero"/><path fill="#e57e73" d="M 434.542969 266.292969 C 434.605469 266.714844 434.640625 267.132812 434.664062 267.554688 C 434.683594 267.976562 434.695312 268.398438 434.691406 268.824219 C 434.683594 269.246094 434.660156 269.671875 434.625 270.101562 C 434.582031 270.523438 434.523438 270.949219 434.445312 271.375 C 434.367188 271.800781 434.285156 272.226562 434.175781 272.65625 C 434.058594 273.082031 433.882812 273.5 433.636719 273.878906 C 433.398438 274.257812 433.097656 274.613281 432.742188 274.902344 C 432.390625 275.191406 431.984375 275.429688 431.539062 275.53125 C 431.507812 275.539062 431.472656 275.515625 431.464844 275.484375 C 431.460938 275.464844 431.464844 275.449219 431.472656 275.433594 C 431.953125 274.691406 432.300781 274.039062 432.597656 273.316406 C 432.746094 272.964844 432.90625 272.617188 433.074219 272.257812 C 433.246094 271.902344 433.410156 271.53125 433.53125 271.148438 C 433.648438 270.761719 433.753906 270.371094 433.847656 269.972656 C 433.945312 269.574219 434.03125 269.175781 434.105469 268.765625 C 434.261719 267.957031 434.359375 267.132812 434.425781 266.300781 C 434.429688 266.265625 434.457031 266.242188 434.488281 266.246094 C 434.519531 266.246094 434.539062 266.269531 434.542969 266.292969 " fill-opacity="1" fill-rule="nonzero"/><path fill="#e57e73" d="M 461.519531 252.8125 C 460.410156 254.277344 459.238281 255.699219 458.066406 257.117188 C 457.472656 257.820312 456.875 258.519531 456.265625 259.214844 C 455.65625 259.902344 455.042969 260.589844 454.414062 261.265625 C 453.785156 261.941406 453.167969 262.628906 452.527344 263.296875 C 451.882812 263.964844 451.207031 264.601562 450.484375 265.1875 C 449.761719 265.773438 449.003906 266.324219 448.199219 266.8125 C 447.796875 267.054688 447.382812 267.28125 446.949219 267.472656 L 446.625 267.613281 C 446.511719 267.65625 446.398438 267.699219 446.285156 267.734375 C 446.066406 267.816406 445.824219 267.859375 445.597656 267.910156 C 445.566406 267.914062 445.535156 267.894531 445.527344 267.863281 C 445.523438 267.839844 445.535156 267.8125 445.554688 267.800781 C 446.34375 267.316406 447.027344 266.734375 447.710938 266.140625 C 448.386719 265.542969 449.042969 264.917969 449.707031 264.300781 C 450.367188 263.675781 451.03125 263.054688 451.714844 262.453125 C 452.402344 261.855469 453.078125 261.238281 453.738281 260.605469 C 454.398438 259.972656 455.046875 259.324219 455.695312 258.675781 C 456.34375 258.03125 456.988281 257.375 457.625 256.722656 C 458.914062 255.414062 460.171875 254.078125 461.429688 252.738281 C 461.453125 252.710938 461.488281 252.707031 461.515625 252.730469 C 461.535156 252.753906 461.539062 252.785156 461.519531 252.8125 " fill-opacity="1" fill-rule="nonzero"/><path fill="#e57e73" d="M 466.046875 254.671875 C 465.398438 255.460938 464.738281 256.238281 464.0625 257.007812 C 463.394531 257.777344 462.714844 258.542969 462.027344 259.296875 C 461.339844 260.054688 460.640625 260.800781 459.941406 261.546875 L 458.871094 262.648438 L 457.789062 263.738281 L 456.707031 264.824219 C 456.339844 265.183594 455.984375 265.554688 455.609375 265.910156 C 455.238281 266.261719 454.863281 266.613281 454.480469 266.953125 C 454.09375 267.289062 453.6875 267.609375 453.289062 267.933594 C 452.886719 268.257812 452.472656 268.558594 452.050781 268.855469 C 451.628906 269.148438 451.214844 269.457031 450.769531 269.71875 C 450.332031 269.992188 449.898438 270.269531 449.441406 270.515625 C 448.980469 270.75 448.519531 270.988281 448.046875 271.199219 C 448.019531 271.210938 447.980469 271.199219 447.96875 271.167969 C 447.960938 271.140625 447.96875 271.113281 447.984375 271.097656 C 447.988281 271.097656 452.53125 267.027344 452.53125 267.027344 C 452.90625 266.6875 453.289062 266.355469 453.671875 266.023438 C 454.050781 265.691406 454.4375 265.359375 454.828125 265.039062 C 455.222656 264.722656 455.601562 264.382812 455.992188 264.058594 C 456.382812 263.726562 456.765625 263.394531 457.140625 263.050781 L 458.269531 262.027344 L 459.386719 260.988281 C 460.128906 260.292969 460.871094 259.597656 461.605469 258.886719 C 463.082031 257.484375 464.527344 256.046875 465.960938 254.59375 C 465.984375 254.570312 466.019531 254.570312 466.042969 254.589844 C 466.066406 254.613281 466.066406 254.648438 466.046875 254.671875 " fill-opacity="1" fill-rule="nonzero"/><path fill="#e57e73" d="M 467.167969 259.894531 C 466.160156 261.15625 465.101562 262.378906 464.042969 263.601562 C 463.507812 264.207031 462.96875 264.8125 462.425781 265.410156 C 461.878906 266.003906 461.328125 266.601562 460.765625 267.183594 L 459.09375 268.953125 C 458.8125 269.246094 458.519531 269.523438 458.222656 269.804688 L 457.769531 270.214844 L 457.296875 270.601562 C 456.671875 271.121094 456 271.59375 455.320312 272.050781 C 454.972656 272.265625 454.617188 272.472656 454.261719 272.679688 C 453.890625 272.863281 453.519531 273.042969 453.136719 273.199219 C 453.105469 273.210938 453.074219 273.195312 453.058594 273.164062 C 453.050781 273.140625 453.058594 273.117188 453.074219 273.097656 C 453.074219 273.097656 456.515625 269.71875 456.515625 269.71875 L 457.390625 268.894531 C 457.683594 268.625 457.992188 268.367188 458.292969 268.101562 C 458.902344 267.578125 459.515625 267.058594 460.101562 266.511719 C 460.695312 265.96875 461.28125 265.414062 461.867188 264.859375 C 462.453125 264.308594 463.035156 263.753906 463.613281 263.195312 C 464.785156 262.082031 465.929688 260.949219 467.078125 259.8125 C 467.101562 259.792969 467.140625 259.792969 467.164062 259.8125 C 467.1875 259.835938 467.1875 259.871094 467.167969 259.894531 " fill-opacity="1" fill-rule="nonzero"/><path fill="#e57e73" d="M 432.589844 277.777344 C 433.507812 276.929688 434.582031 276.277344 435.703125 275.738281 C 436.824219 275.195312 438.015625 274.792969 439.238281 274.515625 C 439.84375 274.363281 440.46875 274.285156 441.085938 274.199219 C 441.398438 274.171875 441.710938 274.152344 442.023438 274.136719 C 442.179688 274.128906 442.335938 274.113281 442.492188 274.109375 L 442.960938 274.121094 C 444.210938 274.117188 445.457031 274.347656 446.636719 274.726562 C 445.390625 274.839844 444.199219 274.871094 443.007812 275.050781 L 442.566406 275.101562 C 442.417969 275.117188 442.273438 275.148438 442.125 275.171875 C 441.832031 275.222656 441.535156 275.257812 441.242188 275.308594 C 440.660156 275.429688 440.074219 275.523438 439.496094 275.667969 C 438.339844 275.929688 437.1875 276.234375 436.042969 276.597656 C 434.894531 276.953125 433.757812 277.351562 432.589844 277.777344 " fill-opacity="1" fill-rule="nonzero"/><path fill="#f7bead" d="M 299.15625 201.367188 C 299.15625 201.367188 268.160156 196.238281 247.25 207.769531 C 226.34375 219.296875 232.472656 257.191406 237.082031 279.277344 C 241.6875 301.367188 240.21875 320.382812 240.5625 339.78125 C 240.90625 359.179688 245.203125 378.148438 280.195312 382.433594 C 315.1875 386.722656 323.730469 364.902344 327.269531 352.066406 C 330.804688 339.230469 336.578125 299.628906 342.230469 280 C 347.878906 260.371094 355.554688 224.457031 336.378906 214.320312 C 317.199219 204.183594 309.65625 203.4375 299.15625 201.367188 " fill-opacity="1" fill-rule="nonzero"/><path fill="#548ae2" d="M 238.550781 211.78125 C 238.550781 211.78125 246.042969 202.632812 264.445312 199.785156 C 282.847656 196.9375 307.886719 199.140625 327.507812 207.535156 C 331.832031 209.613281 342.875 214.550781 348.226562 224.28125 C 353.578125 234.015625 350.949219 259.164062 347.695312 269.828125 C 344.445312 280.496094 338.667969 311.101562 336.027344 325.261719 C 334.894531 331.191406 331.527344 343.757812 332.445312 363.394531 C 332.625 367.257812 337.496094 377.8125 337.167969 378.054688 C 332.15625 381.796875 299.808594 410.683594 217.164062 386.847656 C 216.328125 386.605469 215.839844 385.734375 216.078125 384.894531 C 216.78125 382.390625 222.601562 363.140625 224.78125 357.792969 C 226.957031 352.445312 232.414062 326.40625 234.464844 316.101562 C 236.515625 305.796875 235.828125 291.925781 233.980469 279.386719 C 232.136719 266.839844 224.292969 230.285156 238.550781 211.78125 " fill-opacity="1" fill-rule="nonzero"/><path fill="#3c71c6" d="M 233.980469 279.382812 C 235.828125 291.929688 236.515625 305.796875 234.460938 316.101562 C 234.386719 316.492188 234.3125 316.882812 234.242188 317.265625 C 240.636719 307.113281 257.570312 279.707031 264.652344 263.285156 C 273.472656 242.835938 271.65625 229.988281 271.65625 229.988281 C 271.65625 229.988281 249.878906 231.730469 230.492188 236.125 C 229.0625 252.992188 232.78125 271.242188 233.980469 279.382812 " fill-opacity="1" fill-rule="nonzero"/><path fill="#f6af9a" d="M 192.84375 323.519531 C 192.84375 323.519531 206.265625 330.210938 231.582031 338.601562 C 256.898438 346.988281 264.523438 348.199219 277.003906 351.292969 C 286.855469 353.730469 289.574219 343.101562 277.777344 336.105469 C 265.984375 329.101562 256.167969 321.863281 239.960938 313.375 C 223.753906 304.886719 209.792969 295.726562 201.949219 296.183594 C 190.851562 296.835938 183.523438 316.691406 192.84375 323.519531 " fill-opacity="1" fill-rule="nonzero"/><path fill="#f6af9a" d="M 256.875 337.921875 C 256.875 337.921875 254.410156 345.375 268.800781 349.605469 C 279.589844 352.773438 284.375 359.8125 291.382812 364.160156 C 298.394531 368.503906 307.121094 368.640625 311.0625 367.71875 C 315.988281 366.558594 326.777344 361.445312 322.277344 357.929688 C 322.277344 357.929688 325.96875 353.492188 322.148438 352.144531 C 322.148438 352.144531 323.613281 348.027344 320.289062 346.964844 C 319.238281 346.625 318.15625 346.917969 317.089844 347.203125 C 314.257812 347.960938 308.832031 348.125 305.195312 347.664062 C 302.359375 347.304688 297.792969 344.875 293.75 342.03125 C 291.890625 340.726562 292.289062 338.070312 294.296875 337.003906 C 299.808594 334.085938 310.117188 337.105469 310.050781 333.167969 C 310.03125 332.109375 309.523438 330.609375 306.242188 329.625 C 300.738281 327.972656 295.960938 328.9375 292.914062 329.363281 C 290.503906 329.699219 279.101562 332.832031 269.96875 330.804688 C 262.140625 329.070312 257.144531 330.058594 256.875 337.921875 " fill-opacity="1" fill-rule="nonzero"/><path fill="#e57e73" d="M 322.140625 352.105469 C 320.308594 352.433594 318.472656 352.734375 316.628906 353 C 314.789062 353.265625 312.945312 353.515625 311.101562 353.699219 C 309.253906 353.886719 307.398438 354.007812 305.5625 353.988281 C 303.734375 353.964844 301.914062 353.898438 300.058594 353.65625 L 300.03125 353.734375 C 300.886719 354.164062 301.808594 354.414062 302.738281 354.582031 C 303.671875 354.75 304.625 354.835938 305.566406 354.789062 C 307.457031 354.734375 309.3125 354.511719 311.167969 354.261719 C 313.015625 354.007812 314.855469 353.699219 316.6875 353.347656 C 318.519531 352.996094 320.34375 352.617188 322.15625 352.183594 L 322.140625 352.105469 " fill-opacity="1" fill-rule="nonzero"/><path fill="#e57e73" d="M 322.257812 357.898438 C 320.496094 358.566406 318.714844 359.171875 316.914062 359.722656 C 315.121094 360.28125 313.308594 360.785156 311.476562 361.144531 C 310.558594 361.328125 309.636719 361.449219 308.714844 361.523438 C 308.25 361.554688 307.785156 361.589844 307.320312 361.609375 C 306.855469 361.640625 306.390625 361.660156 305.925781 361.679688 C 304.0625 361.761719 302.195312 361.753906 300.320312 361.582031 L 300.296875 361.660156 C 301.203125 361.96875 302.140625 362.15625 303.085938 362.28125 C 304.035156 362.410156 304.984375 362.464844 305.941406 362.472656 C 306.894531 362.480469 307.847656 362.410156 308.792969 362.300781 C 309.742188 362.164062 310.6875 361.992188 311.609375 361.761719 C 313.457031 361.316406 315.261719 360.734375 317.039062 360.097656 C 318.816406 359.445312 320.566406 358.738281 322.289062 357.96875 L 322.257812 357.898438 " fill-opacity="1" fill-rule="nonzero"/><path fill="#f6af9a" d="M 240.761719 210.46875 C 240.761719 210.46875 229.628906 221.058594 211.21875 257.1875 C 192.8125 293.316406 180.410156 314.113281 192.722656 323.273438 C 205.039062 332.429688 227.269531 302.628906 238.542969 288.761719 C 249.820312 274.890625 272.324219 238.941406 270.570312 222.859375 C 268.816406 206.773438 255.203125 199.199219 240.761719 210.46875 " fill-opacity="1" fill-rule="nonzero"/><path fill="#548ae2" d="M 235.886719 212.4375 C 235.886719 212.4375 209.148438 244.761719 192.101562 282.589844 C 192.101562 282.589844 203.433594 299.03125 233.460938 306.511719 C 233.460938 306.511719 258.589844 267.175781 267.136719 250.105469 C 275.679688 233.039062 277.105469 204.882812 254.828125 203.082031 C 249.894531 203.273438 243.460938 206.550781 235.886719 212.4375 " fill-opacity="1" fill-rule="nonzero"/><path fill="#f6af9a" d="M 293.886719 174.292969 C 292.132812 175.941406 291.011719 178.148438 290.605469 180.519531 C 289.914062 184.5 288.039062 193.488281 284.351562 199.078125 C 279.503906 206.425781 290.394531 218.695312 299.660156 219.132812 C 309.703125 219.613281 313.320312 216.367188 315.003906 207.675781 C 316.6875 198.984375 317.011719 197.261719 317.964844 190.25 C 319.484375 179.070312 312.4375 173.023438 306 171.761719 C 300.273438 170.636719 296.472656 171.863281 293.886719 174.292969 " fill-opacity="1" fill-rule="nonzero"/><path fill="#e57e73" d="M 306 171.761719 C 300.273438 170.636719 296.472656 171.863281 293.886719 174.292969 C 292.132812 175.941406 292.238281 177.984375 291.832031 180.355469 C 291.691406 181.152344 296.285156 200.789062 315.101562 207.167969 C 316.703125 198.917969 317.03125 197.125 317.964844 190.25 C 319.484375 179.070312 312.4375 173.023438 306 171.761719 " fill-opacity="1" fill-rule="nonzero"/><path fill="#f6af9a" d="M 305.019531 118.265625 C 305.019531 118.265625 330.234375 114.894531 336.847656 137.007812 C 343.457031 159.128906 340.652344 196.136719 325.882812 199.863281 C 311.113281 203.585938 289.09375 189.472656 281.082031 166.667969 C 273.074219 143.859375 283.382812 119.980469 305.019531 118.265625 " fill-opacity="1" fill-rule="nonzero"/><path fill="#8c4949" d="M 314.351562 124.105469 C 314.351562 124.105469 307.484375 122.09375 307.011719 130.894531 C 306.535156 139.695312 314.464844 148.746094 300.449219 153.742188 C 300.449219 153.742188 297.273438 155.628906 297.363281 161.582031 C 297.453125 167.542969 296.394531 168.105469 292.808594 169.964844 C 292.808594 169.964844 293.726562 187.257812 286.1875 190.140625 C 286.1875 190.140625 287.203125 186.5 286.527344 183.792969 C 286.527344 183.792969 284.378906 185.527344 280.277344 185.511719 C 280.277344 185.511719 283.089844 182.789062 283.589844 181.171875 C 283.589844 181.171875 278.738281 183.578125 273.53125 181.25 C 273.53125 181.25 278.035156 177.589844 277.246094 169.335938 C 277.246094 169.335938 275.339844 170.464844 271.449219 170.257812 C 271.449219 170.257812 276.496094 164.164062 274.835938 156.886719 C 273.171875 149.613281 269.503906 114.71875 304.136719 115.546875 C 304.136719 115.546875 317.015625 108.847656 331.308594 117.828125 C 345.601562 126.804688 344.074219 149.511719 344.074219 149.511719 C 344.074219 149.511719 342.761719 151.082031 339.769531 149.488281 C 339.769531 149.488281 339.941406 151.957031 341.738281 152.875 C 341.738281 152.875 330.421875 153.503906 327.210938 144.5 C 327.210938 144.5 323.832031 142.472656 323.546875 136.296875 C 323.261719 130.121094 323.636719 123.160156 314.351562 124.105469 " fill-opacity="1" fill-rule="nonzero"/><path fill="#7f3d3d" d="M 286.148438 164.046875 C 286.015625 164.042969 285.878906 163.988281 285.773438 163.886719 C 285.527344 163.664062 285.511719 163.28125 285.738281 163.039062 C 290.679688 157.714844 290.367188 150.921875 289.742188 147.347656 C 289.660156 146.890625 289.570312 146.40625 289.476562 145.894531 C 288.4375 140.335938 286.871094 131.929688 292.261719 125.035156 C 298.742188 116.746094 307.476562 118.746094 307.566406 118.765625 C 307.890625 118.84375 308.085938 119.167969 308.011719 119.492188 C 307.933594 119.8125 307.449219 119.722656 307.128906 119.644531 C 306.796875 119.566406 299.199219 118.117188 293.210938 125.777344 C 288.15625 132.242188 289.664062 140.324219 290.65625 145.675781 C 290.753906 146.191406 290.847656 146.675781 290.925781 147.140625 C 292.074219 153.695312 290.542969 159.632812 286.621094 163.859375 C 286.496094 163.992188 286.320312 164.058594 286.148438 164.046875 " fill-opacity="1" fill-rule="nonzero"/><path fill="#7f3d3d" d="M 314.386719 123.042969 C 314.347656 122.976562 310.570312 117.03125 304.542969 119.121094 C 301.601562 120.136719 299.179688 122.507812 297.714844 125.792969 C 296.238281 129.121094 295.855469 133.195312 296.644531 137.261719 C 297.230469 140.296875 298.183594 142.652344 299.023438 144.734375 C 300.46875 148.308594 301.425781 150.675781 299.382812 153.757812 C 299.203125 154.023438 299.269531 154.378906 299.523438 154.566406 C 300.039062 153.984375 300.449219 153.746094 300.449219 153.746094 C 300.597656 153.691406 300.738281 153.636719 300.882812 153.585938 C 302.589844 150.351562 301.496094 147.644531 300.140625 144.28125 C 299.320312 142.253906 298.390625 139.957031 297.828125 137.03125 C 296.347656 129.386719 299.402344 122.171875 304.933594 120.253906 C 310.042969 118.484375 313.308594 123.589844 313.367188 123.679688 C 313.429688 123.777344 313.535156 123.882812 313.660156 123.96875 C 314.085938 124.027344 314.347656 124.105469 314.347656 124.105469 C 314.632812 123.925781 314.5625 123.324219 314.386719 123.042969 " fill-opacity="1" fill-rule="nonzero"/><path fill="#7f3d3d" d="M 302.34375 119.597656 C 302.675781 119.609375 302.957031 119.632812 302.96875 119.304688 C 302.976562 118.972656 302.726562 118.699219 302.398438 118.683594 C 302.191406 118.675781 297.640625 118.5625 292.699219 120.914062 C 288.121094 123.089844 282.371094 127.867188 280.980469 138.277344 C 280.246094 143.773438 280.492188 148.632812 280.714844 152.921875 C 281.082031 160.109375 281.347656 165.304688 276.875 168.863281 C 276.652344 169.035156 276.589844 169.339844 276.703125 169.582031 C 277.066406 169.441406 277.25 169.332031 277.25 169.332031 C 277.265625 169.535156 277.277344 169.734375 277.292969 169.933594 C 277.410156 169.921875 277.523438 169.882812 277.621094 169.804688 C 282.582031 165.859375 282.289062 160.125 281.914062 152.859375 C 281.699219 148.625 281.453125 143.824219 282.171875 138.4375 C 283.230469 130.527344 286.933594 125.003906 293.171875 122.023438 C 297.855469 119.78125 302.300781 119.597656 302.34375 119.597656 " fill-opacity="1" fill-rule="nonzero"/><path fill="#7f3d3d" d="M 304.191406 115.539062 C 306.378906 115.738281 311.832031 115.910156 314.351562 124.101562 C 310.105469 116.910156 305.09375 116.160156 304.191406 115.539062 " fill-opacity="1" fill-rule="nonzero"/><path fill="#7f3d3d" d="M 313.703125 122.53125 C 313.414062 122.695312 313.308594 123.0625 313.472656 123.347656 C 313.632812 123.640625 314 123.742188 314.289062 123.578125 C 314.351562 123.546875 320.308594 120.285156 324.816406 124.507812 C 327.652344 127.160156 327.164062 131.921875 326.695312 136.523438 C 326.421875 139.1875 326.164062 141.71875 326.496094 143.914062 C 326.917969 144.324219 327.210938 144.5 327.210938 144.5 C 327.277344 144.691406 327.351562 144.878906 327.425781 145.058594 C 327.699219 144.953125 327.863281 144.664062 327.800781 144.375 C 327.324219 142.207031 327.597656 139.503906 327.890625 136.644531 C 328.390625 131.75 328.910156 126.691406 325.640625 123.632812 C 320.492188 118.8125 313.769531 122.496094 313.703125 122.53125 " fill-opacity="1" fill-rule="nonzero"/><path fill="#7f3d3d" d="M 340.117188 148.996094 C 336.957031 146.722656 336.765625 142.21875 336.566406 137.453125 C 336.320312 131.605469 336.039062 124.972656 330.226562 120.949219 C 324.757812 117.164062 319.890625 116.804688 316.773438 117.171875 C 313.371094 117.570312 311.289062 118.871094 311.199219 118.925781 C 310.921875 119.101562 310.835938 119.476562 311.015625 119.757812 C 311.191406 120.035156 311.5625 120.121094 311.84375 119.945312 C 312.160156 119.746094 319.726562 115.144531 329.542969 121.941406 C 334.863281 125.621094 335.117188 131.660156 335.359375 137.503906 C 335.574219 142.570312 335.777344 147.363281 339.417969 149.972656 C 339.511719 150.046875 339.625 150.078125 339.734375 150.085938 C 339.777344 150.089844 339.820312 150.082031 339.863281 150.078125 C 339.785156 149.726562 339.769531 149.484375 339.769531 149.484375 C 339.953125 149.585938 340.132812 149.675781 340.304688 149.75 C 340.433594 149.488281 340.359375 149.171875 340.117188 148.996094 " fill-opacity="1" fill-rule="nonzero"/><path fill="#e8e8e8" d="M 326.792969 168.378906 C 331.554688 166.492188 337.300781 168.457031 339.839844 169.039062 C 340.214844 169.125 340.472656 169.46875 340.460938 169.851562 C 340.300781 174.207031 338.773438 197.894531 324.425781 200.566406 C 310.3125 203.199219 301.808594 194.816406 299.289062 191.835938 C 298.824219 191.289062 298.914062 190.460938 299.480469 190.019531 C 302.414062 187.730469 308.488281 183.5625 303.011719 171.5 C 302.753906 170.933594 303.226562 170.296875 303.851562 170.328125 C 308.003906 170.53125 320.433594 170.894531 326.792969 168.378906 " fill-opacity="1" fill-rule="nonzero"/><path fill="#e8e8e8" d="M 299.613281 190.984375 C 299.460938 190.984375 299.3125 190.917969 299.21875 190.789062 C 293.898438 183.773438 286.425781 167.640625 288.710938 164.722656 C 289.027344 164.320312 289.644531 163.945312 290.8125 164.445312 C 296.277344 166.785156 303.761719 170.523438 303.835938 170.5625 C 304.078125 170.683594 304.179688 170.976562 304.054688 171.222656 C 303.933594 171.464844 303.640625 171.5625 303.394531 171.441406 C 303.320312 171.402344 295.863281 167.679688 290.421875 165.351562 C 289.707031 165.046875 289.539062 165.257812 289.484375 165.328125 C 288.878906 166.109375 289.40625 169.605469 291.957031 175.667969 C 294.238281 181.089844 297.320312 186.65625 300.003906 190.195312 C 300.167969 190.410156 300.125 190.71875 299.910156 190.886719 C 299.820312 190.953125 299.714844 190.984375 299.613281 190.984375 " fill-opacity="1" fill-rule="nonzero"/><path fill="#f6af9a" d="M 295.179688 164.910156 C 295.179688 164.910156 292.929688 157.195312 286.042969 159.289062 C 279.160156 161.382812 287.261719 178.652344 293.101562 176.914062 C 298.941406 175.175781 295.179688 164.910156 295.179688 164.910156 " fill-opacity="1" fill-rule="nonzero"/><path fill="#e57e73" d="M 292.078125 173.058594 C 291.726562 173.035156 291.472656 172.742188 291.496094 172.402344 C 291.933594 166.046875 288.492188 164.675781 288.347656 164.621094 C 288.03125 164.5 287.867188 164.148438 287.984375 163.832031 C 288.101562 163.515625 288.449219 163.351562 288.765625 163.464844 C 288.949219 163.53125 293.222656 165.152344 292.722656 172.488281 C 292.699219 172.820312 292.410156 173.078125 292.078125 173.058594 " fill-opacity="1" fill-rule="nonzero"/><path fill="#e57e73" d="M 291.816406 170.273438 C 291.675781 170.265625 291.535156 170.210938 291.425781 170.105469 C 289.808594 168.574219 288.105469 169.261719 288.035156 169.289062 C 287.722656 169.421875 287.363281 169.273438 287.230469 168.964844 C 287.097656 168.652344 287.238281 168.296875 287.550781 168.160156 C 287.652344 168.117188 290.050781 167.109375 292.269531 169.214844 C 292.519531 169.449219 292.527344 169.835938 292.292969 170.082031 C 292.164062 170.21875 291.988281 170.285156 291.816406 170.273438 " fill-opacity="1" fill-rule="nonzero"/><g clip-path="url(#7169fe4b6e)"><path fill="#548ae2" d="M 736.257812 227.121094 C 736.257812 227.121094 787.773438 223.867188 788.855469 246.089844 C 789.9375 268.316406 782.886719 332.277344 770.964844 380.519531 C 759.035156 428.757812 747.101562 469.414062 746.5625 482.964844 C 746.019531 496.515625 674.445312 506.273438 615.339844 482.964844 C 607.203125 477.542969 608.832031 467.246094 611.003906 455.859375 C 613.171875 444.480469 622.933594 401.113281 624.554688 381.601562 C 626.183594 362.085938 657.398438 248.179688 688 236.875 C 712.941406 227.660156 736.257812 227.121094 736.257812 227.121094 " fill-opacity="1" fill-rule="nonzero"/></g><g clip-path="url(#2478fcf7a3)"><path fill="#3c71c6" d="M 723.90625 494.460938 C 737.664062 491.894531 746.371094 487.65625 746.5625 482.964844 C 747.101562 469.414062 759.035156 428.757812 770.964844 380.519531 C 782.886719 332.277344 789.9375 268.316406 788.855469 246.089844 C 787.773438 223.867188 736.257812 227.121094 736.257812 227.121094 C 736.257812 227.121094 720.542969 227.488281 701.117188 232.714844 C 729.230469 231.621094 767.65625 232.929688 776.078125 242.964844 C 789.800781 259.320312 726.457031 485.164062 726.457031 485.164062 C 726.457031 485.164062 725.402344 488.882812 723.90625 494.460938 " fill-opacity="1" fill-rule="nonzero"/></g><path fill="#2e3b72" d="M 634.726562 614.804688 L 649.636719 614.804688 L 649.636719 552.324219 L 634.726562 552.324219 L 634.726562 614.804688 " fill-opacity="1" fill-rule="nonzero"/><path fill="#212851" d="M 664.308594 510.9375 L 659.347656 542.261719 C 658.664062 549.125 652.886719 554.359375 645.984375 554.359375 L 637.011719 554.359375 C 629.976562 554.359375 624.132812 548.921875 623.625 541.902344 L 620.039062 510.9375 L 664.308594 510.9375 " fill-opacity="1" fill-rule="nonzero"/><path fill="#2e3b72" d="M 577.769531 633.238281 L 583.808594 621.402344 C 588.253906 612.699219 597.199219 607.222656 606.972656 607.222656 L 677.359375 607.222656 C 687.132812 607.222656 696.085938 612.699219 700.523438 621.402344 L 706.5625 633.238281 L 693.683594 633.238281 L 691.925781 629.984375 C 688.589844 623.808594 682.132812 619.960938 675.105469 619.960938 L 609.234375 619.960938 C 602.222656 619.960938 595.769531 623.796875 592.425781 629.957031 L 590.648438 633.238281 L 577.769531 633.238281 " fill-opacity="1" fill-rule="nonzero"/><path fill="#2e3b72" d="M 636.324219 612.238281 L 649.082031 612.238281 L 649.082031 639.34375 L 636.324219 639.34375 L 636.324219 612.238281 " fill-opacity="1" fill-rule="nonzero"/><path fill="#253568" d="M 690.078125 641.230469 C 690.078125 647.179688 694.902344 652.003906 700.851562 652.003906 C 706.808594 652.003906 711.628906 647.179688 711.628906 641.230469 C 711.628906 635.28125 706.808594 630.460938 700.851562 630.460938 C 694.902344 630.460938 690.078125 635.28125 690.078125 641.230469 " fill-opacity="1" fill-rule="nonzero"/><path fill="#253568" d="M 573.023438 641.230469 C 573.023438 647.179688 577.851562 652.003906 583.804688 652.003906 C 589.757812 652.003906 594.578125 647.179688 594.578125 641.230469 C 594.578125 635.28125 589.757812 630.457031 583.804688 630.457031 C 577.851562 630.457031 573.023438 635.28125 573.023438 641.230469 " fill-opacity="1" fill-rule="nonzero"/><path fill="#253568" d="M 631.921875 641.230469 C 631.921875 647.179688 636.75 652.003906 642.699219 652.003906 C 648.65625 652.003906 653.476562 647.179688 653.476562 641.230469 C 653.476562 635.28125 648.65625 630.460938 642.699219 630.460938 C 636.75 630.460938 631.921875 635.28125 631.921875 641.230469 " fill-opacity="1" fill-rule="nonzero"/><path fill="#3c71c6" d="M 742.765625 485.675781 C 742.765625 485.675781 745.042969 493.207031 745.042969 503.5625 C 745.042969 523.039062 708.421875 534.246094 633.5 530.746094 C 615.15625 529.886719 597.042969 526.128906 579.964844 519.386719 C 566.636719 514.125 553.324219 506.847656 548.101562 497.597656 C 548.101562 497.597656 539.917969 461.082031 555.691406 456.402344 C 570.984375 451.871094 704.265625 411.414062 742.765625 485.675781 " fill-opacity="1" fill-rule="nonzero"/><path fill="#548ae2" d="M 549.179688 461.863281 C 559.332031 473.253906 590.023438 529.273438 739.558594 480.085938 C 697.382812 413.503906 570.585938 451.988281 555.695312 456.402344 C 552.765625 457.269531 550.664062 459.238281 549.179688 461.863281 " fill-opacity="1" fill-rule="nonzero"/><path fill="#f7bead" d="M 603.996094 230.984375 C 603.996094 230.984375 593.929688 241.277344 584.335938 264.191406 C 574.738281 287.113281 558.851562 326.023438 557.722656 335.652344 C 556.589844 345.285156 568.363281 357.0625 582.058594 348.390625 C 595.753906 339.71875 603.8125 324.746094 613.183594 309.359375 C 633.144531 276.578125 633.964844 250.707031 628.871094 239.203125 C 623.777344 227.707031 609.480469 225.03125 603.996094 230.984375 " fill-opacity="1" fill-rule="nonzero"/><path fill="#81d9e9" d="M 601.949219 232.566406 C 601.949219 232.566406 594.28125 238.050781 575.429688 282.152344 C 556.582031 326.257812 556.859375 334.1875 556.363281 338.851562 C 555.726562 344.8125 566.53125 363.828125 579.152344 358.582031 C 591.773438 353.335938 603.914062 331.125 611.964844 316.984375 C 620.011719 302.847656 627.789062 286.28125 631.351562 265.695312 C 634.910156 245.109375 628.4375 231.582031 618.511719 228.109375 C 608.582031 224.640625 601.949219 232.566406 601.949219 232.566406 " fill-opacity="1" fill-rule="nonzero"/><path fill="#81cfe5" d="M 597.820312 245.328125 C 597.820312 245.328125 594.085938 248.878906 590.882812 277.324219 C 588.046875 302.519531 588.976562 334.6875 588.238281 352.085938 C 597.441406 342.988281 605.875 327.679688 611.960938 316.984375 C 619.089844 304.460938 626.007812 290.027344 629.96875 272.589844 C 620.015625 257.480469 606.769531 245.496094 597.820312 245.328125 " fill-opacity="1" fill-rule="nonzero"/><path fill="#f7bead" d="M 563.078125 355.984375 C 563.078125 355.984375 543.347656 342.847656 524.476562 327.820312 C 507.6875 314.457031 493.847656 299.601562 495.4375 292.167969 C 497.027344 284.734375 507.675781 286.617188 517.199219 291.300781 C 531.023438 298.097656 545.84375 305.859375 556.46875 312.136719 C 571.324219 320.917969 587.011719 328.335938 587.511719 339.046875 C 588.167969 352.890625 578.398438 361.511719 563.078125 355.984375 " fill-opacity="1" fill-rule="nonzero"/><path fill="#81d9e9" d="M 588.882812 349.300781 C 588.882812 349.300781 593.585938 334.863281 583.449219 326.867188 C 573.320312 318.867188 541.152344 297.445312 514.710938 286.230469 C 514.710938 286.230469 504.449219 297.171875 499.941406 307.640625 C 499.941406 307.640625 548.867188 351.066406 564.527344 357.847656 C 566.640625 358.777344 583.324219 363.507812 588.882812 349.300781 " fill-opacity="1" fill-rule="nonzero"/><path fill="#81cfe5" d="M 563.167969 312.769531 C 549.082031 303.699219 530.828125 293.066406 514.707031 286.230469 C 514.707031 286.230469 504.445312 297.175781 499.941406 307.640625 C 499.941406 307.640625 521.546875 326.820312 540.640625 341.679688 C 541.199219 341.5625 541.75 341.457031 542.289062 341.355469 C 554.371094 339.097656 566.859375 341.683594 577.054688 348.542969 L 585.777344 354.417969 C 585.863281 354.320312 585.957031 354.222656 586.042969 354.121094 C 591.152344 349.707031 596.066406 343.167969 600.527344 336.292969 L 603.707031 311.511719 L 568.914062 297.820312 C 566.578125 303.625 564.691406 308.558594 563.167969 312.769531 " fill-opacity="1" fill-rule="nonzero"/><path fill="#f6af9a" d="M 513.15625 586.546875 C 518.492188 581.550781 527.132812 583.835938 529.472656 590.761719 C 529.921875 592.085938 530.253906 593.628906 530.390625 595.414062 C 531.074219 604.511719 532.285156 606.273438 534.375 614.464844 C 536.464844 622.65625 533.292969 629.464844 522.796875 631.054688 C 512.304688 632.644531 492.191406 631.972656 477.152344 633.125 C 462.109375 634.277344 451.808594 631.523438 451.339844 625.679688 C 450.867188 619.839844 461.484375 615.019531 473.578125 611.421875 C 485.667969 607.824219 498.507812 603.164062 503.75 598.628906 C 508.328125 594.660156 509.484375 589.984375 513.15625 586.546875 " fill-opacity="1" fill-rule="nonzero"/><path fill="#eaeaea" d="M 448.765625 627.90625 C 448.765625 627.90625 449.285156 634.328125 449.824219 635.003906 C 450.363281 635.679688 456.988281 640.8125 481.582031 639.191406 C 506.179688 637.570312 523.75 638.246094 530.371094 638.515625 L 532.28125 638.515625 C 534.015625 638.515625 535.371094 637.027344 535.214844 635.304688 L 534.832031 631.085938 L 448.765625 627.90625 " fill-opacity="1" fill-rule="nonzero"/><path fill="#81d9e9" d="M 495.773438 602.039062 C 495.773438 602.039062 500.371094 601.769531 505.640625 610.28125 C 505.640625 610.28125 514.15625 612.441406 522.9375 608.660156 C 527.605469 606.652344 530.476562 604.507812 531.820312 604.800781 C 532.886719 605.03125 535.421875 616.636719 535.777344 623.117188 C 536.046875 627.976562 534.832031 631.085938 534.832031 631.085938 C 534.832031 631.085938 523.34375 632.976562 504.019531 633.652344 C 484.691406 634.328125 456.042969 636.761719 450.230469 630.277344 C 444.417969 623.792969 453.355469 617.675781 460.230469 615.144531 C 473.070312 610.414062 495.773438 602.039062 495.773438 602.039062 " fill-opacity="1" fill-rule="nonzero"/><path fill="#6ecbe5" d="M 495.773438 602.039062 C 495.773438 602.039062 480.429688 607.699219 467.835938 612.34375 C 471.851562 616.332031 473.582031 617.625 479.421875 616.628906 C 485.773438 615.550781 505.640625 610.28125 505.640625 610.28125 C 500.367188 601.769531 495.773438 602.039062 495.773438 602.039062 " fill-opacity="1" fill-rule="nonzero"/><path fill="#f6af9a" d="M 650.738281 415.945312 C 650.738281 415.945312 656.296875 456.210938 610.964844 468.566406 C 556.757812 483.339844 524.410156 474.390625 503.667969 467.148438 C 482.929688 459.902344 475.121094 429.101562 513.414062 417.050781 C 546.945312 406.5 554.65625 404.484375 578.992188 398.019531 C 609.796875 389.832031 645.597656 380.957031 650.738281 415.945312 " fill-opacity="1" fill-rule="nonzero"/><path fill="#172244" d="M 485.539062 444.617188 C 485.539062 444.617188 483.914062 430.734375 501.449219 420.703125 C 518.988281 410.671875 549.496094 404.898438 570.878906 398.820312 C 592.265625 392.738281 625.617188 385.039062 636.765625 391.523438 C 647.914062 398.007812 657.644531 416.042969 649.539062 436.714844 C 641.429688 457.382812 622.472656 472.480469 581.121094 475.621094 C 539.761719 478.761719 516.144531 475.417969 497.601562 465.1875 C 493.644531 463.160156 486.042969 455.660156 485.539062 444.617188 " fill-opacity="1" fill-rule="nonzero"/><path fill="#121d3f" d="M 539.304688 442.109375 L 534.65625 475.863281 C 539.019531 476.304688 543.679688 476.578125 548.683594 476.695312 C 546.554688 449.359375 539.304688 442.109375 539.304688 442.109375 " fill-opacity="1" fill-rule="nonzero"/><path fill="#f6af9a" d="M 535.421875 439.78125 C 535.421875 439.78125 540.601562 452.191406 541.578125 487.097656 C 542.550781 522 541.964844 541.992188 535.324219 570.683594 C 528.6875 599.375 530.867188 607.113281 517.621094 608.503906 C 504.003906 609.9375 505.953125 590.121094 500.234375 559.378906 C 492.289062 516.65625 483.792969 462.296875 486.335938 442.738281 C 488.714844 424.5 526.429688 419.40625 535.421875 439.78125 " fill-opacity="1" fill-rule="nonzero"/><path fill="#172244" d="M 486.753906 436.410156 C 486.753906 436.410156 483.8125 443.503906 485.332031 463.867188 C 486.855469 484.234375 497.597656 562.050781 500.234375 585.152344 C 500.234375 585.152344 519.085938 591.433594 534.898438 585.355469 C 534.898438 585.355469 543.007812 549.082031 543.007812 519.292969 C 543.007812 489.503906 543.210938 460.726562 539.765625 441.273438 C 536.457031 422.597656 502.53125 411.023438 488.269531 433.109375 C 487.675781 434.03125 487.222656 435.1875 486.753906 436.410156 " fill-opacity="1" fill-rule="nonzero"/><path fill="#212851" d="M 657.09375 344.128906 C 657.09375 344.128906 701.96875 338.308594 705.867188 371.160156 C 706.859375 381.046875 714.96875 403.808594 717.222656 421.820312 C 720.058594 444.515625 715.910156 462.980469 691.859375 479.128906 C 667.8125 495.28125 623.898438 488.859375 615.664062 454.695312 C 607.347656 420.199219 608.359375 412.292969 607.242188 383.65625 C 606.53125 365.503906 631.066406 341.492188 657.09375 344.128906 " fill-opacity="1" fill-rule="nonzero"/><path fill="#f6af9a" d="M 716.816406 431.949219 C 716.816406 431.949219 722.597656 473.816406 675.464844 486.667969 C 619.089844 502.03125 585.453125 492.722656 563.882812 485.191406 C 542.320312 477.660156 534.207031 445.628906 574.019531 433.101562 C 608.886719 422.128906 616.910156 420.03125 642.21875 413.308594 C 674.246094 404.796875 711.472656 395.570312 716.816406 431.949219 " fill-opacity="1" fill-rule="nonzero"/><path fill="#212851" d="M 543.75 465.996094 C 543.75 465.996094 541.996094 454.78125 549.15625 446.945312 C 556.320312 439.109375 564.429688 433.707031 596.730469 425.0625 C 629.027344 416.414062 663.898438 404.121094 683.898438 404.527344 C 703.898438 404.933594 713.769531 407.496094 718.226562 431.679688 C 722.683594 455.863281 703.628906 477.074219 687.679688 483.558594 C 671.738281 490.042969 622.542969 504.09375 575.648438 489.90625 C 570.648438 488.691406 545.375 483.015625 543.75 465.996094 " fill-opacity="1" fill-rule="nonzero"/><path fill="#1b2449" d="M 600.007812 464.746094 L 596.832031 494.511719 C 601.851562 495.210938 606.832031 495.644531 611.738281 495.863281 C 609.027344 476.445312 600.007812 464.746094 600.007812 464.746094 " fill-opacity="1" fill-rule="nonzero"/><path fill="#f6af9a" d="M 596.902344 456.738281 C 596.902344 456.738281 602.292969 469.644531 603.304688 505.9375 C 604.316406 542.230469 603.707031 563.019531 596.804688 592.855469 C 589.902344 622.6875 592.550781 636.625 578.773438 638.074219 C 564.609375 639.5625 566.261719 613.066406 560.316406 581.101562 C 552.054688 536.671875 543.214844 480.148438 545.863281 459.8125 C 548.335938 440.847656 587.554688 435.550781 596.902344 456.738281 " fill-opacity="1" fill-rule="nonzero"/><path fill="#212851" d="M 554.359375 444.3125 C 554.359375 444.3125 542.09375 448.667969 543.617188 469.542969 C 545.074219 489.582031 556.183594 582.714844 560.441406 606.425781 C 560.441406 606.425781 576.253906 613.113281 597.132812 607.4375 C 597.132812 607.4375 605.242188 566.105469 605.648438 526.992188 C 606.054688 487.882812 607.269531 440.867188 572.199219 441.273438 C 565.105469 441.679688 560.644531 442.082031 554.359375 444.3125 " fill-opacity="1" fill-rule="nonzero"/><path fill="#f6af9a" d="M 571.207031 614.429688 C 580.097656 607.203125 591.125 612.890625 591.671875 618.570312 C 592.582031 628.011719 593.644531 629.859375 595.816406 638.378906 C 597.988281 646.898438 594.691406 653.976562 583.78125 655.632812 C 572.863281 657.285156 551.953125 656.585938 536.308594 657.785156 C 520.667969 658.980469 509.964844 656.117188 509.472656 650.042969 C 508.984375 643.96875 520.023438 638.957031 532.597656 635.214844 C 545.171875 631.476562 558.519531 626.628906 563.96875 621.914062 C 568.730469 617.785156 567.152344 617.730469 571.207031 614.429688 " fill-opacity="1" fill-rule="nonzero"/><path fill="#eaeaea" d="M 505.722656 651 C 505.722656 651 506.046875 656.484375 506.179688 657.96875 C 506.316406 659.457031 513.34375 664.859375 530.238281 664.726562 C 547.128906 664.589844 565.375 663.242188 575.105469 663.101562 C 584.835938 662.96875 593.945312 663.535156 595.515625 662.699219 C 597.539062 661.617188 596.59375 654.59375 596.59375 654.59375 L 505.722656 651 " fill-opacity="1" fill-rule="nonzero"/><path fill="#81d9e9" d="M 592.738281 625.34375 C 592.699219 625.210938 592.582031 625.121094 592.441406 625.105469 C 591.90625 625.0625 590.480469 625.097656 588.484375 626.355469 C 585.914062 627.976562 579.5625 632.304688 569.429688 632.707031 C 569.429688 632.707031 562.804688 625.144531 556.722656 625.144531 C 555.101562 625.546875 548.886719 629.601562 534.695312 633.519531 C 520.503906 637.4375 505.777344 643.648438 505.640625 649.863281 C 505.503906 656.078125 512.53125 658.917969 526.722656 659.457031 C 540.914062 659.996094 556.589844 658.644531 575.777344 657.699219 C 594.972656 656.753906 595.914062 656.617188 596.589844 654.59375 C 597.269531 652.566406 597.808594 644.597656 596.320312 638.113281 C 594.871094 631.78125 593.660156 628.113281 592.738281 625.34375 " fill-opacity="1" fill-rule="nonzero"/><path fill="#6ecbe5" d="M 556.726562 625.144531 C 555.101562 625.546875 548.886719 629.601562 534.695312 633.515625 C 531.066406 634.519531 527.402344 635.671875 523.960938 636.933594 C 530.898438 643.335938 534.625 640.871094 544.152344 638.652344 C 554.023438 636.355469 569.429688 632.707031 569.429688 632.707031 C 569.429688 632.707031 562.804688 625.144531 556.726562 625.144531 " fill-opacity="1" fill-rule="nonzero"/><path fill="#f6af9a" d="M 651.589844 215.378906 C 651.589844 215.378906 675.15625 210.558594 696.4375 224.773438 C 717.71875 238.988281 714.683594 270.0625 709.515625 302.585938 C 705.761719 326.207031 704.246094 345.21875 705.867188 372.375 C 707.109375 393.132812 692.949219 413.335938 655.1875 414.726562 C 617.425781 416.121094 609.230469 397.789062 607.238281 383.65625 C 604.710938 365.6875 602.667969 316.917969 598.417969 295.4375 C 594.175781 273.957031 592.308594 234.601562 613.714844 225.523438 C 635.117188 216.441406 640.183594 216.628906 651.589844 215.378906 " fill-opacity="1" fill-rule="nonzero"/><path fill="#f6af9a" d="M 635.335938 194.445312 C 635.335938 194.445312 637.132812 210.0625 632.015625 220.300781 C 626.898438 230.539062 647.207031 235.722656 658.105469 230.539062 C 668.335938 225.679688 670.796875 219.941406 667.058594 210.828125 C 662.96875 200.84375 663.222656 200.589844 664.757812 184.203125 C 666.292969 167.820312 630.988281 170.125 635.335938 194.445312 " fill-opacity="1" fill-rule="nonzero"/><path fill="#e57e73" d="M 659.769531 190.15625 C 661.570312 186.671875 662.953125 183.003906 663.925781 179.28125 C 658.652344 168.65625 631.492188 172.941406 635.339844 194.445312 C 635.339844 194.445312 636.484375 204.425781 634.328125 213.664062 C 644.609375 208.484375 654.507812 200.332031 659.769531 190.15625 " fill-opacity="1" fill-rule="nonzero"/><path fill="#ffffff" d="M 630.074219 218.867188 C 630.074219 218.867188 624.097656 231.128906 634.535156 232.042969 C 644.976562 232.953125 660.785156 227.074219 669.097656 213.601562 C 669.097656 213.601562 692.425781 218.046875 703.980469 231.625 C 715.539062 245.203125 713.105469 264.898438 712.695312 274.828125 C 712.289062 284.757812 707.617188 319.484375 707.414062 336.910156 C 707.210938 354.339844 712.277344 388.992188 712.277344 388.992188 C 712.277344 388.992188 651.257812 399.730469 600.984375 386.355469 C 600.984375 386.355469 601.1875 360.011719 598.957031 335.085938 C 596.726562 310.160156 588.414062 250.785156 603.617188 232.75 C 604.632812 231.128906 613.550781 222.621094 630.074219 218.867188 " fill-opacity="1" fill-rule="nonzero"/><path fill="#81d9e9" d="M 667.609375 212.273438 C 667.609375 212.273438 664.03125 220.085938 659.46875 225.960938 C 654.910156 231.839844 632.710938 253.621094 623.082031 281.484375 C 623.082031 281.484375 620.6875 230.992188 632.851562 218.433594 C 632.851562 218.433594 621.691406 220.019531 612.265625 225.496094 C 602.839844 230.964844 597.507812 238.691406 594.96875 255.714844 C 592.4375 272.738281 593.890625 291.011719 594.089844 304.484375 C 594.296875 317.964844 598.347656 340.152344 598.554688 354.339844 C 598.757812 368.523438 598.960938 372.171875 598.960938 372.171875 C 598.960938 372.171875 596.324219 373.589844 598.148438 384.734375 C 598.148438 384.734375 592.675781 388.789062 559.429688 398.3125 C 526.183594 407.835938 494.140625 415.800781 488.109375 433.371094 C 488.109375 433.371094 503.148438 419.472656 535.867188 440.09375 C 535.867188 440.09375 538.515625 437.625 548.347656 435.058594 C 558.175781 432.492188 567.539062 431.546875 567.539062 431.546875 C 567.539062 431.546875 559.667969 435.375 554.328125 442.019531 C 554.328125 442.019531 559.734375 440.152344 581.15625 452.894531 C 604.671875 466.878906 605.703125 503.851562 605.703125 503.851562 C 605.703125 503.851562 610.085938 503.441406 610.917969 497.78125 C 610.917969 497.78125 685.316406 501.660156 708.226562 471.871094 C 712.480469 466.605469 726.265625 452.621094 718.566406 412.902344 C 710.859375 373.183594 709.957031 334.121094 711.808594 308.070312 C 713.945312 278.023438 720.167969 242.292969 701.328125 226.46875 C 683.695312 214.714844 667.609375 212.273438 667.609375 212.273438 " fill-opacity="1" fill-rule="nonzero"/><path fill="#81cfe5" d="M 665.261719 244.789062 C 665.261719 244.789062 655.808594 253.945312 645.464844 277.570312 C 635.128906 301.195312 628.039062 319.503906 628.039062 319.503906 L 594.09375 304.503906 C 594.296875 317.984375 598.347656 340.160156 598.554688 354.339844 C 598.585938 356.671875 598.617188 358.722656 598.652344 360.515625 C 612.480469 368.761719 635.554688 381.417969 648.421875 382.40625 C 667.625 383.882812 701.597656 285.542969 704.257812 266.054688 C 706.914062 247.449219 689.1875 226.777344 665.261719 244.789062 " fill-opacity="1" fill-rule="nonzero"/><path fill="#6ecbe5" d="M 623.082031 281.488281 C 622.671875 283.355469 622.414062 285.253906 622.1875 287.148438 L 622.097656 287.863281 L 622.027344 288.574219 L 621.878906 290.003906 C 621.800781 290.957031 621.699219 291.90625 621.644531 292.859375 C 621.363281 296.675781 621.226562 300.496094 621.171875 304.320312 C 621.164062 306.230469 621.125 308.144531 621.15625 310.054688 C 621.167969 311.007812 621.160156 311.964844 621.1875 312.921875 L 621.25 315.789062 C 621.351562 319.609375 621.484375 323.4375 621.601562 327.261719 C 622.089844 342.5625 622.511719 357.867188 622.734375 373.179688 L 622.765625 376.050781 L 622.804688 381.792969 L 622.804688 384.664062 C 622.804688 388.496094 622.777344 392.328125 622.625 396.164062 C 622.566406 397.125 622.554688 398.082031 622.453125 399.046875 L 622.324219 400.496094 C 622.253906 400.976562 622.191406 401.464844 622.082031 401.945312 C 621.878906 402.90625 621.589844 403.867188 621.152344 404.769531 C 620.714844 405.664062 620.144531 406.492188 619.496094 407.242188 L 618.992188 407.789062 C 618.820312 407.964844 618.640625 408.128906 618.457031 408.300781 C 618.375 408.382812 618.285156 408.46875 618.191406 408.550781 L 617.910156 408.785156 C 617.722656 408.941406 617.539062 409.105469 617.347656 409.257812 C 616.570312 409.847656 615.78125 410.414062 614.953125 410.917969 C 613.308594 411.941406 611.605469 412.839844 609.886719 413.699219 C 606.441406 415.394531 602.929688 416.929688 599.40625 418.433594 C 595.878906 419.933594 592.34375 421.40625 588.804688 422.863281 L 567.539062 431.546875 L 572.800781 429.242188 L 578.074219 426.964844 L 588.617188 422.421875 C 592.132812 420.914062 595.65625 419.40625 599.15625 417.863281 C 602.65625 416.320312 606.144531 414.746094 609.546875 413.023438 C 611.246094 412.152344 612.914062 411.242188 614.511719 410.222656 C 615.3125 409.714844 616.078125 409.167969 616.820312 408.59375 L 617.359375 408.140625 L 617.625 407.914062 C 617.710938 407.835938 617.792969 407.753906 617.878906 407.675781 C 618.046875 407.515625 618.214844 407.355469 618.378906 407.191406 L 618.847656 406.675781 C 619.445312 405.976562 619.960938 405.214844 620.359375 404.386719 C 620.757812 403.5625 621.015625 402.671875 621.199219 401.765625 C 621.300781 401.3125 621.359375 400.847656 621.421875 400.386719 L 621.539062 398.972656 C 621.632812 398.035156 621.644531 397.074219 621.6875 396.125 C 621.824219 392.3125 621.855469 388.488281 621.84375 384.664062 L 621.839844 381.796875 L 621.785156 376.0625 L 621.75 373.191406 C 621.65625 365.539062 621.496094 357.890625 621.335938 350.238281 L 620.847656 327.28125 C 620.773438 323.453125 620.6875 319.628906 620.632812 315.800781 L 620.601562 312.925781 C 620.585938 311.96875 620.605469 311.011719 620.605469 310.054688 C 620.601562 308.136719 620.652344 306.226562 620.691406 304.308594 C 620.820312 300.480469 621.03125 296.652344 621.386719 292.835938 C 621.460938 291.882812 621.582031 290.933594 621.675781 289.980469 L 621.851562 288.558594 C 621.90625 288.078125 621.972656 287.601562 622.042969 287.128906 C 622.316406 285.238281 622.625 283.34375 623.082031 281.488281 " fill-opacity="1" fill-rule="nonzero"/><path fill="#6ecbe5" d="M 656.226562 255.472656 C 656.226562 255.472656 656.226562 251.820312 654.707031 248.785156 C 654.707031 248.785156 680.449219 225.773438 682.695312 216.777344 C 682.714844 216.691406 682.664062 216.605469 682.585938 216.574219 C 672.695312 212.730469 667.613281 212.269531 667.613281 212.269531 C 667.613281 212.269531 664.03125 220.082031 659.46875 225.960938 C 654.910156 231.839844 632.710938 253.621094 623.082031 281.484375 C 623.082031 281.484375 620.6875 230.992188 632.851562 218.429688 C 632.851562 218.429688 626.507812 218.707031 619.046875 222.257812 C 618.210938 227.054688 617.28125 234.761719 618.222656 242.097656 C 618.222656 242.097656 613.660156 246.652344 612.144531 250.910156 C 610.621094 255.167969 620.785156 306.175781 620.785156 306.175781 C 620.785156 306.175781 627.34375 282.519531 656.226562 255.472656 " fill-opacity="1" fill-rule="nonzero"/><path fill="#6ecbe5" d="M 596.816406 298.914062 C 596.816406 298.914062 604.398438 302.324219 617.824219 305.769531 L 617.824219 310.757812 C 617.824219 310.757812 604.792969 307.148438 597.011719 303.308594 L 596.816406 298.914062 " fill-opacity="1" fill-rule="nonzero"/><path fill="#212851" d="M 676.015625 213.929688 C 673.4375 206.925781 666.285156 205.890625 665.972656 205.847656 C 665.734375 205.8125 665.347656 205.804688 665.140625 205.898438 C 665.414062 206.683594 665.734375 207.527344 666.101562 208.460938 C 667.714844 208.847656 671.945312 210.273438 673.617188 214.816406 C 675.851562 220.898438 671.957031 230.417969 662.929688 240.9375 C 654.601562 250.644531 642.703125 260.164062 631.875 265.78125 C 626.359375 268.640625 622.34375 269.210938 619.929688 267.476562 C 617.828125 265.960938 615.699219 261.71875 617.523438 250.105469 L 617.585938 249.710938 C 618.882812 241.238281 624.851562 220.5 630.335938 213.382812 C 630.484375 213.191406 630.925781 212.628906 631.414062 211.953125 C 630.273438 212.429688 628.953125 212.761719 627.523438 212.917969 C 621.953125 221.238281 616.355469 240.796875 615.058594 249.320312 L 614.996094 249.707031 C 614.390625 253.566406 612.542969 265.3125 618.433594 269.550781 C 619.777344 270.519531 621.398438 271.003906 623.296875 271.003906 C 626.007812 271.003906 629.269531 270.019531 633.054688 268.054688 C 644.320312 262.207031 656.214844 252.695312 664.875 242.605469 C 674.664062 231.195312 678.621094 221.011719 676.015625 213.929688 " fill-opacity="1" fill-rule="nonzero"/><path fill="#212851" d="M 616.082031 289.785156 C 616.96875 276.59375 621.519531 270.09375 621.5625 270.027344 L 620.125 268.992188 C 619.925781 269.269531 615.238281 275.921875 614.3125 289.664062 C 614.003906 294.210938 614.191406 298.972656 614.367188 303.582031 C 614.726562 312.871094 615.066406 321.648438 611.433594 327.308594 C 610.304688 329.066406 609.246094 329.898438 608.519531 329.589844 C 606.195312 328.597656 604.75 318.796875 607.515625 307.28125 C 608.910156 302.710938 608.625 298.847656 606.855469 298.292969 C 606.007812 298.03125 604.78125 298.386719 603.746094 301.566406 C 604.28125 301.75 604.839844 301.9375 605.425781 302.136719 C 605.800781 300.980469 606.15625 300.394531 606.367188 300.136719 C 606.695312 300.867188 606.90625 303.222656 605.816406 306.792969 L 605.800781 306.84375 C 604.476562 312.34375 603.957031 317.957031 604.335938 322.652344 C 604.558594 325.390625 605.304688 330.144531 607.828125 331.21875 C 608.125 331.347656 608.464844 331.433594 608.847656 331.433594 C 609.9375 331.433594 611.34375 330.730469 612.921875 328.269531 C 616.859375 322.136719 616.511719 313.089844 616.136719 303.511719 C 615.964844 298.949219 615.78125 294.234375 616.082031 289.785156 " fill-opacity="1" fill-rule="nonzero"/><path fill="#f6af9a" d="M 673.296875 155.863281 C 672.28125 133.527344 650.84375 117.667969 629.230469 123.429688 C 621.328125 125.539062 613.308594 129.832031 609.773438 138.441406 C 603.609375 154.199219 605.820312 175.570312 607.402344 187.566406 C 607.402344 187.566406 609.464844 214.75 628.882812 211.582031 C 648.300781 208.410156 669.925781 187.257812 672.753906 167.054688 C 673.277344 163.3125 673.460938 159.546875 673.296875 155.863281 " fill-opacity="1" fill-rule="nonzero"/><path fill="#8c4949" d="M 639.042969 140.515625 C 639.042969 140.515625 630.632812 148.183594 631.613281 153.480469 C 632.601562 158.773438 633.570312 161.785156 632.347656 163.375 C 632.347656 163.375 635.605469 162.089844 637.070312 160.183594 C 637.070312 160.183594 637.234375 163.585938 638.234375 166.878906 C 639.242188 170.171875 642.878906 175.4375 642.3125 179.0625 C 641.75 182.683594 652.160156 190.164062 655.875 194.523438 C 657.980469 197 660.699219 199.117188 662.652344 200.488281 C 664.007812 201.4375 665.398438 200.902344 665.746094 199.28125 C 666.421875 196.140625 667.777344 190.992188 670.050781 186.878906 C 673.828125 180.046875 694.753906 138.59375 664.394531 124.894531 C 660.082031 119.984375 649.394531 112.542969 627.511719 118.054688 C 605.765625 123.53125 613.800781 130.996094 601.769531 132.867188 C 601.769531 132.867188 604.066406 135.132812 608.988281 135.628906 C 608.988281 135.628906 606.679688 137.640625 604.15625 137.976562 C 604.15625 137.976562 613.597656 142.4375 623.929688 138.507812 C 623.929688 138.507812 621.738281 141.367188 618.445312 142.371094 C 618.445312 142.371094 621.976562 145.816406 632.875 141.808594 C 634.34375 141.269531 636.164062 140.320312 639.042969 140.515625 " fill-opacity="1" fill-rule="nonzero"/><path fill="#e8e8e8" d="M 606.136719 177.824219 C 606.148438 177.726562 606.222656 177.636719 606.328125 177.613281 C 606.972656 177.445312 609.449219 176.902344 612.703125 177.238281 C 616.285156 177.609375 623.820312 179.375 630.605469 178.703125 C 631.261719 178.644531 631.820312 179.167969 631.808594 179.828125 C 631.734375 183.519531 632.328125 194.175781 641.316406 197.414062 C 641.855469 197.609375 642.164062 198.179688 642.015625 198.730469 C 641.382812 201.101562 639.25 207.074219 633.054688 211.101562 C 625.1875 216.210938 602.03125 212.976562 606.136719 177.824219 " fill-opacity="1" fill-rule="nonzero"/><path fill="#e8e8e8" d="M 641.652344 198.410156 L 640.808594 197.902344 C 646.054688 189.269531 647.402344 182.90625 647.613281 179.085938 C 647.875 174.363281 646.570312 171.488281 645.261719 170.375 C 644.929688 170.09375 644.085938 169.507812 643.351562 170.128906 C 640.292969 172.738281 630.691406 179.859375 630.589844 179.929688 L 630.003906 179.136719 C 630.101562 179.066406 639.679688 171.964844 642.714844 169.378906 C 643.613281 168.621094 644.828125 168.710938 645.902344 169.625 C 649.277344 172.496094 651.101562 182.855469 641.652344 198.410156 " fill-opacity="1" fill-rule="nonzero"/><path fill="#f6af9a" d="M 639.074219 175.863281 C 639.074219 175.863281 643.0625 163.039062 649.957031 165.691406 C 656.847656 168.347656 652.402344 179.914062 648.179688 184.203125 C 644.617188 187.828125 635.75 186.347656 639.074219 175.863281 " fill-opacity="1" fill-rule="nonzero"/><path fill="#e57e73" d="M 643.367188 179.800781 C 643.328125 179.808594 643.289062 179.816406 643.25 179.820312 C 642.78125 179.867188 642.363281 179.53125 642.3125 179.0625 C 642.296875 178.90625 641.9375 175.195312 643.925781 172.902344 C 644.863281 171.816406 646.140625 171.230469 647.730469 171.15625 C 648.183594 171.136719 648.597656 171.453125 648.65625 171.898438 C 648.71875 172.398438 648.335938 172.835938 647.839844 172.859375 C 646.710938 172.90625 645.84375 173.28125 645.210938 174.015625 C 643.960938 175.464844 643.921875 178.019531 644.011719 178.886719 C 644.054688 179.3125 643.773438 179.699219 643.367188 179.800781 " fill-opacity="1" fill-rule="nonzero"/><path fill="#e57e73" d="M 643.535156 177.679688 C 643.242188 177.753906 642.914062 177.664062 642.695312 177.421875 C 642.382812 177.070312 642.410156 176.535156 642.761719 176.222656 C 642.851562 176.140625 645.039062 174.21875 647.90625 174.789062 C 648.367188 174.882812 648.664062 175.328125 648.570312 175.789062 C 648.480469 176.253906 648.03125 176.554688 647.570312 176.460938 C 645.535156 176.054688 643.914062 177.472656 643.898438 177.488281 C 643.792969 177.585938 643.667969 177.648438 643.535156 177.679688 " fill-opacity="1" fill-rule="nonzero"/><path fill="#f7bead" d="M 705.484375 248.945312 C 706.375 252.84375 706.308594 256.894531 705.40625 260.789062 C 703.722656 268.109375 698.746094 285.144531 684.65625 314.34375 C 664.972656 355.128906 658.554688 378.886719 639.347656 372.066406 C 620.898438 365.511719 633.394531 330.804688 638.105469 311.40625 C 642.816406 292.011719 659.242188 243.382812 674.730469 234.070312 C 688.121094 226.011719 702.175781 234.464844 705.484375 248.945312 " fill-opacity="1" fill-rule="nonzero"/><path fill="#81d9e9" d="M 691.058594 230.835938 C 691.058594 230.835938 677.578125 225.59375 667.152344 240.464844 C 656.730469 255.328125 650.058594 271.980469 641.824219 295.082031 C 633.59375 318.179688 615.472656 365.738281 639.40625 373.289062 C 644.140625 374.65625 653.707031 376.96875 663.492188 360.1875 C 673.277344 343.40625 692.878906 299.726562 700.054688 280.996094 C 707.230469 262.261719 714.015625 239.691406 691.058594 230.835938 " fill-opacity="1" fill-rule="nonzero"/><path fill="#2e3b72" d="M 512.109375 289.699219 C 511.214844 289.183594 510.90625 288.039062 511.421875 287.144531 L 532.761719 250.203125 C 533.277344 249.308594 534.421875 249 535.316406 249.515625 C 536.207031 250.035156 536.519531 251.179688 536.003906 252.074219 L 514.664062 289.015625 C 514.148438 289.910156 513.003906 290.21875 512.109375 289.699219 " fill-opacity="1" fill-rule="nonzero"/><path fill="#1a2347" d="M 508.191406 249.652344 L 466.449219 263.941406 C 465.445312 264.28125 464.445312 266.039062 465.125 267.121094 L 523.421875 335.015625 C 524.488281 336.285156 526.121094 336.941406 527.773438 336.753906 L 572.601562 331.699219 C 573.773438 331.566406 574.347656 330.207031 573.632812 329.273438 L 513.726562 251.316406 C 512.429688 249.628906 510.203125 248.960938 508.191406 249.652344 " fill-opacity="1" fill-rule="nonzero"/><path fill="#1a2347" d="M 478.542969 266.195312 L 473.582031 259.871094 C 472.445312 258.429688 473.03125 256.308594 474.742188 255.644531 L 494.347656 248.460938 C 495.488281 248.019531 496.78125 248.390625 497.515625 249.367188 L 503.492188 257.246094 L 478.542969 266.195312 " fill-opacity="1" fill-rule="nonzero"/><path fill="#212851" d="M 507.699219 251.027344 L 465.960938 265.316406 C 464.953125 265.660156 464.605469 266.910156 465.289062 267.722656 L 522.929688 336.394531 C 523.996094 337.667969 525.628906 338.316406 527.28125 338.132812 L 572.109375 333.078125 C 573.28125 332.945312 573.859375 331.585938 573.140625 330.652344 L 513.234375 252.695312 C 511.9375 251.007812 509.714844 250.339844 507.699219 251.027344 " fill-opacity="1" fill-rule="nonzero"/><path fill="#f6af9a" d="M 566.097656 305.21875 C 560.269531 300.785156 555.335938 298.867188 551.734375 291.941406 C 548.125 285.015625 545.421875 279.679688 539.339844 276.257812 C 534.742188 273.675781 532.660156 273.382812 530.453125 273.078125 L 535.996094 280.296875 C 536.753906 281.367188 539.390625 287.148438 536.246094 289.820312 C 533.226562 292.382812 520.691406 290.339844 509.941406 288.792969 C 499.195312 287.25 494.300781 287.71875 493.949219 289.84375 C 493.511719 292.523438 497.777344 293.910156 497.777344 293.910156 C 497.777344 293.910156 493.632812 293.410156 494.457031 296.511719 C 495.28125 299.617188 502.582031 301.824219 502.582031 301.824219 C 502.582031 301.824219 500.375 301.195312 500.769531 303.886719 C 501.164062 306.578125 508.464844 308.785156 508.464844 308.785156 C 507.707031 313.019531 515.957031 314.207031 529.417969 314.335938 C 538.195312 314.421875 545.960938 318.628906 553.027344 321.769531 C 560.097656 324.914062 565.699219 322.347656 565.699219 322.347656 C 573.914062 319.984375 571.929688 309.652344 566.097656 305.21875 " fill-opacity="1" fill-rule="nonzero"/><path fill="#e57e73" d="M 497.78125 293.855469 L 503.847656 294.285156 L 509.910156 294.699219 C 510.921875 294.769531 511.933594 294.808594 512.941406 294.855469 C 513.953125 294.898438 514.960938 294.980469 515.964844 295.078125 C 516.972656 295.1875 517.976562 295.304688 518.980469 295.441406 C 519.480469 295.5 519.984375 295.574219 520.484375 295.648438 C 520.988281 295.722656 521.492188 295.789062 521.996094 295.890625 C 522.03125 295.894531 522.054688 295.925781 522.046875 295.957031 C 522.039062 295.984375 522.019531 296 521.996094 296.007812 C 521.488281 296.085938 520.980469 296.140625 520.46875 296.1875 C 519.957031 296.222656 519.449219 296.253906 518.9375 296.269531 C 517.917969 296.296875 516.902344 296.300781 515.882812 296.257812 C 514.867188 296.222656 513.855469 296.140625 512.84375 296.019531 L 509.824219 295.640625 L 506.800781 295.273438 L 503.785156 294.871094 C 501.777344 294.582031 499.773438 294.300781 497.765625 293.96875 C 497.734375 293.96875 497.714844 293.9375 497.71875 293.90625 C 497.722656 293.871094 497.753906 293.851562 497.78125 293.855469 " fill-opacity="1" fill-rule="nonzero"/><path fill="#e57e73" d="M 502.585938 301.765625 C 504.261719 301.84375 505.933594 301.929688 507.605469 301.996094 L 512.613281 302.191406 C 513.449219 302.222656 514.285156 302.21875 515.117188 302.230469 C 515.953125 302.234375 516.785156 302.269531 517.617188 302.332031 L 518.859375 302.441406 L 520.109375 302.566406 C 520.523438 302.605469 520.941406 302.664062 521.355469 302.714844 C 521.773438 302.769531 522.191406 302.824219 522.609375 302.902344 C 522.648438 302.910156 522.667969 302.941406 522.660156 302.972656 C 522.65625 303 522.636719 303.015625 522.617188 303.019531 C 522.199219 303.117188 521.78125 303.1875 521.359375 303.257812 C 520.941406 303.3125 520.523438 303.359375 520.101562 303.398438 C 519.675781 303.445312 519.257812 303.453125 518.835938 303.480469 C 518.414062 303.5 517.996094 303.511719 517.574219 303.511719 C 516.734375 303.519531 515.894531 303.476562 515.058594 303.394531 L 512.554688 303.132812 L 510.050781 302.878906 L 507.554688 302.582031 C 505.894531 302.359375 504.230469 302.148438 502.574219 301.882812 C 502.542969 301.878906 502.523438 301.847656 502.523438 301.816406 C 502.53125 301.785156 502.558594 301.765625 502.585938 301.765625 " fill-opacity="1" fill-rule="nonzero"/><path fill="#e57e73" d="M 508.46875 308.726562 C 509.871094 308.761719 511.277344 308.804688 512.679688 308.816406 C 513.378906 308.824219 514.082031 308.835938 514.78125 308.839844 C 515.484375 308.855469 516.183594 308.855469 516.882812 308.859375 C 517.582031 308.859375 518.28125 308.839844 518.980469 308.816406 C 519.679688 308.800781 520.375 308.804688 521.074219 308.847656 C 521.773438 308.882812 522.46875 308.945312 523.167969 309.015625 C 523.871094 309.09375 524.566406 309.167969 525.273438 309.3125 C 525.308594 309.324219 525.332031 309.355469 525.324219 309.386719 C 525.316406 309.410156 525.300781 309.425781 525.28125 309.433594 C 524.585938 309.621094 523.882812 309.757812 523.179688 309.847656 C 522.472656 309.945312 521.769531 309.996094 521.0625 310.03125 C 520.359375 310.050781 519.652344 310.042969 518.953125 309.988281 C 518.246094 309.929688 517.542969 309.855469 516.84375 309.804688 C 516.144531 309.746094 515.4375 309.6875 514.742188 309.625 C 514.039062 309.558594 513.339844 309.480469 512.640625 309.402344 C 511.246094 309.230469 509.851562 309.066406 508.457031 308.84375 C 508.425781 308.839844 508.40625 308.808594 508.40625 308.777344 C 508.414062 308.75 508.4375 308.726562 508.46875 308.726562 " fill-opacity="1" fill-rule="nonzero"/><path fill="#f6af9a" d="M 641.554688 373.257812 C 641.554688 373.257812 622.984375 367.832031 594.527344 350.6875 C 566.070312 333.539062 559.40625 328.050781 546.246094 317.378906 C 536.425781 309.410156 544.617188 297.632812 560.804688 303.117188 C 576.988281 308.601562 591.796875 312.015625 612.96875 320.46875 C 634.140625 328.917969 654.125 334.695312 660.050781 342.492188 C 668.429688 353.515625 655.574219 376.539062 641.554688 373.257812 " fill-opacity="1" fill-rule="nonzero"/><path fill="#81d9e9" d="M 664.097656 344.765625 C 664.097656 344.765625 662.351562 339.128906 648.277344 332.5625 C 635.160156 326.449219 563.644531 301.289062 563.644531 301.289062 C 563.644531 301.289062 558.878906 307.699219 550.75 325.914062 C 550.75 325.914062 624.898438 372.3125 642.609375 374.285156 C 644.664062 374.355469 652.832031 375.464844 660.496094 364.988281 C 668.75 353.707031 664.097656 344.765625 664.097656 344.765625 " fill-opacity="1" fill-rule="nonzero"/></svg>