<svg xmlns="http://www.w3.org/2000/svg" xmlns:xlink="http://www.w3.org/1999/xlink" width="1080" zoomAndPan="magnify" viewBox="0 0 810 809.999993" height="1080" preserveAspectRatio="xMidYMid meet" version="1.0"><defs><clipPath id="7cca570014"><path d="M 69 366 L 725 366 L 725 703.617188 L 69 703.617188 Z M 69 366 " clip-rule="nonzero"/></clipPath><clipPath id="9a0ed7bc91"><path d="M 322 506 L 640 506 L 640 703.617188 L 322 703.617188 Z M 322 506 " clip-rule="nonzero"/></clipPath><clipPath id="24aca72856"><path d="M 142 92.367188 L 452 92.367188 L 452 491 L 142 491 Z M 142 92.367188 " clip-rule="nonzero"/></clipPath><clipPath id="5d9d37d1b1"><path d="M 308 371 L 605 371 L 605 703.617188 L 308 703.617188 Z M 308 371 " clip-rule="nonzero"/></clipPath></defs><g clip-path="url(#7cca570014)"><path fill="#57b236" d="M 397.078125 366.679688 L 348.089844 366.910156 C 312.230469 367.460938 276.371094 368.617188 241.148438 370.371094 C 212.664062 371.652344 198.628906 376.304688 196.105469 377.214844 L 195.746094 377.355469 C 192.742188 378.507812 189.796875 379.789062 186.90625 381.210938 C 184.019531 382.632812 181.207031 384.183594 178.460938 385.863281 C 175.71875 387.542969 173.054688 389.347656 170.476562 391.273438 C 167.898438 393.199219 165.414062 395.238281 163.027344 397.394531 C 160.636719 399.550781 158.347656 401.808594 156.167969 404.175781 C 153.984375 406.542969 151.917969 409.003906 149.960938 411.558594 C 148.007812 414.117188 146.175781 416.757812 144.460938 419.484375 C 142.75 422.210938 141.167969 425.011719 139.714844 427.882812 C 109.425781 489.40625 89.0625 535.445312 73.640625 577.191406 C 65.6875 598.375 68.519531 622.050781 81.570312 643.699219 C 96.824219 669.050781 124.449219 688.199219 153.6875 693.683594 C 154.300781 693.800781 154.96875 693.890625 155.570312 693.964844 C 174.21875 696.042969 194.234375 697.15625 196.273438 697.273438 C 262.871094 701.503906 330.199219 703.683594 397.078125 703.683594 C 463.960938 703.683594 531.328125 701.554688 597.886719 697.273438 C 599.921875 697.15625 619.941406 695.992188 638.589844 693.964844 C 639.230469 693.890625 639.871094 693.800781 640.472656 693.683594 C 669.710938 688.199219 697.335938 669.050781 712.589844 643.699219 C 725.652344 622 728.472656 598.375 720.519531 577.1875 C 705.148438 535.445312 684.734375 489.417969 654.445312 427.882812 C 652.992188 425.011719 651.40625 422.210938 649.695312 419.484375 C 647.984375 416.757812 646.152344 414.117188 644.195312 411.558594 C 642.242188 409.003906 640.171875 406.542969 637.992188 404.175781 C 635.808594 401.808594 633.523438 399.550781 631.132812 397.394531 C 628.742188 395.238281 626.257812 393.199219 623.679688 391.273438 C 621.101562 389.347656 618.441406 387.542969 615.699219 385.863281 C 612.953125 384.183594 610.136719 382.632812 607.25 381.210938 C 604.363281 379.789062 601.417969 378.507812 598.410156 377.355469 L 598.054688 377.214844 C 595.492188 376.304688 581.492188 371.652344 553.007812 370.371094 C 517.828125 368.617188 481.878906 367.460938 446.066406 366.910156 Z M 397.078125 366.679688 " fill-opacity="1" fill-rule="nonzero"/></g><path fill="#99badc" d="M 495.042969 508.976562 L 638.488281 693.964844 C 639.113281 693.890625 639.765625 693.800781 640.367188 693.683594 C 669.648438 688.199219 697.324219 669.050781 712.601562 643.699219 C 725.679688 622 728.496094 598.375 720.53125 577.191406 C 705.160156 535.445312 684.667969 489.417969 654.367188 427.882812 C 652.90625 425.007812 651.316406 422.207031 649.597656 419.476562 C 647.878906 416.75 646.039062 414.105469 644.078125 411.546875 C 642.113281 408.988281 640.039062 406.527344 637.847656 404.160156 C 635.660156 401.792969 633.367188 399.53125 630.96875 397.375 C 628.570312 395.222656 626.078125 393.179688 623.492188 391.253906 C 620.90625 389.332031 618.238281 387.527344 615.484375 385.847656 C 612.734375 384.171875 609.910156 382.621094 607.015625 381.203125 C 604.121094 379.785156 601.167969 378.503906 598.15625 377.355469 Z M 495.042969 508.976562 " fill-opacity="1" fill-rule="nonzero"/><g clip-path="url(#9a0ed7bc91)"><path fill="#4193d2" d="M 485.527344 506.644531 L 322.207031 702.414062 C 347.359375 703.003906 372.492188 703.296875 397.605469 703.296875 C 464.585938 703.296875 532.082031 701.167969 598.679688 696.890625 C 600.730469 696.785156 620.773438 695.605469 639.460938 693.582031 Z M 485.527344 506.644531 " fill-opacity="1" fill-rule="nonzero"/></g><g clip-path="url(#24aca72856)"><path fill="#dd4247" d="M 403.265625 140.433594 C 373.707031 110.3125 336.246094 92.417969 296.773438 92.484375 L 295.695312 92.484375 C 215.535156 93.777344 144.339844 168.628906 142.339844 248.53125 C 142.183594 257.339844 142.871094 266.085938 144.390625 274.761719 C 145.914062 283.4375 148.25 291.890625 151.394531 300.121094 L 151.496094 300.390625 C 151.882812 302.953125 184.359375 375.804688 285.375 484.136719 C 285.726562 484.621094 286.109375 485.082031 286.511719 485.519531 C 286.828125 485.871094 287.15625 486.203125 287.503906 486.519531 C 287.851562 486.835938 288.214844 487.132812 288.59375 487.410156 C 288.972656 487.6875 289.363281 487.949219 289.765625 488.1875 C 290.171875 488.425781 290.585938 488.640625 291.011719 488.839844 C 291.441406 489.035156 291.875 489.207031 292.320312 489.359375 C 292.765625 489.511719 293.214844 489.640625 293.671875 489.746094 C 294.128906 489.851562 294.589844 489.929688 295.058594 489.988281 C 295.523438 490.046875 295.992188 490.082031 296.460938 490.09375 C 296.929688 490.101562 297.398438 490.089844 297.867188 490.050781 C 298.332031 490.011719 298.796875 489.949219 299.257812 489.867188 C 299.722656 489.78125 300.175781 489.671875 300.628906 489.539062 C 301.078125 489.40625 301.519531 489.253906 301.957031 489.074219 C 302.390625 488.898438 302.816406 488.699219 303.230469 488.476562 C 303.644531 488.257812 304.046875 488.015625 304.433594 487.753906 C 304.824219 487.492188 305.199219 487.210938 305.5625 486.910156 C 305.921875 486.609375 306.265625 486.292969 306.59375 485.957031 C 345.664062 446.742188 380.246094 403.898438 410.335938 357.425781 C 432.109375 323.398438 441.585938 301.582031 441.96875 300.632812 L 442.175781 300.121094 C 445.292969 291.96875 447.613281 283.59375 449.140625 274.996094 C 450.664062 266.398438 451.367188 257.734375 451.242188 249.007812 C 450.664062 209.15625 433.015625 170.820312 403.265625 140.433594 Z M 403.265625 140.433594 " fill-opacity="1" fill-rule="nonzero"/></g><path fill="#ffffff" d="M 508.132812 504.082031 L 653.226562 690.699219 C 649.347656 691.933594 645.40625 692.929688 641.40625 693.683594 C 640.792969 693.800781 640.125 693.890625 639.523438 693.964844 C 629.917969 695.03125 619.96875 695.851562 612.269531 696.402344 L 485.449219 533.304688 Z M 508.132812 504.082031 " fill-opacity="1" fill-rule="nonzero"/><g clip-path="url(#5d9d37d1b1)"><path fill="#fca84c" d="M 508.132812 504.117188 L 604.558594 380.113281 L 604.828125 379.78125 C 603 378.925781 601.140625 378.148438 599.246094 377.445312 L 598.886719 377.304688 C 596.746094 376.535156 586.335938 373.089844 565.882812 371.269531 L 563.894531 373.972656 L 308.554688 702.398438 C 323.460938 702.808594 338.367188 703.121094 353.265625 703.335938 L 485.449219 533.34375 Z M 508.132812 504.117188 " fill-opacity="1" fill-rule="nonzero"/></g><path fill="#ba2525" d="M 297.179688 310.386719 C 263.433594 310.386719 235.949219 282.945312 236.128906 249.429688 C 236.308594 215.914062 263.882812 188.007812 297.179688 187.972656 C 330.480469 187.933594 358.003906 215.9375 358.234375 249.492188 C 358.464844 283.046875 330.941406 310.335938 297.179688 310.386719 Z M 297.179688 310.386719 " fill-opacity="1" fill-rule="nonzero"/></svg>